<?xml version="1.0" standalone="no"?>
<!DOCTYPE svg PUBLIC "-//W3C//DTD SVG 20010904//EN"
 "http://www.w3.org/TR/2001/REC-SVG-20010904/DTD/svg10.dtd">
<svg version="1.0" xmlns="http://www.w3.org/2000/svg"
 width="700.000000pt" height="700.000000pt" viewBox="0 0 700.000000 700.000000"
 preserveAspectRatio="xMidYMid meet">
<metadata>
Created by potrace 1.14, written by Peter Selinger 2001-2017
</metadata>
<g transform="translate(0.000000,700.000000) scale(0.100000,-0.100000)"
fill="#000000" stroke="none">
<path d="M3278 6995 c-1 -1 -42 -5 -89 -9 -47 -4 -95 -8 -106 -10 -11 -3 -44
-7 -74 -11 -313 -38 -709 -158 -1024 -311 -180 -87 -448 -247 -555 -331 -8 -6
-51 -40 -95 -74 -342 -266 -650 -623 -875 -1014 -47 -81 -170 -327 -170 -339
0 -3 -11 -29 -24 -58 -43 -96 -112 -298 -142 -413 -4 -16 -8 -34 -10 -40 -5
-16 -25 -98 -30 -120 -39 -194 -47 -242 -60 -350 -26 -230 -26 -667 1 -826 2
-13 6 -46 9 -74 9 -78 22 -152 51 -285 21 -96 91 -339 114 -395 5 -11 25 -65
46 -120 49 -130 168 -373 244 -500 391 -648 952 -1139 1640 -1435 269 -115
598 -207 880 -246 25 -3 57 -8 71 -10 163 -25 682 -25 842 1 13 2 46 7 73 10
71 10 87 13 115 18 14 3 43 8 65 12 324 59 744 213 1039 384 49 28 91 51 93
51 9 0 267 179 343 239 157 122 333 287 460 430 36 41 70 79 76 85 6 6 48 61
94 121 152 200 276 403 388 638 29 59 52 110 52 113 0 3 8 24 19 47 53 118
147 417 177 562 17 81 54 301 59 350 4 33 9 71 11 85 9 46 11 524 4 605 -12
128 -21 202 -25 227 -3 13 -8 43 -11 68 -9 69 -70 336 -97 425 -189 620 -509
1131 -988 1580 -486 455 -1149 777 -1813 881 -21 3 -48 7 -59 10 -12 2 -49 6
-83 10 -33 3 -74 8 -90 10 -33 5 -540 14 -546 9z"/>
</g>
</svg>
