<svg width="569" height="488" viewBox="0 0 569 488" fill="none" xmlns="http://www.w3.org/2000/svg">
<path fill-rule="evenodd" clip-rule="evenodd" d="M314.375 0.0737559C397.374 1.64048 480.512 28.6799 530.003 90.1475C577.754 149.455 573.778 227.567 555.438 299.475C537.29 370.632 503.725 442.874 432.07 474.123C360.88 505.169 281.773 478.273 208.981 450.566C128.08 419.772 34.3368 390.262 8.87433 313.038C-17.9337 231.734 25.7356 144.95 87.387 81.7924C144.562 23.221 228.938 -1.53899 314.375 0.0737559Z" fill="#0F6BC7"/>
<path d="M441.853 275.728V339.778C440.09 341.07 438.277 342.292 436.413 343.442C419.802 353.63 400.673 357.559 381.066 357.962C368.779 357.599 356.537 356.311 344.444 354.109L337.317 352.849C334.936 352.434 332.544 351.93 330.164 351.452V275.728H441.853Z" fill="#1976D2"/>
<path d="M441.853 275.728V339.778C440.09 341.07 438.277 342.292 436.413 343.442C419.802 353.63 400.673 357.559 381.066 357.962C368.779 357.599 356.537 356.311 344.444 354.109L337.317 352.849C334.936 352.434 332.544 351.93 330.164 351.452V275.728H441.853Z" fill="#0052A4"/>
<path d="M389.087 266.661H331.889L321.487 222.371H378.685L389.087 266.661Z" fill="white"/>
<path d="M386.015 266.661H328.816L318.414 222.371H375.613L386.015 266.661Z" fill="#1976D2"/>
<path d="M386.015 266.661H328.816L318.414 222.371H375.613L386.015 266.661Z" fill="#473F47"/>
<path d="M435.468 107.608H268.948C259.12 107.608 251.153 115.575 251.153 125.403V218.53C251.153 228.357 259.12 236.324 268.948 236.324H435.468C445.296 236.324 453.263 228.357 453.263 218.53V125.403C453.263 115.575 445.296 107.608 435.468 107.608Z" fill="white"/>
<path d="M431.224 107.608H264.704C254.876 107.608 246.909 115.575 246.909 125.403V218.53C246.909 228.357 254.876 236.324 264.704 236.324H431.224C441.052 236.324 449.019 228.357 449.019 218.53V125.403C449.019 115.575 441.052 107.608 431.224 107.608Z" fill="#B4B7CC"/>
<path d="M449.006 210.785V218.517C449.006 223.236 447.131 227.762 443.794 231.099C440.457 234.437 435.931 236.311 431.212 236.311H264.691C259.972 236.311 255.446 234.437 252.109 231.099C248.772 227.762 246.897 223.236 246.897 218.517V210.785H449.006Z" fill="#44475F"/>
<path d="M261.354 326.819C261.453 331.483 260.561 336.115 258.734 340.407H258.52C253.596 340.269 248.66 340.407 243.723 340.709C235.511 341.365 227.344 342.509 219.267 344.135C215.489 344.827 211.812 345.596 208.097 346.351C204.382 347.107 200.994 347.812 197.431 348.505C190.668 349.764 184.17 350.96 177.873 351.867C169.69 348.408 162.377 343.173 156.465 336.541C155.822 335.823 155.205 335.093 154.601 334.35C153.833 333.38 153.102 332.373 152.422 331.315C150.369 328.365 149.037 324.975 148.531 321.417C148.367 319.973 148.418 318.513 148.682 317.085C149.626 312.135 153.241 308.194 157.321 305.159C157.762 304.831 158.202 304.504 158.656 304.202C167.644 297.968 178.416 294.83 189.346 295.26C190.252 295.26 191.172 295.336 192.078 295.399C197.935 295.857 203.736 296.86 209.407 298.396C218.373 300.688 227.327 303.899 236.18 306.733C242.735 308.483 249.006 311.159 254.805 314.679C256.467 315.75 257.915 317.121 259.075 318.722C260.585 321.151 261.376 323.959 261.354 326.819Z" fill="#3E3E54"/>
<path d="M258.52 340.407C253.596 340.269 248.66 340.407 243.723 340.71C235.511 341.365 227.344 342.509 219.267 344.135C215.489 344.828 211.812 345.596 208.097 346.351C204.382 347.107 200.994 347.812 197.43 348.505C178.364 352.22 160.734 356.489 141.113 352.837C139.947 352.7 138.825 352.309 137.827 351.691C136.645 350.66 135.813 349.287 135.446 347.762C132.711 339.141 133.447 329.793 137.499 321.706C142.285 312.274 149.878 308.534 158.757 304.076C168.995 298.887 177.646 294.971 189.446 295.26C190.353 295.26 191.272 295.336 192.179 295.399C198.001 295.874 203.767 296.877 209.407 298.396C218.222 300.688 227.125 303.862 235.853 306.67C242.409 308.415 248.681 311.091 254.478 314.616C256.146 315.678 257.599 317.045 258.76 318.646C260.245 321.062 261.026 323.845 261.014 326.681C261.178 331.382 260.328 336.064 258.52 340.407Z" fill="#363136"/>
<path d="M287.183 343.153C277.767 341.64 268.266 340.723 258.735 340.407H258.52C253.596 340.269 248.66 340.407 243.723 340.709C235.511 341.365 227.344 342.509 219.267 344.135C215.489 344.827 211.812 345.596 208.097 346.351C197.456 344.45 186.688 342.913 176.161 340.583C170.921 339.755 165.931 337.772 161.552 334.778C160.443 333.908 159.449 332.901 158.593 331.781C158.206 331.28 157.853 330.754 157.535 330.207C156.185 328.014 155.535 325.462 155.671 322.89C155.713 322.207 155.831 321.531 156.024 320.875C157.47 317.098 160.18 313.938 163.693 311.934C169.025 308.092 175.303 305.775 181.853 305.234C186.248 304.995 190.668 305.876 195 305.637C198.904 305.423 201.599 303.257 205.075 302.741C207.718 302.427 210.397 302.663 212.945 303.433C218.902 305.071 225.048 308.647 229.72 310.989L261.203 326.706L261.442 326.819L267.739 329.967C273.646 332.69 279.244 336.038 284.437 339.954C285.723 340.635 286.704 341.778 287.183 343.153Z" fill="#473F47"/>
<path d="M414.072 266.661V275.728H48.6538C48.0871 272.706 47.5456 269.683 47.0544 266.674L414.072 266.661Z" fill="#1976D2"/>
<path d="M414.072 266.661V275.728H48.6538C48.0871 272.706 47.5456 269.683 47.0544 266.674L414.072 266.661Z" fill="#003D79"/>
<path d="M229.556 138.928C225.199 135.062 216.081 134.13 211.925 138.399C208.853 141.547 208.651 146.458 207.896 150.828C206.772 157.116 204.131 163.034 200.201 168.068C198.085 170.763 195.542 173.307 194.635 176.594C194.257 177.657 194.257 178.818 194.635 179.881C195.265 181.005 196.211 181.92 197.355 182.513C199.955 184.405 202.897 185.774 206.019 186.543C207.583 186.907 209.218 186.821 210.734 186.292C212.25 185.764 213.585 184.816 214.583 183.558C215.313 182.475 215.842 181.04 217.101 180.611C218.738 180.095 220.212 181.682 221.799 182.311C224.481 183.332 227.554 181.405 228.889 178.861C230.022 176.205 230.703 173.379 230.904 170.499C231.092 167.593 232.417 164.878 234.593 162.943C235.462 162.301 236.57 161.822 236.999 160.827C237.767 158.989 235.739 157.314 234.48 155.79C230.614 150.753 234.493 143.046 229.556 138.928Z" fill="#E9A590"/>
<path d="M228.183 121.133C222.705 114.837 214.331 111.273 207.178 115.668C204.483 117.33 202.342 119.836 199.508 121.234C197.761 122.002 195.931 122.568 194.056 122.922C189.195 124.08 184.157 125.717 180.87 129.47C177.584 133.223 176.966 139.696 180.807 142.882C180.016 143.944 179.628 145.252 179.711 146.573C179.794 147.894 180.343 149.143 181.261 150.098C182.443 151.029 183.708 151.851 185.039 152.554C188.817 155.072 188.817 157.906 188.527 161.734C188.593 162.372 188.852 162.974 189.27 163.459L192.721 168.497C193.917 170.197 195.504 172.01 197.531 172.01C200.528 171.872 202.065 167.665 205.087 167.414C206.384 167.517 207.657 167.814 208.865 168.295C210.125 168.597 211.837 168.232 212.152 166.96C210.532 166.081 209.309 164.616 208.733 162.865C208.157 161.114 208.272 159.21 209.054 157.54C209.772 156.13 211.573 154.934 212.832 155.866C213.6 156.432 213.789 157.478 214.23 158.384C214.671 159.291 215.943 159.858 216.509 159.089C218.184 155.148 216.409 150.425 217.643 146.395C218.205 144.659 219.274 143.132 220.713 142.009C222.152 140.887 223.894 140.221 225.715 140.099C227.289 139.973 228.876 140.3 230.45 140.099C231.243 140.055 232.002 139.763 232.619 139.263C233.236 138.763 233.68 138.082 233.888 137.316C234.707 131.825 232.238 125.755 228.183 121.133Z" fill="#3E3E54"/>
<path d="M186.248 179.428C185.937 179.847 185.723 180.33 185.623 180.842C185.523 181.354 185.538 181.882 185.668 182.387C185.916 182.83 186.284 183.193 186.73 183.436C187.175 183.679 187.681 183.791 188.187 183.76C195.327 184.452 202.783 185.435 209.457 188.923C210.905 189.616 212.807 190.359 213.814 188.923C214.1 188.404 214.25 187.821 214.25 187.229C214.25 186.637 214.1 186.054 213.814 185.535C213.269 184.585 212.516 183.772 211.611 183.155C208.721 181.027 205.696 179.087 202.556 177.35C196.725 173.912 190.731 172.098 186.248 179.428Z" fill="#E6E6E6"/>
<path d="M208.689 297.036C212.089 303.811 219.217 307.942 212.089 314.78C199.496 326.907 177.244 331.995 160.381 331.831C149.047 331.73 137.398 329.136 128.52 322.134C125.798 320.172 123.672 317.496 122.375 314.402C121.732 312.364 121.393 310.242 121.367 308.105C119.138 268.336 133.243 229.171 153.14 194.678C156.918 188.079 161.955 180.951 169.436 179.843C172.136 179.582 174.861 179.752 177.508 180.347C195.175 183.406 212.647 187.501 229.833 192.613C231.887 192.96 233.833 193.78 235.516 195.008C237.199 196.237 238.573 197.839 239.53 199.69L266.719 241.336C270.648 247.356 274.728 253.929 274.275 261.095C274.251 263.197 273.544 265.235 272.26 266.9C270.193 268.834 267.526 270.003 264.704 270.212C254.798 271.81 244.658 271.121 235.059 268.197C240.424 264.079 238.736 255.529 235.198 249.748C232.801 245.856 229.829 242.349 226.382 239.346C224.094 250.594 220.37 261.501 215.3 271.799C211.522 279.506 204.369 288.498 208.689 297.036Z" fill="white"/>
<path d="M131.24 243.792C131.933 241.198 133.948 232.962 136.416 228.428C146.252 235.442 153.467 249.131 157.107 260.654C160.746 272.177 163.706 284.292 171.098 293.837L179.107 291.054L180.593 296.092C181.777 300.071 178.415 304.164 178.755 308.194C179.095 312.223 183.15 315.75 186.978 316.807C191.587 318.067 196.499 317.034 201.12 315.813C204.105 315.229 206.93 314.014 209.407 312.249C211.736 310.335 213.273 307.136 212.404 304.252C213.36 304.847 214.094 305.741 214.49 306.795C214.886 307.849 214.923 309.005 214.595 310.083C213.905 312.225 212.589 314.111 210.817 315.498C205.226 320.409 198.111 323.142 191.159 325.774C187.83 327.105 184.433 328.261 180.984 329.237C173.126 331.315 164.902 331.516 156.779 331.756C151.843 331.869 148.884 331.101 146.705 326.215C143.582 319.251 143.355 311.392 142.599 303.786C140.368 283.525 136.571 263.466 131.24 243.792Z" fill="#E6E6E6"/>
<path d="M158.19 316.757C158.19 318.923 158.14 321.127 158.039 323.369C157.925 325.598 157.724 327.877 157.447 330.207L157.258 331.73C157.044 333.317 156.805 334.917 156.515 336.541C156.502 336.599 156.502 336.659 156.515 336.717C156.351 337.612 156.175 338.518 155.999 339.438C156.766 344.381 156.138 349.44 154.185 354.046C149.697 354.201 145.204 354.13 140.723 353.832C131.986 353.304 123.34 351.765 114.957 349.248C106.392 344.865 98.4856 339.298 91.4708 332.713C89.5315 331.056 87.9869 328.986 86.9498 326.655C86.1987 324.138 85.9379 321.501 86.1817 318.885C86.4306 304.296 84.508 289.751 80.4769 275.728C79.608 272.681 78.6257 269.658 77.5553 266.674C76.296 263.286 75.0366 259.949 73.538 256.599C70.0875 248.829 65.9065 241.248 64.3324 232.899C63.4514 228.328 63.4002 223.635 64.1812 219.046C64.2206 218.23 64.5308 217.45 65.0628 216.83C65.4626 216.51 65.9233 216.274 66.4169 216.138C66.9105 216.002 67.4266 215.967 67.934 216.036C78.4368 216.326 87.9825 222.333 98.3593 224.108C103.686 225.015 109.215 224.776 114.391 226.312C121.758 228.478 127.425 233.868 131.895 240.165C134.206 243.505 136.252 247.021 138.016 250.68C140.71 256.158 143.229 261.397 145.571 266.497C146.932 269.558 148.203 272.567 149.349 275.552C153.228 284.932 155.923 294.759 157.371 304.806V304.995C157.889 308.895 158.163 312.823 158.19 316.757Z" fill="#3E3E54"/>
<path d="M158.19 316.757C158.19 318.923 158.14 321.127 158.039 323.369C157.925 325.598 157.724 327.877 157.447 330.207L157.258 331.73C157.044 333.317 156.805 334.917 156.515 336.541C156.502 336.599 156.502 336.659 156.515 336.717C156.351 337.612 156.175 338.518 155.999 339.438C156.766 344.381 156.138 349.44 154.185 354.046C149.697 354.201 145.204 354.13 140.723 353.832C131.986 353.304 123.34 351.765 114.957 349.248C106.392 344.865 98.4856 339.298 91.4708 332.713C89.5315 331.056 87.9869 328.986 86.9498 326.655C86.1987 324.138 85.9379 321.501 86.1817 318.885C86.4306 304.296 84.508 289.751 80.4769 275.728C79.608 272.681 78.6257 269.658 77.5553 266.674C76.296 263.286 75.0366 259.949 73.538 256.599C70.0875 248.829 65.9065 241.248 64.3324 232.899C63.4514 228.328 63.4002 223.635 64.1812 219.046C64.2206 218.23 64.5308 217.45 65.0628 216.83C65.4626 216.51 65.9233 216.274 66.4169 216.138C66.9105 216.002 67.4266 215.967 67.934 216.036C78.4368 216.326 87.9825 222.333 98.3593 224.108C103.686 225.015 109.215 224.776 114.391 226.312C121.758 228.478 127.425 233.868 131.895 240.165C134.206 243.505 136.252 247.021 138.016 250.68C140.71 256.158 143.229 261.397 145.571 266.497C146.932 269.558 148.203 272.567 149.349 275.552C153.228 284.932 155.923 294.759 157.371 304.806V304.995C157.889 308.895 158.163 312.823 158.19 316.757Z" fill="#0C5399"/>
<path d="M478.436 266.661H362.138V275.716H478.436V266.661Z" fill="#1976D2"/>
<path d="M478.436 266.661H362.138V275.716H478.436V266.661Z" fill="#0052A4"/>
<path d="M449.006 275.728V339.778C447.243 341.07 445.43 342.292 443.566 343.442C414.601 361.211 377.917 359.965 344.444 354.109L337.316 352.849V275.728H449.006Z" fill="#1976D2"/>
<rect x="250.743" y="116.369" width="34.8143" height="87.5553" rx="5" fill="#1565C0"/>
<rect x="288.155" y="116.369" width="75.3443" height="87.5553" rx="5" fill="white"/>
<rect x="366.097" y="116.369" width="75.3443" height="87.5553" rx="5" fill="white"/>
<rect x="255.159" y="120.235" width="25.9808" height="29.6181" rx="5" fill="white"/>
<rect x="255.159" y="153.751" width="25.9808" height="5.97558" rx="2.98779" fill="#1976D2"/>
<rect x="255.159" y="161.805" width="25.9808" height="5.97558" rx="2.98779" fill="#1976D2"/>
<rect x="255.159" y="169.859" width="25.9808" height="5.97558" rx="2.98779" fill="#1976D2"/>
<circle cx="297.768" cy="136.634" r="5.71578" fill="#1565C0"/>
<circle cx="297.768" cy="153.262" r="5.71578" fill="#1565C0"/>
<circle cx="297.768" cy="169.889" r="5.71578" fill="#1565C0"/>
<circle cx="297.768" cy="186.517" r="5.71578" fill="#1565C0"/>
<rect x="306.082" y="133.256" width="29.3583" height="2.59808" fill="#C4C4C4"/>
<rect x="306.082" y="149.884" width="29.3583" height="2.59808" fill="#C4C4C4"/>
<rect x="306.082" y="166.512" width="29.3583" height="2.59808" fill="#C4C4C4"/>
<rect x="306.082" y="183.14" width="29.3583" height="2.59808" fill="#C4C4C4"/>
<rect x="306.082" y="137.673" width="29.3583" height="2.59808" fill="#C4C4C4"/>
<rect x="306.082" y="154.301" width="29.3583" height="2.59808" fill="#C4C4C4"/>
<rect x="306.082" y="170.929" width="29.3583" height="2.59808" fill="#C4C4C4"/>
<rect x="306.082" y="187.556" width="29.3583" height="2.59808" fill="#C4C4C4"/>
<rect x="348.171" y="118.707" width="11.9512" height="11.9512" rx="5.97558" fill="#EF6C00"/>
<path d="M354.147 126.761C353.861 126.761 353.627 126.995 353.627 127.281C353.627 127.567 353.861 127.8 354.147 127.8C354.432 127.8 354.666 127.567 354.666 127.281C354.666 126.995 354.432 126.761 354.147 126.761ZM352.588 122.085C352.302 122.085 352.068 122.319 352.068 122.604C352.068 122.89 352.302 123.124 352.588 123.124C352.874 123.124 353.107 122.89 353.107 122.604C353.107 122.319 352.874 122.085 352.588 122.085ZM352.588 123.644C352.302 123.644 352.068 123.877 352.068 124.163C352.068 124.449 352.302 124.683 352.588 124.683C352.874 124.683 353.107 124.449 353.107 124.163C353.107 123.877 352.874 123.644 352.588 123.644ZM352.588 125.202C352.302 125.202 352.068 125.436 352.068 125.722C352.068 126.008 352.302 126.242 352.588 126.242C352.874 126.242 353.107 126.008 353.107 125.722C353.107 125.436 352.874 125.202 352.588 125.202ZM355.705 123.124C355.991 123.124 356.225 122.89 356.225 122.604C356.225 122.319 355.991 122.085 355.705 122.085C355.42 122.085 355.186 122.319 355.186 122.604C355.186 122.89 355.42 123.124 355.705 123.124ZM354.147 125.202C353.861 125.202 353.627 125.436 353.627 125.722C353.627 126.008 353.861 126.242 354.147 126.242C354.432 126.242 354.666 126.008 354.666 125.722C354.666 125.436 354.432 125.202 354.147 125.202ZM355.705 125.202C355.42 125.202 355.186 125.436 355.186 125.722C355.186 126.008 355.42 126.242 355.705 126.242C355.991 126.242 356.225 126.008 356.225 125.722C356.225 125.436 355.991 125.202 355.705 125.202ZM355.705 123.644C355.42 123.644 355.186 123.877 355.186 124.163C355.186 124.449 355.42 124.683 355.705 124.683C355.991 124.683 356.225 124.449 356.225 124.163C356.225 123.877 355.991 123.644 355.705 123.644ZM354.147 123.644C353.861 123.644 353.627 123.877 353.627 124.163C353.627 124.449 353.861 124.683 354.147 124.683C354.432 124.683 354.666 124.449 354.666 124.163C354.666 123.877 354.432 123.644 354.147 123.644ZM354.147 122.085C353.861 122.085 353.627 122.319 353.627 122.604C353.627 122.89 353.861 123.124 354.147 123.124C354.432 123.124 354.666 122.89 354.666 122.604C354.666 122.319 354.432 122.085 354.147 122.085Z" fill="white"/>
<path d="M343.371 136.579C343.735 137.315 344.323 137.915 345.039 138.292L345.596 137.72C345.664 137.65 345.765 137.626 345.854 137.658C346.137 137.754 346.443 137.806 346.757 137.806C346.896 137.806 347.01 137.923 347.01 138.066V138.972C347.01 139.115 346.896 139.232 346.757 139.232C344.381 139.232 342.455 137.255 342.455 134.815C342.455 134.672 342.569 134.556 342.708 134.556H343.594C343.733 134.556 343.847 134.672 343.847 134.815C343.847 135.14 343.897 135.452 343.991 135.743C344.019 135.834 343.999 135.935 343.928 136.008L343.371 136.579Z" fill="#1565C0"/>
<path d="M343.371 153.207C343.735 153.942 344.323 154.543 345.039 154.919L345.596 154.348C345.664 154.278 345.765 154.254 345.854 154.285C346.137 154.381 346.443 154.433 346.757 154.433C346.896 154.433 347.01 154.55 347.01 154.693V155.6C347.01 155.743 346.896 155.86 346.757 155.86C344.381 155.86 342.455 153.883 342.455 151.443C342.455 151.3 342.569 151.183 342.708 151.183H343.594C343.733 151.183 343.847 151.3 343.847 151.443C343.847 151.768 343.897 152.08 343.991 152.371C344.019 152.461 343.999 152.563 343.928 152.636L343.371 153.207Z" fill="#1565C0"/>
<path d="M343.371 169.835C343.735 170.57 344.323 171.17 345.039 171.547L345.596 170.975C345.664 170.905 345.765 170.882 345.854 170.913C346.137 171.009 346.443 171.061 346.757 171.061C346.896 171.061 347.01 171.178 347.01 171.321V172.228C347.01 172.371 346.896 172.487 346.757 172.487C344.381 172.487 342.455 170.51 342.455 168.071C342.455 167.928 342.569 167.811 342.708 167.811H343.594C343.733 167.811 343.847 167.928 343.847 168.071C343.847 168.395 343.897 168.707 343.991 168.998C344.019 169.089 343.999 169.191 343.928 169.263L343.371 169.835Z" fill="#1565C0"/>
<path d="M343.371 186.463C343.735 187.198 344.323 187.798 345.039 188.175L345.596 187.603C345.664 187.533 345.765 187.51 345.854 187.541C346.137 187.637 346.443 187.689 346.757 187.689C346.896 187.689 347.01 187.806 347.01 187.949V188.855C347.01 188.998 346.896 189.115 346.757 189.115C344.381 189.115 342.455 187.138 342.455 184.698C342.455 184.556 342.569 184.439 342.708 184.439H343.594C343.733 184.439 343.847 184.556 343.847 184.698C343.847 185.023 343.897 185.335 343.991 185.626C344.019 185.717 343.999 185.818 343.928 185.891L343.371 186.463Z" fill="#1565C0"/>
<path d="M356.571 136.439V135.378C356.571 135.211 356.435 135.075 356.268 135.075H352.631C352.464 135.075 352.328 135.211 352.328 135.378V138.409C352.328 138.576 352.464 138.712 352.631 138.712H356.268C356.435 138.712 356.571 138.576 356.571 138.409V137.348L357.784 138.561V135.227L356.571 136.439Z" fill="#1565C0"/>
<path d="M356.571 153.067V152.006C356.571 151.839 356.435 151.703 356.268 151.703H352.631C352.464 151.703 352.328 151.839 352.328 152.006V155.037C352.328 155.204 352.464 155.34 352.631 155.34H356.268C356.435 155.34 356.571 155.204 356.571 155.037V153.976L357.784 155.189V151.854L356.571 153.067Z" fill="#1565C0"/>
<path d="M356.571 169.694V168.634C356.571 168.467 356.435 168.331 356.268 168.331H352.631C352.464 168.331 352.328 168.467 352.328 168.634V171.665C352.328 171.831 352.464 171.968 352.631 171.968H356.268C356.435 171.968 356.571 171.831 356.571 171.665V170.604L357.784 171.816V168.482L356.571 169.694Z" fill="#1565C0"/>
<path d="M356.571 186.322V185.261C356.571 185.095 356.435 184.958 356.268 184.958H352.631C352.464 184.958 352.328 185.095 352.328 185.261V188.292C352.328 188.459 352.464 188.596 352.631 188.596H356.268C356.435 188.596 356.571 188.459 356.571 188.292V187.232L357.784 188.444V185.11L356.571 186.322Z" fill="#1565C0"/>
</svg>
