<svg width="551" height="547" viewBox="0 0 551 547" fill="none" xmlns="http://www.w3.org/2000/svg">
<path fill-rule="evenodd" clip-rule="evenodd" d="M247.197 9.00935C173.947 16.4828 99.888 34.1314 54.3324 91.9769C9.07941 149.438 3.19263 226.453 19.8668 297.668C36.4092 368.32 80.8128 425.397 141.657 464.937C216.828 513.788 303.504 568.668 387.117 536.329C475.403 502.183 516.498 404.34 537.169 311.965C557.708 220.18 561.686 114.796 496.65 46.8484C435.468 -17.0738 335.224 0.0282407 247.197 9.00935Z" fill="#0F6BC7"/>
<path d="M448.75 52.8866H185.098C169.538 52.8866 156.924 64.2132 156.924 78.1854V210.588C156.924 224.56 169.538 235.887 185.098 235.887H448.75C464.31 235.887 476.924 224.56 476.924 210.588V78.1854C476.924 64.2132 464.31 52.8866 448.75 52.8866Z" fill="white"/>
<path d="M441.75 52.8866H178.098C162.538 52.8866 149.924 64.2132 149.924 78.1854V210.588C149.924 224.56 162.538 235.887 178.098 235.887H441.75C457.31 235.887 469.924 224.56 469.924 210.588V78.1854C469.924 64.2132 457.31 52.8866 441.75 52.8866Z" fill="#B4B7CC"/>
<rect x="155.792" y="78.5945" width="55.2045" height="138.835" rx="5" fill="#1565C0"/>
<rect x="215.116" y="78.5945" width="88.6374" height="138.835" rx="5" fill="white"/>
<rect x="309.924" y="78.5945" width="146.134" height="138.835" rx="5" fill="white"/>
<rect x="162.795" y="84.7254" width="41.1974" height="46.965" rx="5" fill="white"/>
<rect x="391.653" y="85.8866" width="55.6793" height="46.965" rx="5" fill="#C4C4C4"/>
<rect x="391.653" y="137.095" width="55.6793" height="46.965" rx="5" fill="#C4C4C4"/>
<rect x="162.795" y="137.87" width="41.1974" height="9.4754" rx="4.7377" fill="#1976D2"/>
<rect x="162.795" y="150.641" width="41.1974" height="9.4754" rx="4.7377" fill="#1976D2"/>
<rect x="162.795" y="163.412" width="41.1974" height="9.4754" rx="4.7377" fill="#1976D2"/>
<circle cx="230.359" cy="110.728" r="9.06342" fill="#1565C0"/>
<circle cx="230.359" cy="137.095" r="9.06342" fill="#1565C0"/>
<circle cx="230.359" cy="163.461" r="9.06342" fill="#1565C0"/>
<circle cx="230.359" cy="189.827" r="9.06342" fill="#1565C0"/>
<rect x="243.542" y="105.373" width="20.5484" height="4.11974" fill="#C4C4C4"/>
<rect x="334.801" y="91.0788" width="46.553" height="4.11974" fill="#C4C4C4"/>
<rect x="334.801" y="113.638" width="46.553" height="4.11974" fill="#C4C4C4"/>
<rect x="334.801" y="136.198" width="46.553" height="4.11974" fill="#C4C4C4"/>
<rect x="395.944" y="156.457" width="46.6252" height="4.11974" fill="#0F6BC7"/>
<rect x="243.542" y="131.739" width="46.553" height="4.11974" fill="#C4C4C4"/>
<rect x="243.542" y="158.105" width="46.553" height="4.11974" fill="#C4C4C4"/>
<rect x="243.542" y="184.472" width="46.553" height="4.11974" fill="#C4C4C4"/>
<rect x="243.542" y="112.376" width="20.5484" height="4.11974" fill="#C4C4C4"/>
<rect x="334.801" y="98.0824" width="46.553" height="4.11974" fill="#C4C4C4"/>
<rect x="334.801" y="120.642" width="46.553" height="4.11974" fill="#C4C4C4"/>
<rect x="334.801" y="143.201" width="46.553" height="4.11974" fill="#C4C4C4"/>
<rect x="243.542" y="138.743" width="46.553" height="4.11974" fill="#C4C4C4"/>
<rect x="243.542" y="165.109" width="46.553" height="4.11974" fill="#C4C4C4"/>
<rect x="243.542" y="191.475" width="46.553" height="4.11974" fill="#C4C4C4"/>
<rect x="275.264" y="82.3022" width="18.9508" height="18.9508" rx="9.47539" fill="#EF6C00"/>
<g clip-path="url(#clip0)">
<path d="M284.739 95.0734C284.286 95.0734 283.915 95.4442 283.915 95.8974C283.915 96.3505 284.286 96.7213 284.739 96.7213C285.193 96.7213 285.563 96.3505 285.563 95.8974C285.563 95.4442 285.193 95.0734 284.739 95.0734ZM282.268 87.6579C281.814 87.6579 281.444 88.0287 281.444 88.4818C281.444 88.935 281.814 89.3058 282.268 89.3058C282.721 89.3058 283.091 88.935 283.091 88.4818C283.091 88.0287 282.721 87.6579 282.268 87.6579ZM282.268 90.1297C281.814 90.1297 281.444 90.5005 281.444 90.9537C281.444 91.4069 281.814 91.7776 282.268 91.7776C282.721 91.7776 283.091 91.4069 283.091 90.9537C283.091 90.5005 282.721 90.1297 282.268 90.1297ZM282.268 92.6016C281.814 92.6016 281.444 92.9724 281.444 93.4255C281.444 93.8787 281.814 94.2495 282.268 94.2495C282.721 94.2495 283.091 93.8787 283.091 93.4255C283.091 92.9724 282.721 92.6016 282.268 92.6016ZM287.211 89.3058C287.664 89.3058 288.035 88.935 288.035 88.4818C288.035 88.0287 287.664 87.6579 287.211 87.6579C286.758 87.6579 286.387 88.0287 286.387 88.4818C286.387 88.935 286.758 89.3058 287.211 89.3058ZM284.739 92.6016C284.286 92.6016 283.915 92.9724 283.915 93.4255C283.915 93.8787 284.286 94.2495 284.739 94.2495C285.193 94.2495 285.563 93.8787 285.563 93.4255C285.563 92.9724 285.193 92.6016 284.739 92.6016ZM287.211 92.6016C286.758 92.6016 286.387 92.9724 286.387 93.4255C286.387 93.8787 286.758 94.2495 287.211 94.2495C287.664 94.2495 288.035 93.8787 288.035 93.4255C288.035 92.9724 287.664 92.6016 287.211 92.6016ZM287.211 90.1297C286.758 90.1297 286.387 90.5005 286.387 90.9537C286.387 91.4069 286.758 91.7776 287.211 91.7776C287.664 91.7776 288.035 91.4069 288.035 90.9537C288.035 90.5005 287.664 90.1297 287.211 90.1297ZM284.739 90.1297C284.286 90.1297 283.915 90.5005 283.915 90.9537C283.915 91.4069 284.286 91.7776 284.739 91.7776C285.193 91.7776 285.563 91.4069 285.563 90.9537C285.563 90.5005 285.193 90.1297 284.739 90.1297ZM284.739 87.6579C284.286 87.6579 283.915 88.0287 283.915 88.4818C283.915 88.935 284.286 89.3058 284.739 89.3058C285.193 89.3058 285.563 88.935 285.563 88.4818C285.563 88.0287 285.193 87.6579 284.739 87.6579Z" fill="white"/>
</g>
<path d="M269.663 110.642C270.241 111.808 271.172 112.759 272.307 113.357L273.19 112.451C273.298 112.339 273.459 112.302 273.599 112.352C274.049 112.504 274.534 112.586 275.032 112.586C275.253 112.586 275.433 112.772 275.433 112.998V114.436C275.433 114.663 275.253 114.848 275.032 114.848C271.264 114.848 268.21 111.713 268.21 107.845C268.21 107.618 268.391 107.433 268.611 107.433H270.016C270.237 107.433 270.417 107.618 270.417 107.845C270.417 108.36 270.498 108.854 270.646 109.315C270.69 109.46 270.658 109.62 270.546 109.736L269.663 110.642Z" fill="#1565C0"/>
<path d="M288.172 110.419V108.737C288.172 108.473 287.956 108.257 287.692 108.257H281.924C281.66 108.257 281.443 108.473 281.443 108.737V113.544C281.443 113.808 281.66 114.024 281.924 114.024H287.692C287.956 114.024 288.172 113.808 288.172 113.544V111.861L290.095 113.784V108.497L288.172 110.419Z" fill="#1565C0"/>
<path d="M326.549 144.652L325.173 144.495C324.843 144.457 324.518 144.571 324.285 144.804L323.288 145.801C321.755 145.021 320.499 143.769 319.719 142.231L320.721 141.229C320.954 140.996 321.067 140.671 321.029 140.341L320.872 138.976C320.807 138.429 320.347 138.017 319.794 138.017H318.857C318.245 138.017 317.736 138.526 317.774 139.138C318.061 143.764 321.761 147.458 326.381 147.745C326.993 147.783 327.502 147.274 327.502 146.662V145.725C327.508 145.178 327.096 144.717 326.549 144.652ZM323.174 142.345H325.341C325.639 142.345 325.883 142.101 325.883 141.803C325.883 141.505 325.639 141.262 325.341 141.262H324.48L326.814 138.927C327.026 138.716 327.026 138.374 326.814 138.163C326.603 137.952 326.262 137.952 326.051 138.163L323.716 140.498V139.637C323.716 139.339 323.472 139.095 323.174 139.095C322.876 139.095 322.633 139.339 322.633 139.637V141.803C322.633 142.101 322.876 142.345 323.174 142.345Z" fill="#1976D2"/>
<rect x="221.924" y="85.8866" width="48.2477" height="9" rx="4.5" fill="#C4C4C4"/>
<path d="M328.409 93.447L326.356 91.3941C326.183 91.2207 325.891 91.3399 325.891 91.5836V92.5532H323.995C323.843 92.5532 323.724 92.6724 323.724 92.8241V94.4491C323.724 94.6007 323.843 94.7199 323.995 94.7199H325.891V95.6895C325.891 95.9332 326.183 96.0524 326.351 95.8791L328.404 93.8261C328.512 93.7232 328.512 93.5499 328.409 93.447ZM326.557 98.6524L325.181 98.4953C324.851 98.4574 324.526 98.5711 324.293 98.8041L323.296 99.8007C321.763 99.0207 320.506 97.7695 319.726 96.2311L320.728 95.2291C320.961 94.9961 321.075 94.6711 321.037 94.3407L320.88 92.9757C320.815 92.4286 320.355 92.017 319.802 92.017H318.865C318.253 92.017 317.744 92.5261 317.782 93.1382C318.069 97.7641 321.768 101.458 326.389 101.745C327.001 101.783 327.51 101.274 327.51 100.662V99.7249C327.516 99.1778 327.104 98.7174 326.557 98.6524Z" fill="#43A047"/>
<g clip-path="url(#clip1)">
<path d="M328.797 122.235C325.434 119.176 320.371 119.176 317.013 122.235C316.566 122.64 316.566 123.357 316.986 123.789L317.624 124.446C318.001 124.834 318.601 124.867 319.016 124.528L320.062 123.669C320.312 123.466 320.461 123.154 320.461 122.821V121.414C322.044 120.883 323.76 120.878 325.349 121.414V122.826C325.349 123.154 325.498 123.466 325.748 123.674L326.789 124.528C327.209 124.867 327.804 124.834 328.181 124.446L328.819 123.789C329.244 123.357 329.238 122.64 328.797 122.235ZM319.717 118.295C320.009 118.295 320.248 118.049 320.248 117.748V116.889L322.501 119.209C322.708 119.422 323.043 119.422 323.25 119.209L326.258 116.112C326.465 115.898 326.465 115.553 326.258 115.34C326.05 115.127 325.716 115.127 325.509 115.34L322.878 118.049L320.992 116.106H321.842C322.135 116.106 322.374 115.86 322.374 115.559C322.374 115.258 322.135 115.012 321.842 115.012H319.717C319.425 115.012 319.186 115.258 319.186 115.559V117.748C319.186 118.049 319.425 118.295 319.717 118.295Z" fill="#E53935"/>
</g>
<path fill-rule="evenodd" clip-rule="evenodd" d="M406.921 173.697H410.252C410.558 173.697 410.808 173.453 410.808 173.155V169.905C410.808 169.607 410.558 169.364 410.252 169.364H406.921C406.616 169.364 406.366 169.607 406.366 169.905V173.155C406.366 173.453 406.616 173.697 406.921 173.697ZM408.587 166.114C405.522 166.114 403.035 168.54 403.035 171.53C403.035 174.52 405.522 176.947 408.587 176.947C411.652 176.947 414.139 174.52 414.139 171.53C414.139 168.54 411.652 166.114 408.587 166.114Z" fill="#EF6C00"/>
<path d="M434.745 172.072V174.78C434.745 175.078 434.495 175.322 434.189 175.322H427.527C427.222 175.322 426.972 175.078 426.972 174.78V172.072C426.972 171.774 426.722 171.53 426.417 171.53C426.111 171.53 425.861 171.774 425.861 172.072V175.322C425.861 175.918 426.361 176.405 426.972 176.405H434.745C435.355 176.405 435.855 175.918 435.855 175.322V172.072C435.855 171.774 435.605 171.53 435.3 171.53C434.995 171.53 434.745 171.774 434.745 172.072ZM431.413 171.893L432.457 170.875C432.674 170.664 433.024 170.664 433.24 170.875C433.457 171.086 433.457 171.427 433.24 171.639L431.247 173.583C431.03 173.795 430.681 173.795 430.464 173.583L428.471 171.639C428.254 171.427 428.254 171.086 428.471 170.875C428.687 170.664 429.037 170.664 429.254 170.875L430.303 171.893V167.197C430.303 166.899 430.553 166.655 430.858 166.655C431.164 166.655 431.413 166.899 431.413 167.197V171.893Z" fill="#1976D2"/>
<circle cx="168.924" cy="64.8866" r="3" fill="#064B99"/>
<circle cx="177.924" cy="64.8866" r="3" fill="white"/>
<circle cx="186.924" cy="64.8866" r="3" fill="#EF6C00"/>
<rect x="313.623" y="87.0568" width="71.715" height="18.816" rx="5.5" stroke="#1976D2"/>
<path d="M448.75 270.964H185.098C169.538 270.964 156.924 282.291 156.924 296.263V428.665C156.924 442.638 169.538 453.964 185.098 453.964H448.75C464.31 453.964 476.924 442.638 476.924 428.665V296.263C476.924 282.291 464.31 270.964 448.75 270.964Z" fill="white"/>
<path d="M441.75 270.964H178.098C162.538 270.964 149.924 282.291 149.924 296.263V428.665C149.924 442.638 162.538 453.964 178.098 453.964H441.75C457.31 453.964 469.924 442.638 469.924 428.665V296.263C469.924 282.291 457.31 270.964 441.75 270.964Z" fill="#B4B7CC"/>
<rect x="155.792" y="296.672" width="55.2045" height="138.835" rx="5" fill="#1565C0"/>
<rect x="217.048" y="296.672" width="239.01" height="138.835" rx="5" fill="white"/>
<rect x="162.795" y="302.803" width="41.1974" height="46.965" rx="5" fill="white"/>
<rect x="162.795" y="355.948" width="41.1974" height="9.4754" rx="4.7377" fill="#1976D2"/>
<rect x="162.795" y="368.719" width="41.1974" height="9.4754" rx="4.7377" fill="#EF6C00"/>
<rect x="162.795" y="381.49" width="41.1974" height="9.4754" rx="4.7377" fill="#1976D2"/>
<rect x="247.93" y="309.156" width="59.0337" height="4.11974" fill="#C4C4C4"/>
<rect x="247.93" y="331.716" width="59.0337" height="4.11974" fill="#C4C4C4"/>
<rect x="247.93" y="354.275" width="59.0337" height="4.11974" fill="#C4C4C4"/>
<rect x="247.93" y="316.16" width="59.0337" height="4.11974" fill="#C4C4C4"/>
<rect x="247.93" y="338.719" width="59.0337" height="4.11974" fill="#C4C4C4"/>
<rect x="247.93" y="361.279" width="59.0337" height="4.11974" fill="#C4C4C4"/>
<path d="M239.678 362.73L238.303 362.573C237.972 362.535 237.647 362.649 237.414 362.882L236.418 363.878C234.885 363.098 233.628 361.847 232.848 360.309L233.85 359.307C234.083 359.074 234.197 358.749 234.159 358.418L234.002 357.053C233.937 356.506 233.476 356.095 232.924 356.095H231.987C231.375 356.095 230.866 356.604 230.903 357.216C231.191 361.842 234.89 365.536 239.511 365.823C240.123 365.861 240.632 365.352 240.632 364.74V363.803C240.637 363.255 240.226 362.795 239.678 362.73ZM236.304 360.423H238.471C238.768 360.423 239.012 360.179 239.012 359.881C239.012 359.583 238.768 359.339 238.471 359.339H237.609L239.944 357.005C240.155 356.793 240.155 356.452 239.944 356.241C239.733 356.03 239.391 356.03 239.18 356.241L236.846 358.575V357.714C236.846 357.416 236.602 357.173 236.304 357.173C236.006 357.173 235.762 357.416 235.762 357.714V359.881C235.762 360.179 236.006 360.423 236.304 360.423Z" fill="#1976D2"/>
<path d="M241.539 311.525L239.486 309.472C239.312 309.298 239.02 309.418 239.02 309.661V310.631H237.124C236.972 310.631 236.853 310.75 236.853 310.902V312.527C236.853 312.678 236.972 312.798 237.124 312.798H239.02V313.767C239.02 314.011 239.312 314.13 239.48 313.957L241.533 311.904C241.641 311.801 241.641 311.628 241.539 311.525ZM239.686 316.73L238.31 316.573C237.98 316.535 237.655 316.649 237.422 316.882L236.425 317.878C234.892 317.098 233.636 315.847 232.856 314.309L233.858 313.307C234.091 313.074 234.204 312.749 234.166 312.418L234.009 311.053C233.944 310.506 233.484 310.095 232.931 310.095H231.994C231.382 310.095 230.873 310.604 230.911 311.216C231.198 315.842 234.898 319.536 239.518 319.823C240.13 319.861 240.639 319.352 240.639 318.74V317.803C240.645 317.255 240.233 316.795 239.686 316.73Z" fill="#43A047"/>
<g clip-path="url(#clip2)">
<path d="M241.927 340.313C238.563 337.254 233.5 337.254 230.142 340.313C229.696 340.718 229.696 341.435 230.115 341.867L230.753 342.524C231.13 342.912 231.731 342.945 232.145 342.606L233.192 341.746C233.441 341.544 233.59 341.232 233.59 340.898V339.492C235.174 338.961 236.89 338.956 238.478 339.492V340.904C238.478 341.232 238.627 341.544 238.877 341.752L239.918 342.606C240.338 342.945 240.933 342.912 241.31 342.524L241.948 341.867C242.373 341.435 242.368 340.718 241.927 340.313ZM232.846 336.373C233.139 336.373 233.378 336.126 233.378 335.825V334.966L235.631 337.286C235.838 337.5 236.172 337.5 236.38 337.286L239.387 334.189C239.594 333.976 239.594 333.631 239.387 333.418C239.18 333.204 238.845 333.204 238.638 333.418L236.008 336.126L234.122 334.184H234.972C235.264 334.184 235.503 333.937 235.503 333.636C235.503 333.335 235.264 333.089 234.972 333.089H232.846C232.554 333.089 232.315 333.335 232.315 333.636V335.825C232.315 336.126 232.554 336.373 232.846 336.373Z" fill="#E53935"/>
</g>
<circle cx="168.924" cy="282.964" r="3" fill="#064B99"/>
<circle cx="177.924" cy="282.964" r="3" fill="white"/>
<circle cx="186.924" cy="282.964" r="3" fill="#EF6C00"/>
<rect x="321.402" y="312.04" width="46.6252" height="4.11974" fill="#0F6BC7"/>
<rect x="321.402" y="334.904" width="46.6252" height="4.11974" fill="#C4C4C4"/>
<rect x="321.402" y="357.768" width="46.6252" height="4.11974" fill="#C4C4C4"/>
<path fill-rule="evenodd" clip-rule="evenodd" d="M381.044 316.267H384.376C384.681 316.267 384.931 316.023 384.931 315.725V312.475C384.931 312.177 384.681 311.933 384.376 311.933H381.044C380.739 311.933 380.489 312.177 380.489 312.475V315.725C380.489 316.023 380.739 316.267 381.044 316.267ZM382.71 308.683C379.645 308.683 377.158 311.11 377.158 314.1C377.158 317.09 379.645 319.517 382.71 319.517C385.775 319.517 388.262 317.09 388.262 314.1C388.262 311.11 385.775 308.683 382.71 308.683Z" fill="#EF6C00"/>
<path d="M408.868 314.642V317.35C408.868 317.648 408.618 317.892 408.313 317.892H401.65C401.345 317.892 401.095 317.648 401.095 317.35V314.642C401.095 314.344 400.845 314.1 400.54 314.1C400.234 314.1 399.985 314.344 399.985 314.642V317.892C399.985 318.488 400.484 318.975 401.095 318.975H408.868C409.479 318.975 409.978 318.488 409.978 317.892V314.642C409.978 314.344 409.729 314.1 409.423 314.1C409.118 314.1 408.868 314.344 408.868 314.642ZM405.537 314.463L406.58 313.445C406.797 313.233 407.147 313.233 407.363 313.445C407.58 313.656 407.58 313.997 407.363 314.208L405.37 316.153C405.154 316.364 404.804 316.364 404.587 316.153L402.594 314.208C402.378 313.997 402.378 313.656 402.594 313.445C402.811 313.233 403.16 313.233 403.377 313.445L404.426 314.463V309.767C404.426 309.469 404.676 309.225 404.981 309.225C405.287 309.225 405.537 309.469 405.537 309.767V314.463Z" fill="#1976D2"/>
<path d="M408.868 337.506V340.214C408.868 340.512 408.618 340.756 408.313 340.756H401.65C401.345 340.756 401.095 340.512 401.095 340.214V337.506C401.095 337.208 400.845 336.964 400.54 336.964C400.234 336.964 399.985 337.208 399.985 337.506V340.756C399.985 341.352 400.484 341.839 401.095 341.839H408.868C409.479 341.839 409.978 341.352 409.978 340.756V337.506C409.978 337.208 409.729 336.964 409.423 336.964C409.118 336.964 408.868 337.208 408.868 337.506ZM405.537 337.327L406.58 336.309C406.797 336.098 407.147 336.098 407.363 336.309C407.58 336.52 407.58 336.861 407.363 337.073L405.37 339.017C405.154 339.228 404.804 339.228 404.587 339.017L402.594 337.073C402.378 336.861 402.378 336.52 402.594 336.309C402.811 336.098 403.16 336.098 403.377 336.309L404.426 337.327V332.631C404.426 332.333 404.676 332.089 404.981 332.089C405.287 332.089 405.537 332.333 405.537 332.631V337.327Z" fill="#C4C4C4"/>
<path d="M408.868 360.37V363.078C408.868 363.376 408.618 363.62 408.313 363.62H401.65C401.345 363.62 401.095 363.376 401.095 363.078V360.37C401.095 360.072 400.845 359.828 400.54 359.828C400.234 359.828 399.985 360.072 399.985 360.37V363.62C399.985 364.216 400.484 364.703 401.095 364.703H408.868C409.479 364.703 409.978 364.216 409.978 363.62V360.37C409.978 360.072 409.729 359.828 409.423 359.828C409.118 359.828 408.868 360.072 408.868 360.37ZM405.537 360.191L406.58 359.173C406.797 358.962 407.147 358.962 407.363 359.173C407.58 359.384 407.58 359.725 407.363 359.937L405.37 361.881C405.154 362.092 404.804 362.092 404.587 361.881L402.594 359.937C402.378 359.725 402.378 359.384 402.594 359.173C402.811 358.962 403.16 358.962 403.377 359.173L404.426 360.191V355.495C404.426 355.197 404.676 354.953 404.981 354.953C405.287 354.953 405.537 355.197 405.537 355.495V360.191Z" fill="#C4C4C4"/>
<path d="M422.044 314.769C422.622 315.935 423.553 316.886 424.688 317.484L425.571 316.577C425.679 316.466 425.84 316.429 425.98 316.479C426.43 316.631 426.915 316.713 427.413 316.713C427.634 316.713 427.814 316.899 427.814 317.125V318.563C427.814 318.79 427.634 318.975 427.413 318.975C423.645 318.975 420.591 315.84 420.591 311.972C420.591 311.745 420.772 311.56 420.992 311.56H422.397C422.618 311.56 422.798 311.745 422.798 311.972C422.798 312.487 422.878 312.981 423.027 313.442C423.071 313.587 423.039 313.747 422.927 313.863L422.044 314.769Z" fill="#1565C0"/>
<path d="M422.044 337.633C422.622 338.799 423.553 339.75 424.688 340.348L425.571 339.442C425.679 339.33 425.84 339.293 425.98 339.343C426.43 339.495 426.915 339.577 427.413 339.577C427.634 339.577 427.814 339.763 427.814 339.989V341.427C427.814 341.654 427.634 341.839 427.413 341.839C423.645 341.839 420.591 338.704 420.591 334.836C420.591 334.609 420.772 334.424 420.992 334.424H422.397C422.618 334.424 422.798 334.609 422.798 334.836C422.798 335.351 422.878 335.845 423.027 336.306C423.071 336.451 423.039 336.611 422.927 336.727L422.044 337.633Z" fill="#C4C4C4"/>
<path d="M422.044 360.497C422.622 361.663 423.553 362.615 424.688 363.212L425.571 362.306C425.679 362.194 425.84 362.157 425.98 362.207C426.43 362.359 426.915 362.442 427.413 362.442C427.634 362.442 427.814 362.627 427.814 362.854V364.291C427.814 364.518 427.634 364.703 427.413 364.703C423.645 364.703 420.591 361.568 420.591 357.7C420.591 357.473 420.772 357.288 420.992 357.288H422.397C422.618 357.288 422.798 357.473 422.798 357.7C422.798 358.215 422.878 358.709 423.027 359.17C423.071 359.315 423.039 359.475 422.927 359.591L422.044 360.497Z" fill="#C4C4C4"/>
<path d="M440.553 314.546V312.864C440.553 312.6 440.337 312.383 440.072 312.383H434.305C434.041 312.383 433.824 312.6 433.824 312.864V317.67C433.824 317.935 434.041 318.151 434.305 318.151H440.072C440.337 318.151 440.553 317.935 440.553 317.67V315.988L442.476 317.911V312.624L440.553 314.546Z" fill="#1565C0"/>
<path d="M440.553 337.41V335.728C440.553 335.464 440.337 335.248 440.072 335.248H434.305C434.041 335.248 433.824 335.464 433.824 335.728V340.535C433.824 340.799 434.041 341.015 434.305 341.015H440.072C440.337 341.015 440.553 340.799 440.553 340.535V338.852L442.476 340.775V335.488L440.553 337.41Z" fill="#C4C4C4"/>
<path d="M440.553 360.274V358.592C440.553 358.328 440.337 358.112 440.072 358.112H434.305C434.041 358.112 433.824 358.328 433.824 358.592V363.399C433.824 363.663 434.041 363.879 434.305 363.879H440.072C440.337 363.879 440.553 363.663 440.553 363.399V361.716L442.476 363.639V358.352L440.553 360.274Z" fill="#C4C4C4"/>
<path d="M383.658 331.048C380.668 331.048 378.241 333.474 378.241 336.464C378.241 339.454 380.668 341.881 383.658 341.881C386.648 341.881 389.075 339.454 389.075 336.464C389.075 333.474 386.648 331.048 383.658 331.048ZM382.575 338.36V334.568C382.575 334.346 382.829 334.216 383.008 334.352L385.537 336.248C385.684 336.356 385.684 336.573 385.537 336.681L383.008 338.577C382.829 338.712 382.575 338.582 382.575 338.36Z" fill="#C4C4C4"/>
<path d="M383.658 355.048C380.668 355.048 378.241 357.474 378.241 360.464C378.241 363.454 380.668 365.881 383.658 365.881C386.648 365.881 389.075 363.454 389.075 360.464C389.075 357.474 386.648 355.048 383.658 355.048ZM382.575 362.36V358.568C382.575 358.346 382.829 358.216 383.008 358.352L385.537 360.248C385.684 360.356 385.684 360.573 385.537 360.681L383.008 362.577C382.829 362.712 382.575 362.582 382.575 362.36Z" fill="#C4C4C4"/>
<path d="M56.4669 392.484C87.6527 392.484 112.934 384.146 112.934 373.86C112.934 363.574 87.6527 355.236 56.4669 355.236C25.2811 355.236 0 363.574 0 373.86C0 384.146 25.2811 392.484 56.4669 392.484Z" fill="#0C5399"/>
<path d="M55.7616 368.11C55.7087 369.687 55.9999 371.257 56.6149 372.71C57.3906 374.064 58.5592 375.151 59.9662 375.826C62.9806 377.397 66.4852 377.743 69.7483 376.791C70.1911 376.702 70.589 376.461 70.8736 376.111C71.0423 375.815 71.1116 375.472 71.0715 375.134C70.8239 373.334 69.9105 371.693 68.5116 370.533C67.1175 369.398 65.9258 368.035 64.9871 366.502C63.4907 363.46 64.6037 355.372 58.9027 356.707C54.1415 357.783 55.6255 364.746 55.7616 368.11Z" fill="#FBB9AD"/>
<path d="M54.9702 373.563C54.9702 373.563 54.154 375.567 55.1557 376.729C56.1574 377.892 66.4094 384.26 73.31 379.128C80.2106 373.996 63.936 373.341 63.936 373.341L54.9702 373.563Z" fill="#1976D2"/>
<path d="M55.3661 368.938C55.6782 368.781 56.0368 368.741 56.3755 368.828C56.7142 368.914 57.0102 369.12 57.2088 369.408C57.8818 370.175 58.739 370.758 59.6997 371.102C60.6603 371.446 61.6927 371.54 62.6996 371.374C64.9503 370.843 65.8407 368.246 66.9537 368.233C68.0667 368.221 74.0274 373.304 74.3737 375.48C74.72 377.657 71.6654 379.264 68.3017 379.475C64.9379 379.685 57.2953 377.347 55.8484 375.579C55.2382 374.593 54.8756 373.474 54.7916 372.318C54.7076 371.161 54.9047 370.002 55.3661 368.938Z" fill="white"/>
<path d="M36.21 371.214C36.144 372.792 36.4357 374.364 37.0633 375.814C37.8391 377.165 39.0082 378.248 40.4147 378.918C43.4245 380.489 46.9254 380.835 50.1844 379.883C50.6324 379.798 51.0358 379.557 51.3221 379.202C51.485 378.909 51.5541 378.572 51.52 378.238C51.2701 376.439 50.3571 374.798 48.9601 373.637C47.5756 372.497 46.3853 371.14 45.4356 369.618C43.9392 366.588 45.0522 358.488 39.3512 359.824C34.59 360.912 36.074 367.887 36.21 371.214Z" fill="#FBB9AD"/>
<path d="M35.4184 376.692C35.4184 376.692 34.6022 378.683 35.6039 379.846C36.6056 381.008 46.8329 387.377 53.7335 382.257C60.6341 377.137 44.3843 376.469 44.3843 376.469L35.4184 376.692Z" fill="#1976D2"/>
<path d="M35.8137 372.055C36.1277 371.901 36.4864 371.865 36.8246 371.954C37.1627 372.042 37.4579 372.249 37.6563 372.537C38.3257 373.309 39.1825 373.895 40.1442 374.239C41.1059 374.584 42.1401 374.674 43.1472 374.503C45.3855 373.959 46.2883 371.374 47.3889 371.362C48.4896 371.35 54.4627 376.42 54.8089 378.597C55.1552 380.773 52.1006 382.381 48.7369 382.591C45.3732 382.801 37.7429 380.476 36.296 378.708C35.6827 377.721 35.3184 376.6 35.2343 375.441C35.1503 374.282 35.3492 373.12 35.8137 372.055Z" fill="white"/>
<path d="M32.1163 287.046C32.1163 287.046 31.0651 345.627 35.3934 365.166L46.4121 366.527L49.4172 286.465L32.1163 287.046Z" fill="#473F47"/>
<path d="M62.5505 280.714C62.5505 280.714 71.3184 312.249 65.0238 362.99L54.0051 364.35L47.0674 283.46L62.5505 280.714Z" fill="#473F47"/>
<path d="M79.0356 255.474C78.9119 257.601 78.2317 259.431 76.3891 260.05C76.2315 260.102 76.0703 260.144 75.9068 260.173C72.5307 260.853 68.0911 258.281 65.0118 256.03C63.7209 255.102 62.4823 254.103 61.3018 253.038V230.37L77.7989 247.213C78.6542 249.882 79.0718 252.672 79.0356 255.474Z" fill="white"/>
<path d="M65.1356 255.931C65.1356 256.995 65.2717 258.058 65.2717 259.122C65.2717 264.959 63.9237 270.994 65.655 276.732C66.2246 277.951 66.3976 279.318 66.1497 280.64C65.6428 281.701 64.7621 282.538 63.6763 282.99C58.5194 285.809 52.5463 286.7 46.7587 287.491C42.3809 288.11 36.1729 289.408 32.129 287.046C30.41 286.044 29.8288 284.177 29.2723 282.31C27.7251 276.275 26.8133 270.095 26.5516 263.871C26.5516 263.055 26.4279 262.251 26.3908 261.397C26.0528 255.808 25.9374 250.21 26.0446 244.604C26.1188 240.535 26.4403 236.145 29.0991 233.078C32.6236 228.997 39.45 226.289 44.644 225.336C46.323 224.989 48.0443 224.893 49.7515 225.052C52.169 225.435 54.503 226.23 56.6521 227.401C59.2243 228.638 61.5122 229.751 62.8354 232.286C64.2244 235.228 65.1943 238.35 65.7169 241.561C66.2031 244.572 66.2697 247.635 65.9147 250.663C65.7663 252.147 65.3829 253.619 65.2345 255.09C65.1765 255.367 65.1434 255.649 65.1356 255.931Z" fill="white"/>
<path opacity="0.1" d="M41.2801 289.037C39.5858 289.532 35.678 287.973 34.3795 287.8C33.6004 287.664 32.8955 287.269 32.1164 287.095C28.2456 286.131 27.788 275.248 27.417 272.317C26.4153 264.588 24.8695 256.574 24.7582 248.821C24.5843 245.828 24.9316 242.828 25.7846 239.954C26.219 238.518 26.9637 237.196 27.966 236.08C28.9683 234.965 30.2037 234.083 31.5846 233.498C36.5313 231.717 38.0029 247.361 38.6831 250.601C39.3632 253.841 39.4498 259.58 41.5892 262.177C43.7287 264.774 48.0075 265.256 50.8024 263.945C52.3055 263.19 53.5563 262.014 54.4018 260.56C55.2473 259.107 55.651 257.438 55.5636 255.758C55.3947 254.595 55.2997 253.422 55.2792 252.246C55.2804 251.656 55.4497 251.079 55.7673 250.582C56.0849 250.084 56.5375 249.688 57.0723 249.439C57.5768 249.313 58.1064 249.329 58.6021 249.486C59.0977 249.644 59.54 249.935 59.8796 250.329C60.5385 251.14 61.0113 252.086 61.2646 253.099C61.9044 255.218 62.3189 257.399 62.5013 259.604C62.996 264.835 62.2045 270.203 63.4535 275.31C64.0124 276.898 64.2805 278.574 64.245 280.257C63.9608 281.649 63.2055 282.901 62.1064 283.802C61.0072 284.703 59.6313 285.198 58.2101 285.203C56.7845 285.149 55.3932 284.751 54.155 284.042C52.9168 283.334 51.8683 282.336 51.0992 281.135C50.8523 280.705 50.5198 280.33 50.1222 280.034C49.6786 279.811 49.1828 279.713 48.6877 279.75C46.3257 279.75 42.9372 280.294 42.1705 282.94C41.6263 284.832 42.9372 286.65 41.9108 288.604C41.7598 288.82 41.5358 288.974 41.2801 289.037Z" fill="#020202"/>
<path d="M54.6611 217.892C54.2499 218.712 53.5494 219.351 52.6948 219.685C51.6523 219.92 50.6599 220.339 49.7639 220.921C49.0374 221.709 48.5748 222.703 48.4406 223.766L47.7357 227.055L47.3647 228.712C47.3164 229.012 47.216 229.301 47.0679 229.566C46.8592 229.799 46.6009 229.982 46.3119 230.102C46.023 230.222 45.7108 230.275 45.3984 230.258C44.0951 230.312 42.8047 229.981 41.6884 229.306C41.4932 229.221 41.3321 229.073 41.2309 228.886C41.1329 228.655 41.1071 228.401 41.1567 228.156L41.5648 223.419C41.7915 222.124 41.5873 220.791 40.9835 219.623C39.6207 217.145 38.6093 214.49 37.9784 211.733C37.7578 210.967 37.706 210.163 37.8267 209.375C37.9474 208.588 38.2377 207.836 38.6775 207.171C39.1173 206.507 39.6961 205.946 40.374 205.527C41.0519 205.108 41.8126 204.842 42.6036 204.746C44.917 204.035 47.3866 204.01 49.7144 204.672C50.5801 204.968 50.8398 205.562 51.2479 206.341C51.8538 207.578 52.4845 208.814 52.9421 210.051C53.3997 211.288 54.018 212.92 54.4756 214.404C54.9495 215.508 55.0153 216.744 54.6611 217.892Z" fill="#FBB9AD"/>
<path d="M89.6706 241.747C89.819 241.5 90.1034 241.252 90.3384 241.401C90.4342 241.496 90.5026 241.616 90.5363 241.747C90.6719 241.984 90.8682 242.182 91.105 242.319C91.3418 242.455 91.6107 242.527 91.8842 242.526C92.416 242.526 92.9725 242.439 93.5166 242.439C94.2277 242.462 94.9238 242.649 95.5504 242.986C96.177 243.323 96.7169 243.8 97.1277 244.381C97.9451 245.556 98.4008 246.945 98.4386 248.375C98.5841 249.661 98.2299 250.954 97.4492 251.986C96.2126 253.433 93.9742 253.47 92.0574 253.409H90.3013C89.8864 253.463 89.4665 253.356 89.1282 253.11C88.7899 252.864 88.5591 252.497 88.4834 252.085C87.7661 250.342 86.4676 248.598 87.358 246.842C88.2484 245.086 88.6071 242.984 89.6706 241.747Z" fill="#FBB9AD"/>
<path d="M55.1552 260.173V247.065C55.1548 246.552 55.3093 246.051 55.5983 245.627C55.8874 245.203 56.2976 244.877 56.7752 244.69L89.2377 231.767C90.9196 231.099 94.3452 233.103 94.3452 234.908L92.7499 265.244C92.7507 265.75 92.6006 266.245 92.3186 266.666C92.0367 267.087 91.6357 267.414 91.1669 267.606L60.2502 281.852C58.556 282.545 55.1057 280.541 55.1057 278.723L55.1552 260.173Z" fill="#1976D2"/>
<path d="M55.1558 260.173V247.065C55.1439 246.551 55.2923 246.046 55.5804 245.621C55.8685 245.195 56.282 244.87 56.7634 244.69L89.2383 231.767C90.9202 231.099 94.3457 233.103 94.3457 234.908L92.7504 265.244C92.7496 265.75 92.5988 266.244 92.3171 266.665C92.0353 267.085 91.6353 267.412 91.1675 267.606L60.2508 281.852C58.5689 282.545 55.1187 280.541 55.1187 278.723L55.1558 260.173Z" fill="url(#paint0_linear)"/>
<path d="M56.7756 260.94V247.831C56.7745 247.317 56.9285 246.814 57.2175 246.388C57.5065 245.962 57.917 245.633 58.3957 245.445L90.8582 232.534C91.2465 232.378 91.667 232.32 92.083 232.365C92.4989 232.409 92.8976 232.555 93.2442 232.789C93.5907 233.023 93.8746 233.339 94.0709 233.709C94.2672 234.078 94.37 234.49 94.3703 234.908V266.047C94.3695 266.554 94.2187 267.048 93.937 267.468C93.6552 267.889 93.2552 268.216 92.7874 268.409L60.3249 281.889C60.0132 282.018 59.679 282.085 59.3415 282.085C59.0041 282.084 58.67 282.017 58.3586 281.887C58.0471 281.758 57.7644 281.567 57.5267 281.328C57.289 281.088 57.101 280.804 56.9735 280.492C56.8419 280.183 56.7746 279.85 56.7756 279.515V260.94Z" fill="#EF6C00"/>
<path d="M56.7756 247.831L79.0356 259.283L93.752 233.313C93.752 233.313 94.3209 232.979 94.3209 234.908V266.047L56.7756 277.722V247.831Z" fill="url(#paint1_linear)"/>
<path d="M49.0587 206.143C48.8319 206.487 48.5391 206.782 48.1973 207.011C47.8555 207.24 47.4715 207.399 47.0677 207.479C44.8664 207.949 43.5308 206.885 42.4178 209.445C42.0589 210.322 41.9476 211.28 42.0963 212.215C42.0963 212.413 42.7888 214.602 42.9619 214.491C42.3931 214.899 41.9479 213.786 41.3295 213.464C40.7112 213.143 39.7961 214.083 39.9445 214.886C40.2025 215.676 40.663 216.384 41.2801 216.939C42.2687 218.167 42.8135 219.692 42.8259 221.268C42.8259 221.626 42.6899 222.109 42.3189 222.121C41.9479 222.133 41.5398 221.614 41.2553 221.416C40.8023 221.112 40.3269 220.844 39.8332 220.612C38.3244 219.895 36.049 219.672 34.7876 218.658C34.1374 218.117 33.6994 217.364 33.5509 216.531C33.5509 216.333 33.5509 214.206 33.9219 214.318C33.5472 214.206 33.1986 214.021 32.8962 213.773C32.5938 213.526 32.3438 213.22 32.1608 212.875C31.9778 212.53 31.8653 212.151 31.8301 211.762C31.7949 211.373 31.8375 210.98 31.9556 210.608C32.1217 210.084 32.4248 209.614 32.8336 209.247C31.2878 207.095 32.0051 203.905 33.8601 202.013C35.8511 200.233 38.3707 199.156 41.0327 198.946C43.9247 198.49 46.882 198.684 49.6894 199.515C50.6634 199.784 51.5639 200.27 52.3235 200.937C52.6947 201.273 52.9796 201.693 53.1539 202.162C53.3283 202.632 53.387 203.136 53.3252 203.633C53.1618 203.699 52.9826 203.717 52.8093 203.684C52.636 203.651 52.4759 203.569 52.3482 203.447C52.5119 203.893 52.4918 204.386 52.2924 204.817C52.093 205.249 51.7305 205.583 51.2847 205.748C50.9507 205.869 50.5884 205.889 50.243 205.806C49.8976 205.722 49.5846 205.538 49.3431 205.278C49.3183 205.585 49.2208 205.881 49.0587 206.143Z" fill="#473F47"/>
<path d="M50.4685 220.377L50.0975 220.489C49.9862 220.5 49.8819 220.548 49.8007 220.625C49.7763 220.709 49.7763 220.799 49.8007 220.884C49.0742 221.672 48.6116 222.666 48.4774 223.729L47.7725 227.018C46.5822 224.915 45.6836 222.66 45.1013 220.315C46.8834 220.521 48.6821 220.542 50.4685 220.377Z" fill="#DC9F95"/>
<path d="M52.3484 260.297C52.5565 260.041 52.8246 259.841 53.1288 259.714C53.4329 259.586 53.7638 259.536 54.0921 259.567C54.4648 259.755 54.8207 259.974 55.1556 260.223C55.4712 260.363 55.8118 260.439 56.1573 260.445C57.5557 260.546 58.9594 260.347 60.2754 259.864C60.9395 259.54 61.6641 259.359 62.4025 259.332C62.8438 259.418 63.2614 259.599 63.6264 259.861C63.9914 260.124 64.2953 260.462 64.5172 260.853C65.1753 261.797 65.5455 262.912 65.5828 264.062C65.6201 265.213 65.323 266.349 64.7274 267.334C64.1749 268.134 63.4475 268.798 62.6003 269.275C60.7225 270.259 58.6357 270.776 56.5159 270.784C54.4136 270.883 52.2742 270.784 50.1842 270.883C49.6891 270.973 49.1781 270.904 48.7249 270.685C48.4745 270.452 48.2807 270.165 48.1585 269.845C48.0363 269.526 47.989 269.183 48.02 268.842C47.9458 267.247 47.6738 265.899 48.6013 264.551C49.767 263.062 51.0181 261.641 52.3484 260.297Z" fill="#FBB9AD"/>
<path d="M29.1238 233.09C29.1238 233.09 5.88682 263.475 13.2326 274.209C20.5784 284.944 51.5693 272.441 51.5693 272.441L48.5518 263.549C48.5518 263.549 26.7865 266.307 26.6257 263.871C26.465 261.435 40.4269 247.485 40.4269 247.485C40.4269 247.485 42.925 227.068 29.1238 233.09Z" fill="white"/>
<circle cx="419" cy="108" r="18" fill="white"/>
<path d="M413.86 95.8063C415.819 95.2211 417.89 95.1153 419.899 95.498C421.043 95.592 422.156 95.9138 423.174 96.4442C426.427 98.3686 425.662 101.122 425.959 104.131C425.984 104.626 426.137 105.106 426.403 105.524C426.67 105.941 427.041 106.282 427.48 106.513C428.096 106.779 428.841 106.747 429.362 107.172C429.629 107.448 429.817 107.792 429.905 108.166C429.993 108.541 429.978 108.932 429.861 109.298C429.68 110.032 429.319 110.712 429.17 111.425C429.089 111.713 429.124 112.022 429.266 112.286C429.489 112.615 429.946 112.669 430.329 112.818C430.762 113.047 431.129 113.383 431.395 113.795C431.661 114.206 431.818 114.678 431.849 115.167C431.977 116.135 431.849 117.113 431.924 118.091C432.03 118.698 432.084 119.314 432.083 119.93C431.956 121.812 430.074 123.194 428.192 123.439C426.295 123.522 424.404 123.184 422.653 122.45C420.9 121.716 418.997 121.41 417.103 121.557C415.083 121.887 412.946 123.205 411.16 122.216C410.657 121.888 410.246 121.438 409.965 120.908C409.685 120.378 409.543 119.786 409.554 119.186C409.594 117.99 409.842 116.81 410.288 115.699C410.456 115.351 410.491 114.954 410.383 114.582C410.206 114.311 409.969 114.082 409.692 113.913C407.077 111.882 408.034 104.163 409.139 101.537C410.107 99.2085 411.287 96.7419 413.86 95.8063Z" fill="#473F47"/>
<path d="M424.896 116.315C426.619 116.656 428.554 116.496 429.957 117.506C430.798 118.165 431.372 119.105 431.573 120.154C431.747 121.208 431.786 122.279 431.69 123.343L431.573 126.427C431.583 126.536 431.553 126.646 431.488 126.735C431.385 126.813 431.255 126.848 431.127 126.831L404.547 126.926C404.313 126.087 404.254 125.209 404.373 124.346C404.491 123.482 404.786 122.653 405.238 121.908C405.904 120.594 406.813 119.418 407.917 118.442C409.533 117.219 413.297 117.113 415.072 116.103C415.54 115.848 415.072 115.476 415.636 115.337C416.199 115.199 415.933 114.593 416.444 114.582C418.002 114.458 419.57 114.526 421.111 114.784C422.451 115.103 423.482 116.028 424.896 116.315Z" fill="#1976D2"/>
<path d="M414.509 117.209C414.371 117.632 414.285 118.072 414.254 118.516C414.248 119.021 414.375 119.518 414.621 119.958C414.868 120.398 415.225 120.766 415.657 121.025C416.094 121.278 416.586 121.424 417.09 121.45C417.595 121.476 418.099 121.381 418.56 121.174C419.557 120.664 420.319 119.788 420.686 118.729C421.057 117.674 421.241 116.562 421.228 115.444C421.262 113.957 421.173 112.471 420.962 111C420.985 110.881 420.984 110.758 420.959 110.64C420.934 110.522 420.885 110.41 420.815 110.31C420.746 110.211 420.657 110.127 420.555 110.063C420.452 109.998 420.338 109.955 420.218 109.936H419.995C419.12 109.81 418.228 109.978 417.459 110.413C416.689 110.847 416.086 111.525 415.742 112.339C415.564 112.881 415.443 113.441 415.381 114.008C415.145 115.089 414.854 116.158 414.509 117.209Z" fill="#D9876D"/>
<path d="M415.168 114.955C415.168 114.955 415.008 116.315 415.625 116.826C416.242 117.336 418.677 118.516 419.878 116.826C420.613 115.739 421.089 114.499 421.271 113.2L415.168 114.955Z" fill="url(#paint2_linear)"/>
<path d="M411.798 110.468C412.106 111.467 413.988 114.986 416.571 115.624C422.153 117.007 423.844 107.193 423.567 105.131C423.197 103.409 422.302 101.845 421.005 100.654C420.294 100.102 419.445 99.7547 418.551 99.6515C417.657 99.5484 416.751 99.6931 415.933 100.07C411.553 101.941 410.426 106.204 411.798 110.468Z" fill="#FBB9AD"/>
<path d="M415.657 103.706C416.822 104.048 418.013 104.297 419.219 104.45C419.293 105.152 419.389 105.854 419.516 106.577C419.551 106.867 419.641 107.149 419.782 107.406C419.904 107.585 420.061 107.738 420.244 107.855C420.427 107.972 420.631 108.051 420.845 108.086C421.29 108.15 421.741 108.15 422.185 108.086C422.381 108.042 422.587 108.077 422.759 108.182C422.844 108.266 422.91 108.367 422.95 108.48L423.737 110.33C423.76 110.342 423.785 110.349 423.811 110.349C423.836 110.349 423.862 110.344 423.885 110.332C423.908 110.321 423.927 110.304 423.942 110.283C423.958 110.262 423.967 110.238 423.971 110.213C423.992 110.115 423.992 110.013 423.971 109.915C423.843 109.181 424.343 108.512 424.641 107.789C425.396 106.056 424.896 104.046 424.248 102.26C423.98 101.433 423.59 100.652 423.089 99.9422C422.447 99.2277 421.671 98.6475 420.804 98.2351C419.937 97.8226 418.997 97.5861 418.038 97.5393C417.09 97.3908 416.119 97.4747 415.21 97.7839C414.563 98.0649 414.005 98.5176 413.597 99.0929C413.188 99.6682 412.945 100.344 412.893 101.048C412.871 102.526 414.487 103.355 415.657 103.706Z" fill="#473F47"/>
<defs>
<linearGradient id="paint0_linear" x1="48.4777" y1="227.513" x2="134.426" y2="323.466" gradientUnits="userSpaceOnUse">
<stop offset="0.01"/>
<stop offset="0.13" stop-opacity="0.69"/>
<stop offset="0.25" stop-opacity="0.32"/>
<stop offset="1" stop-opacity="0"/>
</linearGradient>
<linearGradient id="paint1_linear" x1="4712.38" y1="8635.6" x2="5267.4" y2="5527.83" gradientUnits="userSpaceOnUse">
<stop offset="0.01"/>
<stop offset="0.13" stop-opacity="0.69"/>
<stop offset="0.25" stop-opacity="0.32"/>
<stop offset="1" stop-opacity="0"/>
</linearGradient>
<linearGradient id="paint2_linear" x1="670.286" y1="-1005.99" x2="709.033" y2="-1078.45" gradientUnits="userSpaceOnUse">
<stop stop-color="#010101" stop-opacity="0"/>
<stop offset="0.95" stop-color="#010101"/>
</linearGradient>
<clipPath id="clip0">
<rect width="9.88737" height="9.88737" fill="white" transform="translate(279.796 87.2459)"/>
</clipPath>
<clipPath id="clip1">
<rect width="13" height="13" fill="white" transform="translate(316.133 113.387)"/>
</clipPath>
<clipPath id="clip2">
<rect width="13" height="13" fill="white" transform="translate(229.262 331.464)"/>
</clipPath>
</defs>
</svg>
