<svg width="492" height="478" viewBox="0 0 492 478" fill="none" xmlns="http://www.w3.org/2000/svg">
<path fill-rule="evenodd" clip-rule="evenodd" d="M261.91 1.77315C192.489 6.86244 131.989 41.0273 85.6788 92.8714C35.201 149.381 -11.5486 217.758 2.54556 292.133C17.1064 368.97 82.5178 424.613 154.438 455.711C222.657 485.208 302.651 487.689 366.355 449.44C424.551 414.497 434.595 341.822 452.83 276.548C472.948 204.531 516.609 125.853 473.917 64.4095C429.742 0.832482 339.244 -3.89623 261.91 1.77315Z" fill="#0F6BC7"/>
<path d="M393.106 49H66.5637C47.2923 49 31.6697 64.4849 31.6697 83.5866V264.597C31.6697 283.699 47.2923 299.183 66.5637 299.183H393.106C412.377 299.183 428 283.699 428 264.597V83.5866C428 64.4849 412.377 49 393.106 49Z" fill="white"/>
<path d="M384.436 49H57.8941C38.6226 49 23 64.4849 23 83.5866V264.597C23 283.699 38.6226 299.183 57.8941 299.183H384.436C403.708 299.183 419.33 283.699 419.33 264.597V83.5866C419.33 64.4849 403.708 49 384.436 49Z" fill="#B4B7CC"/>
<rect x="30.2668" y="80.8401" width="68.3725" height="171.952" rx="5" fill="#1565C0"/>
<rect x="103.742" y="80.8401" width="109.78" height="171.952" rx="5" fill="white"/>
<rect x="221.165" y="80.8401" width="180.991" height="171.952" rx="5" fill="white"/>
<rect x="38.9407" y="88.4335" width="51.0243" height="58.1677" rx="5" fill="white"/>
<path d="M322.389 94.8716C322.389 92.1101 324.627 89.8716 327.389 89.8716H386.349C389.111 89.8716 391.349 92.1101 391.349 94.8716V167.81C391.349 170.571 389.111 172.81 386.349 172.81H327.389C324.627 172.81 322.389 170.571 322.389 167.81V94.8716Z" fill="#C4C4C4"/>
<rect x="38.9407" y="154.255" width="51.0243" height="11.7356" rx="5" fill="#1976D2"/>
<rect x="38.9407" y="170.072" width="51.0243" height="11.7356" rx="5" fill="#1976D2"/>
<rect x="38.9407" y="185.89" width="51.0243" height="11.7356" rx="5" fill="#1976D2"/>
<circle cx="122.621" cy="120.639" r="11.2253" fill="#1565C0"/>
<circle cx="122.621" cy="153.295" r="11.2253" fill="#1565C0"/>
<circle cx="122.621" cy="185.95" r="11.2253" fill="#1565C0"/>
<circle cx="122.621" cy="218.606" r="11.2253" fill="#1565C0"/>
<rect x="138.948" y="114.006" width="25.4498" height="5.10243" fill="#C4C4C4"/>
<rect x="251.975" y="96.3023" width="57.6574" height="5.10243" fill="#C4C4C4"/>
<rect x="251.975" y="124.243" width="57.6574" height="5.10243" fill="#C4C4C4"/>
<rect x="251.975" y="152.184" width="57.6574" height="5.10243" fill="#C4C4C4"/>
<rect x="138.948" y="146.661" width="57.6574" height="5.10243" fill="#C4C4C4"/>
<rect x="138.948" y="179.317" width="57.6574" height="5.10243" fill="#C4C4C4"/>
<rect x="138.948" y="211.972" width="57.6574" height="5.10243" fill="#C4C4C4"/>
<rect x="138.948" y="122.68" width="25.4498" height="5.10243" fill="#C4C4C4"/>
<rect x="251.975" y="104.977" width="57.6574" height="5.10243" fill="#C4C4C4"/>
<rect x="251.975" y="132.917" width="57.6574" height="5.10243" fill="#C4C4C4"/>
<rect x="251.975" y="160.858" width="57.6574" height="5.10243" fill="#C4C4C4"/>
<rect x="138.948" y="155.336" width="57.6574" height="5.10243" fill="#C4C4C4"/>
<rect x="138.948" y="187.991" width="57.6574" height="5.10243" fill="#C4C4C4"/>
<rect x="138.948" y="220.647" width="57.6574" height="5.10243" fill="#C4C4C4"/>
<rect x="178.237" y="85.4323" width="23.4712" height="23.4712" rx="11.7356" fill="#EF6C00"/>
<g clip-path="url(#clip0)">
<path d="M189.973 101.25C189.412 101.25 188.953 101.709 188.953 102.27C188.953 102.832 189.412 103.291 189.973 103.291C190.534 103.291 190.994 102.832 190.994 102.27C190.994 101.709 190.534 101.25 189.973 101.25ZM186.912 92.0654C186.35 92.0654 185.891 92.5246 185.891 93.0859C185.891 93.6472 186.35 94.1064 186.912 94.1064C187.473 94.1064 187.932 93.6472 187.932 93.0859C187.932 92.5246 187.473 92.0654 186.912 92.0654ZM186.912 95.1269C186.35 95.1269 185.891 95.5861 185.891 96.1474C185.891 96.7086 186.35 97.1678 186.912 97.1678C187.473 97.1678 187.932 96.7086 187.932 96.1474C187.932 95.5861 187.473 95.1269 186.912 95.1269ZM186.912 98.1883C186.35 98.1883 185.891 98.6475 185.891 99.2088C185.891 99.7701 186.35 100.229 186.912 100.229C187.473 100.229 187.932 99.7701 187.932 99.2088C187.932 98.6475 187.473 98.1883 186.912 98.1883ZM193.035 94.1064C193.596 94.1064 194.055 93.6472 194.055 93.0859C194.055 92.5246 193.596 92.0654 193.035 92.0654C192.473 92.0654 192.014 92.5246 192.014 93.0859C192.014 93.6472 192.473 94.1064 193.035 94.1064ZM189.973 98.1883C189.412 98.1883 188.953 98.6475 188.953 99.2088C188.953 99.7701 189.412 100.229 189.973 100.229C190.534 100.229 190.994 99.7701 190.994 99.2088C190.994 98.6475 190.534 98.1883 189.973 98.1883ZM193.035 98.1883C192.473 98.1883 192.014 98.6475 192.014 99.2088C192.014 99.7701 192.473 100.229 193.035 100.229C193.596 100.229 194.055 99.7701 194.055 99.2088C194.055 98.6475 193.596 98.1883 193.035 98.1883ZM193.035 95.1269C192.473 95.1269 192.014 95.5861 192.014 96.1474C192.014 96.7086 192.473 97.1678 193.035 97.1678C193.596 97.1678 194.055 96.7086 194.055 96.1474C194.055 95.5861 193.596 95.1269 193.035 95.1269ZM189.973 95.1269C189.412 95.1269 188.953 95.5861 188.953 96.1474C188.953 96.7086 189.412 97.1678 189.973 97.1678C190.534 97.1678 190.994 96.7086 190.994 96.1474C190.994 95.5861 190.534 95.1269 189.973 95.1269ZM189.973 92.0654C189.412 92.0654 188.953 92.5246 188.953 93.0859C188.953 93.6472 189.412 94.1064 189.973 94.1064C190.534 94.1064 190.994 93.6472 190.994 93.0859C190.994 92.5246 190.534 92.0654 189.973 92.0654Z" fill="white"/>
</g>
<path d="M171.3 120.532C172.016 121.976 173.169 123.155 174.575 123.894L175.669 122.772C175.803 122.634 176.002 122.588 176.176 122.649C176.732 122.838 177.334 122.94 177.95 122.94C178.223 122.94 178.447 123.17 178.447 123.451V125.231C178.447 125.512 178.223 125.742 177.95 125.742C173.283 125.742 169.501 121.859 169.501 117.067C169.501 116.787 169.725 116.557 169.998 116.557H171.737C172.011 116.557 172.234 116.787 172.234 117.067C172.234 117.705 172.334 118.317 172.518 118.889C172.572 119.068 172.533 119.267 172.394 119.409L171.3 120.532Z" fill="#1565C0"/>
<path d="M194.225 120.256V118.173C194.225 117.845 193.957 117.578 193.629 117.578H186.486C186.159 117.578 185.891 117.845 185.891 118.173V124.126C185.891 124.453 186.159 124.721 186.486 124.721H193.629C193.957 124.721 194.225 124.453 194.225 124.126V122.042L196.606 124.423V117.875L194.225 120.256Z" fill="#1565C0"/>
<path d="M366.026 155.497V153.414C366.026 153.086 365.758 152.819 365.431 152.819H358.288C357.96 152.819 357.692 153.086 357.692 153.414V159.367C357.692 159.694 357.96 159.962 358.288 159.962H365.431C365.758 159.962 366.026 159.694 366.026 159.367V157.283L368.407 159.664V153.116L366.026 155.497Z" fill="#1565C0"/>
<path d="M241.756 162.655L240.052 162.46C239.643 162.413 239.24 162.554 238.952 162.843L237.717 164.077C235.819 163.111 234.262 161.561 233.296 159.656L234.537 158.415C234.826 158.127 234.967 157.724 234.92 157.315L234.725 155.624C234.645 154.947 234.074 154.437 233.39 154.437H232.229C231.471 154.437 230.841 155.067 230.888 155.825C231.243 161.555 235.825 166.13 241.548 166.486C242.306 166.533 242.937 165.902 242.937 165.144V163.983C242.943 163.306 242.433 162.735 241.756 162.655ZM237.576 159.797H240.26C240.629 159.797 240.931 159.495 240.931 159.126C240.931 158.757 240.629 158.455 240.26 158.455H239.193L242.085 155.564C242.346 155.302 242.346 154.88 242.085 154.618C241.823 154.356 241.4 154.356 241.139 154.618L238.247 157.509V156.443C238.247 156.074 237.945 155.772 237.576 155.772C237.207 155.772 236.905 156.074 236.905 156.443V159.126C236.905 159.495 237.207 159.797 237.576 159.797Z" fill="#1976D2"/>
<rect x="112.174" y="89.8716" width="59.7563" height="11.1468" rx="5" fill="#C4C4C4"/>
<g clip-path="url(#clip1)">
<path d="M244.059 99.2354L241.517 96.6928C241.302 96.4781 240.94 96.6257 240.94 96.9276V98.1285H238.592C238.404 98.1285 238.256 98.276 238.256 98.4639V100.477C238.256 100.664 238.404 100.812 238.592 100.812H240.94V102.013C240.94 102.315 241.302 102.462 241.51 102.248L244.053 99.705C244.187 99.5775 244.187 99.3629 244.059 99.2354ZM241.765 105.682L240.061 105.488C239.652 105.441 239.249 105.582 238.961 105.87L237.726 107.105C235.828 106.139 234.271 104.589 233.305 102.684L234.547 101.443C234.835 101.154 234.976 100.752 234.929 100.342L234.734 98.6517C234.654 97.9742 234.084 97.4643 233.399 97.4643H232.239C231.481 97.4643 230.85 98.0949 230.897 98.853C231.253 104.582 235.835 109.158 241.557 109.513C242.315 109.56 242.946 108.929 242.946 108.171V107.011C242.953 106.333 242.443 105.763 241.765 105.682Z" fill="#43A047"/>
</g>
<g clip-path="url(#clip2)">
<path d="M244.54 134.89C240.375 131.102 234.104 131.102 229.945 134.89C229.392 135.392 229.392 136.28 229.912 136.815L230.701 137.629C231.169 138.11 231.912 138.15 232.426 137.73L233.722 136.666C234.031 136.415 234.215 136.029 234.215 135.616V133.874C236.176 133.216 238.302 133.21 240.27 133.874V135.622C240.27 136.029 240.454 136.415 240.763 136.673L242.053 137.73C242.573 138.15 243.31 138.11 243.777 137.629L244.567 136.815C245.093 136.28 245.087 135.392 244.54 134.89ZM233.294 130.01C233.656 130.01 233.952 129.705 233.952 129.333V128.269L236.742 131.142C236.999 131.407 237.414 131.407 237.67 131.142L241.395 127.306C241.652 127.042 241.652 126.615 241.395 126.351C241.138 126.086 240.724 126.086 240.467 126.351L237.21 129.705L234.874 127.299H235.926C236.288 127.299 236.584 126.994 236.584 126.622C236.584 126.249 236.288 125.944 235.926 125.944H233.294C232.932 125.944 232.636 126.249 232.636 126.622V129.333C232.636 129.705 232.932 130.01 233.294 130.01Z" fill="#E53935"/>
</g>
<circle cx="46.532" cy="63.8624" r="3.7156" fill="#064B99"/>
<circle cx="57.679" cy="63.8624" r="3.7156" fill="white"/>
<circle cx="68.8257" cy="63.8624" r="3.7156" fill="#EF6C00"/>
<rect x="225.627" y="119.688" width="89.0599" height="23.5428" rx="5.5" stroke="#1976D2"/>
<ellipse cx="356" cy="116.683" rx="22" ry="22.5" fill="white"/>
<path d="M349.527 101.846C352.051 101.119 354.719 100.988 357.306 101.463C358.779 101.58 360.213 101.98 361.524 102.639C365.714 105.029 364.728 108.449 365.112 112.186C365.143 112.801 365.341 113.397 365.684 113.916C366.027 114.435 366.505 114.858 367.07 115.145C367.864 115.475 368.823 115.435 369.494 115.963C369.839 116.306 370.081 116.733 370.195 117.198C370.308 117.663 370.288 118.149 370.138 118.604C369.905 119.516 369.439 120.361 369.248 121.246C369.144 121.604 369.188 121.988 369.371 122.315C369.658 122.725 370.247 122.791 370.74 122.976C371.298 123.26 371.771 123.678 372.113 124.189C372.456 124.7 372.658 125.287 372.699 125.894C372.863 127.096 372.699 128.311 372.795 129.526C372.932 130.28 373 131.044 373 131.81C372.836 134.148 370.412 135.864 367.988 136.168C365.545 136.271 363.108 135.852 360.853 134.94C358.595 134.028 356.144 133.648 353.704 133.831C351.102 134.24 348.349 135.878 346.049 134.649C345.402 134.242 344.872 133.683 344.511 133.025C344.149 132.367 343.967 131.631 343.981 130.886C344.032 129.4 344.352 127.934 344.926 126.554C345.143 126.123 345.187 125.629 345.049 125.168C344.82 124.83 344.516 124.546 344.159 124.336C340.79 121.813 342.022 112.226 343.447 108.964C344.693 106.072 346.213 103.008 349.527 101.846Z" fill="#473F47"/>
<path d="M363.515 127.352C365.65 127.764 368.049 127.571 369.788 128.792C370.83 129.588 371.542 130.726 371.792 131.994C372.007 133.268 372.056 134.564 371.937 135.851L371.792 139.579C371.804 139.712 371.766 139.844 371.686 139.952C371.559 140.047 371.397 140.089 371.238 140.068L338.29 140.183C338 139.168 337.927 138.106 338.074 137.063C338.221 136.019 338.586 135.016 339.146 134.115C339.973 132.526 341.1 131.104 342.467 129.924C344.471 128.445 349.136 128.317 351.337 127.095C351.917 126.787 351.337 126.337 352.036 126.169C352.734 126.002 352.405 125.269 353.037 125.257C354.969 125.106 356.912 125.188 358.823 125.501C360.484 125.887 361.762 127.005 363.515 127.352Z" fill="#1976D2"/>
<path d="M351.293 128.674C351.134 129.224 351.036 129.794 351 130.371C350.994 131.026 351.14 131.67 351.422 132.242C351.704 132.813 352.113 133.291 352.608 133.627C353.109 133.956 353.672 134.144 354.251 134.178C354.829 134.212 355.406 134.089 355.934 133.821C357.077 133.158 357.95 132.021 358.371 130.647C358.796 129.278 359.006 127.835 358.992 126.384C359.031 124.455 358.929 122.526 358.687 120.616C358.714 120.462 358.712 120.303 358.683 120.15C358.654 119.996 358.598 119.851 358.519 119.722C358.439 119.593 358.338 119.484 358.22 119.4C358.103 119.317 357.972 119.261 357.835 119.236H357.579C356.576 119.073 355.554 119.29 354.673 119.855C353.791 120.419 353.099 121.298 352.706 122.355C352.502 123.059 352.363 123.785 352.292 124.521C352.022 125.924 351.688 127.31 351.293 128.674Z" fill="#D9876D"/>
<path d="M352.024 126.131C352.024 126.131 351.816 127.642 352.622 128.209C353.428 128.775 356.61 130.085 358.18 128.209C359.14 127.002 359.762 125.626 360 124.183L352.024 126.131Z" fill="url(#paint0_linear)"/>
<path d="M347.668 120.301C348.043 121.601 350.329 126.181 353.467 127.011C360.248 128.809 362.301 116.039 361.965 113.355C361.516 111.115 360.428 109.08 358.853 107.531C357.99 106.811 356.958 106.36 355.872 106.226C354.786 106.091 353.685 106.28 352.692 106.77C347.371 109.205 346.002 114.753 347.668 120.301Z" fill="#FBB9AD"/>
<path d="M352.419 112.416C353.861 112.868 355.334 113.197 356.825 113.398C356.917 114.324 357.035 115.251 357.193 116.205C357.236 116.589 357.348 116.96 357.522 117.299C357.672 117.536 357.867 117.738 358.093 117.892C358.319 118.046 358.572 118.15 358.837 118.197C359.386 118.281 359.944 118.281 360.493 118.197C360.737 118.139 360.991 118.185 361.204 118.324C361.309 118.434 361.39 118.568 361.44 118.716L362.413 121.158C362.441 121.174 362.472 121.183 362.504 121.183C362.536 121.184 362.567 121.176 362.596 121.161C362.624 121.146 362.649 121.124 362.667 121.096C362.686 121.069 362.698 121.037 362.703 121.004C362.729 120.874 362.729 120.74 362.703 120.611C362.545 119.643 363.163 118.759 363.531 117.804C364.465 115.517 363.847 112.865 363.045 110.508C362.714 109.417 362.231 108.386 361.611 107.449C360.818 106.506 359.858 105.74 358.786 105.196C357.713 104.652 356.551 104.34 355.365 104.278C354.192 104.082 352.991 104.192 351.867 104.6C351.067 104.971 350.376 105.569 349.871 106.328C349.366 107.087 349.065 107.98 349 108.908C348.974 110.859 350.973 111.953 352.419 112.416Z" fill="#473F47"/>
<path d="M278 346.183H206.079L193 299.183H264.921L278 346.183Z" fill="white"/>
<path d="M276 346.183H183L194.22 299.183H263.032L276 346.183Z" fill="#473F47"/>
<rect x="142" y="346.183" width="174" height="11" rx="5.5" fill="#44475F"/>
<path d="M419 262.183V273.391C419 280.232 416.038 290.663 409.5 295.5C402.962 300.337 393.382 299.183 384.135 299.183H57.865C48.6182 299.183 39.7502 296.466 33.2117 291.629C26.6733 286.792 23 280.232 23 273.391V262.183H419Z" fill="#44475F"/>
<path d="M414.467 357.248C445.653 357.248 470.934 348.91 470.934 338.624C470.934 328.338 445.653 320 414.467 320C383.281 320 358 328.338 358 338.624C358 348.91 383.281 357.248 414.467 357.248Z" fill="#0C5399"/>
<path d="M449.848 320.837L451.403 331.1L447.099 331.591L442.401 320.739L449.848 320.837Z" fill="#FCBDBA"/>
<path d="M445.806 330.085C446.015 329.918 446.197 329.719 446.346 329.496C446.566 329.634 446.813 329.721 447.071 329.752C447.328 329.783 447.589 329.757 447.835 329.676L449.996 329.316C450.376 329.271 450.746 329.166 451.093 329.005H451.24L451.698 329.889C452.482 331.468 452.944 333.187 453.057 334.947C448.968 335.916 444.766 336.318 440.568 336.142C440.232 336.188 439.89 336.144 439.576 336.015C439.263 335.885 438.989 335.675 438.784 335.405C438.703 335.222 438.661 335.024 438.661 334.824C438.661 334.624 438.703 334.426 438.784 334.243C438.982 333.828 439.261 333.457 439.603 333.15C439.946 332.844 440.346 332.609 440.781 332.459C441.894 332 443.023 331.608 444.054 331.084C444.681 330.832 445.27 330.496 445.806 330.085Z" fill="#EF6C00"/>
<path d="M420.975 323.964L422.318 334.259L417.996 334.652L413.528 323.718L420.975 323.964Z" fill="#FCBDBA"/>
<path d="M360.746 151.264H398.011C406.707 151.264 413.757 158.314 413.757 167.01V198.781C413.757 207.477 406.707 214.527 398.011 214.527H360.746C352.05 214.527 345 207.477 345 198.781V167.01C345 158.314 352.05 151.264 360.746 151.264Z" fill="#EEEEEE"/>
<path opacity="0.1" d="M395.457 206.686C395.986 206.733 396.519 206.655 397.012 206.457C397.81 205.902 398.356 205.055 398.535 204.1C401.104 196.162 406.424 188.436 414.412 186.095C416.49 194.558 416.343 203.396 416.179 212.121C416.179 214.445 415.917 217.113 414.051 218.488C412.835 219.238 404.428 232.568 403 232.5C393.942 232.844 389.151 223.543 381.021 219.535C378.582 218.324 376.339 208.012 381.021 206.474C382.428 205.999 385.538 206.719 387.044 206.719L395.457 206.686Z" fill="#020202"/>
<path d="M450.225 249.407L443.809 285.073L450.225 323.44L439.831 324.242L424.691 281.03L429.814 246.788L450.225 249.407Z" fill="#473F47"/>
<path d="M414.346 246.788L402.807 294.272L412.137 326.959L421.385 326.484L420.091 298.593L436.378 253.499L414.346 246.788Z" fill="#473F47"/>
<path d="M418.242 163.589C417.163 165.755 416.47 168.092 416.196 170.496C416.069 171.697 416.258 172.909 416.743 174.014C417.228 175.119 417.993 176.079 418.962 176.798C419.553 177.071 420.103 177.424 420.599 177.846C422.334 179.63 420.353 182.854 421.352 185.162C421.737 185.922 422.391 186.511 423.187 186.814C423.983 187.116 424.864 187.111 425.656 186.799C426.449 186.452 427.154 185.933 427.721 185.279C428.287 184.625 428.7 183.852 428.93 183.018C429.372 181.342 429.57 179.611 429.519 177.878L429.699 167.567C429.929 165.271 429.568 162.956 428.652 160.839C428.028 159.761 427.118 158.876 426.024 158.282C424.929 157.687 423.692 157.405 422.448 157.467C419.846 157.795 419.109 161.559 418.242 163.589Z" fill="#FCBDBA"/>
<path d="M382.265 215.083C382.265 215.083 402.037 232.744 403.461 232.744C404.885 232.744 413.675 221.647 413.675 221.647L414.346 246.854C416.787 248.294 419.331 249.552 421.957 250.618C426.478 252.682 431.41 253.69 436.378 253.564C445.986 252.697 450.225 249.472 450.225 249.472L444.3 190.269C444.3 190.269 433.104 182.216 429.274 183.444C426.535 183.935 423.731 183.935 420.992 183.444C415.459 182.707 409.812 190.269 409.812 190.269L402.463 214.412L385.227 208.29C384.105 208.991 383.221 210.015 382.693 211.227C382.164 212.44 382.015 213.784 382.265 215.083Z" fill="white"/>
<path d="M416.065 152.475C415.938 151.175 416.243 149.869 416.933 148.76C418.258 146.91 420.976 146.746 423.202 147.237C424.732 147.657 426.214 148.239 427.621 148.972C428.656 149.399 429.785 149.546 430.895 149.398C433.833 149.346 436.682 150.41 438.866 152.377C441.878 155.225 442.581 159.432 442.892 163.376C443.22 167.845 441.256 171.56 438.293 174.965C435.789 177.928 431.222 180.841 427.965 177.093C426.512 175.187 425.85 172.796 426.115 170.415C426.895 170.335 427.631 170.012 428.218 169.493C428.805 168.973 429.215 168.282 429.389 167.517C429.501 167.037 429.478 166.535 429.322 166.067C429.166 165.598 428.883 165.183 428.505 164.866C428.273 164.726 428.015 164.633 427.747 164.593C427.479 164.553 427.206 164.566 426.943 164.631C426.68 164.696 426.433 164.813 426.215 164.974C425.997 165.135 425.813 165.337 425.673 165.57C425.579 165.716 425.508 165.876 425.46 166.044C424.988 165.095 424.642 164.088 424.429 163.049C424.053 162.05 422.792 161.183 421.974 161.854C421.499 162.231 421.221 163.065 420.615 162.934C420.414 162.859 420.239 162.728 420.108 162.558C418.916 161.412 417.911 160.086 417.129 158.63C416.396 156.911 416.013 155.064 416 153.195C416.062 152.961 416.084 152.717 416.065 152.475Z" fill="#EF6C00"/>
<path d="M454.923 150.282C457.004 150.035 459.112 150.429 460.963 151.412C462.815 152.395 464.322 153.919 465.284 155.782C467.559 160.446 465.922 165.962 465.546 171.151C465.204 172.952 465.484 174.816 466.341 176.437C467.197 178.058 468.579 179.339 470.26 180.072C473.926 182.281 478.149 183.771 481.079 186.897C483.386 189.467 484.748 192.746 484.942 196.194C485.125 197.632 484.874 199.091 484.222 200.385C483.582 201.341 482.744 202.151 481.766 202.758C479.054 204.719 475.977 206.118 472.717 206.874C469.457 207.63 466.078 207.728 462.779 207.161C459.49 206.537 456.445 204.99 454.002 202.7C451.558 200.41 449.817 197.473 448.981 194.23C447.541 187.323 451.043 180.465 452.369 173.525C452.612 172.711 452.689 171.858 452.596 171.015C452.503 170.171 452.243 169.355 451.829 168.614C450.732 167.141 448.703 166.797 447.115 165.864C438.522 160.807 448.621 151.133 454.923 150.282Z" fill="#EF6C00"/>
<path d="M442.679 156.96H442.826C444.625 156.96 446.084 158.418 446.084 160.217V160.365C446.084 162.164 444.625 163.622 442.826 163.622H442.679C440.88 163.622 439.422 162.164 439.422 160.365V160.217C439.422 158.418 440.88 156.96 442.679 156.96Z" fill="#1976D2"/>
<path d="M416.752 333.13C416.957 332.958 417.139 332.76 417.292 332.541C417.509 332.685 417.754 332.781 418.012 332.82C418.269 332.86 418.532 332.843 418.782 332.77L420.942 332.442C421.326 332.4 421.701 332.301 422.055 332.148H422.203L422.645 333.048C423.383 334.649 423.806 336.377 423.889 338.139C419.781 339.01 415.576 339.329 411.383 339.088C411.045 339.129 410.702 339.078 410.391 338.939C410.08 338.801 409.812 338.581 409.616 338.302C409.535 338.119 409.493 337.921 409.493 337.721C409.493 337.521 409.535 337.323 409.616 337.14C409.819 336.728 410.103 336.362 410.452 336.064C410.801 335.766 411.207 335.542 411.645 335.405C412.775 334.963 413.921 334.603 415.017 334.079C415.637 333.844 416.22 333.525 416.752 333.13Z" fill="#EF6C00"/>
<path d="M382.576 207.407C381.188 206.596 379.703 205.963 378.156 205.524C377.914 205.416 377.648 205.368 377.383 205.385C377.118 205.402 376.861 205.484 376.634 205.622C376.394 205.847 376.238 206.148 376.192 206.474C375.952 207.522 376.038 208.618 376.438 209.616C374.694 210.582 372.864 211.382 370.971 212.006C370.576 212.073 370.199 212.222 369.864 212.441C369.529 212.661 369.242 212.947 369.023 213.283C368.906 213.633 368.896 214.01 368.995 214.366C369.094 214.722 369.298 215.04 369.579 215.28C370.152 215.754 370.842 216.065 371.576 216.18C376.323 217.293 384.049 216.18 385.178 210.5C385.424 209.256 384.965 209.043 383.983 208.34C383.46 207.996 382.985 207.701 382.576 207.407Z" fill="#FCBDBA"/>
<g clip-path="url(#clip3)">
<path d="M397.968 190.226C387.619 180.814 372.039 180.814 361.707 190.226C360.334 191.472 360.334 193.678 361.625 195.008L363.587 197.029C364.748 198.224 366.595 198.325 367.87 197.281L371.091 194.638C371.859 194.015 372.317 193.055 372.317 192.028V187.7C377.189 186.067 382.47 186.05 387.358 187.7V192.045C387.358 193.055 387.816 194.015 388.584 194.655L391.788 197.281C393.08 198.325 394.911 198.224 396.071 197.029L398.033 195.008C399.341 193.678 399.325 191.472 397.968 190.226ZM370.028 178.103C370.928 178.103 371.663 177.345 371.663 176.419V173.775L378.595 180.915C379.233 181.571 380.263 181.571 380.9 180.915L390.153 171.384C390.791 170.728 390.791 169.667 390.153 169.01C389.516 168.354 388.486 168.354 387.848 169.01L379.756 177.345L373.952 171.368H376.568C377.467 171.368 378.203 170.61 378.203 169.684C378.203 168.758 377.467 168 376.568 168H370.028C369.129 168 368.394 168.758 368.394 169.684V176.419C368.394 177.345 369.129 178.103 370.028 178.103Z" fill="#E53935"/>
</g>
<defs>
<linearGradient id="paint0_linear" x1="685.44" y1="-1118.37" x2="724.394" y2="-1204.13" gradientUnits="userSpaceOnUse">
<stop stop-color="#010101" stop-opacity="0"/>
<stop offset="0.95" stop-color="#010101"/>
</linearGradient>
<clipPath id="clip0">
<rect width="12.2458" height="12.2458" fill="white" transform="translate(183.85 91.5552)"/>
</clipPath>
<clipPath id="clip1">
<rect width="16.1009" height="16.1009" fill="white" transform="translate(228.864 95.445)"/>
</clipPath>
<clipPath id="clip2">
<rect width="16.1009" height="16.1009" fill="white" transform="translate(228.855 123.931)"/>
</clipPath>
<clipPath id="clip3">
<rect width="40" height="40" fill="white" transform="translate(359 163)"/>
</clipPath>
</defs>
</svg>
