<svg width="326" height="246" viewBox="0 0 326 246" fill="none" xmlns="http://www.w3.org/2000/svg">
<path d="M261.827 57.387H153.619C149.213 57.387 145.641 60.9636 145.641 65.3755V135.574C145.641 139.986 149.213 143.563 153.619 143.563H261.827C266.234 143.563 269.806 139.986 269.806 135.574V65.3755C269.806 60.9636 266.234 57.387 261.827 57.387Z" fill="white"/>
<path d="M261.819 143.938H153.619C151.404 143.936 149.281 143.054 147.715 141.486C146.149 139.918 145.268 137.792 145.266 135.574V65.4C145.268 63.1824 146.149 61.0563 147.715 59.4882C149.281 57.9202 151.404 57.0383 153.619 57.0362H261.819C264.029 57.0383 266.149 57.9168 267.715 59.4796C269.28 61.0423 270.164 63.1622 270.173 65.3755V135.55C270.175 136.65 269.96 137.74 269.541 138.757C269.123 139.774 268.508 140.698 267.732 141.477C266.956 142.256 266.035 142.875 265.02 143.297C264.005 143.719 262.918 143.937 261.819 143.938ZM153.619 57.7624C152.621 57.7624 151.632 57.9593 150.709 58.3419C149.787 58.7245 148.949 59.2853 148.243 59.9922C147.536 60.6991 146.976 61.5384 146.594 62.4621C146.212 63.3857 146.015 64.3757 146.015 65.3755V135.55C146.015 137.57 146.816 139.507 148.242 140.936C149.668 142.365 151.602 143.169 153.619 143.171H261.819C263.837 143.169 265.772 142.365 267.199 140.936C268.626 139.508 269.429 137.57 269.431 135.55V65.3755C269.429 63.3556 268.626 61.4192 267.198 59.9917C265.771 58.5642 263.836 57.7624 261.819 57.7624H153.619Z" fill="#F5841F"/>
<path d="M245.16 74.3268H170.27V131.87H245.16V74.3268Z" fill="white"/>
<path d="M245.168 132.278H170.27C170.162 132.278 170.058 132.235 169.982 132.158C169.905 132.082 169.862 131.978 169.862 131.87V74.3268C169.862 74.2185 169.905 74.1148 169.982 74.0383C170.058 73.9617 170.162 73.9188 170.27 73.9188H245.168C245.276 73.9188 245.38 73.9617 245.456 74.0383C245.533 74.1148 245.576 74.2185 245.576 74.3268V131.87C245.576 131.978 245.533 132.082 245.456 132.158C245.38 132.235 245.276 132.278 245.168 132.278ZM170.677 131.462H244.761V74.7347H170.677V131.462Z" fill="#D1D3D4"/>
<path d="M228.877 158.569L221.24 143.465H191.232L200.303 161.416H189.08C188.833 161.416 188.589 161.465 188.361 161.56C188.133 161.655 187.926 161.794 187.752 161.969C187.578 162.144 187.44 162.352 187.346 162.581C187.252 162.809 187.205 163.054 187.206 163.301C187.206 163.799 187.403 164.276 187.755 164.628C188.106 164.98 188.583 165.178 189.08 165.178H224.826C225.6 165.17 226.359 164.966 227.033 164.584C227.706 164.202 228.272 163.655 228.677 162.995C229.081 162.334 229.312 161.582 229.347 160.807C229.382 160.033 229.22 159.263 228.877 158.569Z" fill="white"/>
<path d="M224.801 165.578H189.056C188.459 165.578 187.887 165.341 187.465 164.918C187.043 164.496 186.806 163.923 186.806 163.326C186.806 162.728 187.043 162.156 187.465 161.733C187.887 161.311 188.459 161.074 189.056 161.074H199.675L190.873 143.669C190.843 143.612 190.827 143.549 190.827 143.485C190.827 143.421 190.843 143.358 190.873 143.302C190.907 143.248 190.954 143.203 191.009 143.171C191.065 143.14 191.127 143.123 191.191 143.122H221.199C221.268 143.123 221.335 143.142 221.394 143.178C221.453 143.214 221.501 143.265 221.533 143.326L229.162 158.438C229.556 159.19 229.749 160.031 229.72 160.879C229.692 161.728 229.443 162.554 228.999 163.278C228.556 164.001 227.931 164.597 227.188 165.006C226.445 165.415 225.609 165.623 224.761 165.61L224.801 165.578ZM189.08 161.784C188.7 161.812 188.345 161.982 188.086 162.262C187.827 162.541 187.683 162.908 187.683 163.289C187.683 163.67 187.827 164.037 188.086 164.316C188.345 164.596 188.7 164.767 189.08 164.795L224.826 164.835C225.542 164.834 226.246 164.65 226.871 164.299C227.496 163.949 228.021 163.444 228.396 162.833C228.771 162.222 228.983 161.525 229.013 160.809C229.043 160.092 228.889 159.38 228.567 158.74L221.036 143.84H191.859L200.661 161.245C200.691 161.3 200.707 161.362 200.707 161.425C200.707 161.487 200.691 161.549 200.661 161.604C200.629 161.66 200.583 161.706 200.527 161.737C200.471 161.769 200.407 161.785 200.343 161.784H189.08Z" fill="#F5841F"/>
<path d="M225.095 161.784H189.08C188.991 161.77 188.91 161.726 188.851 161.657C188.793 161.589 188.76 161.502 188.76 161.412C188.76 161.322 188.793 161.235 188.851 161.167C188.91 161.099 188.991 161.054 189.08 161.041H225.127C225.181 161.033 225.235 161.037 225.287 161.052C225.339 161.067 225.387 161.093 225.427 161.128C225.468 161.163 225.501 161.207 225.523 161.256C225.546 161.305 225.558 161.358 225.558 161.412C225.558 161.466 225.546 161.52 225.523 161.569C225.501 161.618 225.468 161.661 225.427 161.697C225.387 161.732 225.339 161.758 225.287 161.773C225.235 161.788 225.181 161.791 225.127 161.784H225.095Z" fill="#F5841F"/>
<path d="M206.757 98.3411C206.757 98.3411 196.325 97.876 193.612 102.127C190.898 106.378 182.275 131.38 182.275 131.38L218.42 132.196C218.42 132.196 220.612 116.284 219.366 109.675C217.915 101.956 219.186 96.8886 206.757 98.3411Z" fill="#78909C"/>
<path d="M202.12 88.7288C201.997 88.2843 201.784 87.8703 201.492 87.513C201.344 87.3383 201.145 87.2139 200.923 87.157C200.702 87.1 200.468 87.1132 200.254 87.1948C200.102 87.275 199.973 87.3915 199.878 87.5339C199.783 87.6763 199.724 87.8401 199.707 88.0108C199.682 88.36 199.732 88.7106 199.854 89.0389C200.042 89.6493 200.368 90.2078 200.808 90.6708C201.032 90.9016 201.301 91.0842 201.598 91.2076C201.895 91.3311 202.214 91.3928 202.536 91.3889" fill="white"/>
<path d="M202.438 91.7071C201.734 91.6889 201.064 91.3961 200.572 90.8912C200.091 90.3887 199.736 89.779 199.537 89.1123C199.401 88.742 199.348 88.3466 199.382 87.9536C199.402 87.7262 199.478 87.5072 199.603 87.3164C199.728 87.1255 199.898 86.9688 200.099 86.8602C200.377 86.7461 200.685 86.7226 200.977 86.7929C201.27 86.8631 201.533 87.0237 201.729 87.2519C202.051 87.6416 202.287 88.0948 202.422 88.5819C202.437 88.622 202.444 88.6649 202.443 88.7078C202.441 88.7508 202.431 88.793 202.413 88.8319C202.395 88.8707 202.369 88.9055 202.336 88.9341C202.304 88.9627 202.267 88.9844 202.226 88.9981C202.186 89.0122 202.142 89.0181 202.1 89.0155C202.057 89.0129 202.015 89.0017 201.976 88.9828C201.937 88.9638 201.903 88.9374 201.874 88.905C201.846 88.8726 201.824 88.8349 201.811 88.7941C201.706 88.3941 201.517 88.0212 201.256 87.7007C201.153 87.5782 201.016 87.489 200.862 87.444C200.709 87.399 200.545 87.4003 200.392 87.4477C200.29 87.5081 200.204 87.5923 200.142 87.6932C200.079 87.7941 200.042 87.9087 200.034 88.0271C200.012 88.3268 200.057 88.6277 200.164 88.9083C200.332 89.4779 200.631 90.0004 201.036 90.4342C201.229 90.6318 201.46 90.7884 201.715 90.895C201.97 91.0015 202.243 91.0557 202.52 91.0544C202.606 91.0544 202.689 91.0887 202.75 91.15C202.811 91.2112 202.846 91.2942 202.846 91.3808C202.846 91.4673 202.811 91.5503 202.75 91.6115C202.689 91.6728 202.606 91.7071 202.52 91.7071H202.438Z" fill="#F5841F"/>
<path d="M204.402 94.865L203.742 100.308C203.742 100.308 203.937 103.408 207.352 102.862C208.36 102.694 209.318 102.302 210.155 101.717C210.993 101.131 211.689 100.365 212.193 99.4753L212.902 90.0099C212.902 89.6101 211.501 87.9128 211.965 84.4612C210.802 84.3184 209.682 83.9339 208.675 83.3326C207.669 82.7312 206.799 81.9261 206.122 80.9688C206.122 80.9688 204.492 82.8864 203.823 83.4739C203.285 83.9077 202.806 84.4097 202.397 84.9671C201.313 86.5338 201.297 89.1286 201.509 90.9401C201.688 92.4578 202.511 94.865 204.402 94.865Z" fill="white"/>
<path d="M206.586 103.302C205.855 103.327 205.137 103.096 204.557 102.649C203.878 102.058 203.453 101.229 203.367 100.332L203.986 95.2077C202.112 94.8895 201.321 92.4579 201.142 90.9891C200.995 89.7406 200.792 86.6399 202.087 84.755C202.519 84.1737 203.02 83.6476 203.579 83.1883C204.231 82.6253 205.82 80.7404 205.836 80.7404C205.875 80.6965 205.922 80.6619 205.976 80.6393C206.03 80.6167 206.088 80.6066 206.146 80.6098C206.206 80.6135 206.264 80.6317 206.315 80.663C206.366 80.6943 206.409 80.7377 206.439 80.7893C207.092 81.6955 207.924 82.4578 208.883 83.0291C209.841 83.6003 210.907 83.9684 212.014 84.1104C212.063 84.1173 212.109 84.1338 212.151 84.1591C212.193 84.1843 212.23 84.2177 212.259 84.2573C212.29 84.2936 212.314 84.3368 212.326 84.3834C212.339 84.4301 212.341 84.479 212.332 84.5265C212.07 86.1669 212.321 87.8482 213.049 89.3408C213.184 89.5542 213.263 89.7985 213.277 90.0507C213.277 90.0507 213.277 90.3445 212.56 99.5161C212.569 99.5619 212.569 99.609 212.56 99.6548C212.031 100.6 211.296 101.413 210.41 102.035C209.524 102.656 208.51 103.07 207.442 103.245C207.159 103.289 206.873 103.308 206.586 103.302ZM204.141 100.348C204.169 100.717 204.28 101.075 204.466 101.395C204.652 101.715 204.908 101.989 205.215 102.195C205.521 102.402 205.871 102.536 206.237 102.588C206.603 102.64 206.976 102.608 207.328 102.494C208.264 102.331 209.154 101.966 209.936 101.425C210.719 100.884 211.375 100.18 211.859 99.3611C211.933 98.4553 212.56 90.0589 212.568 89.9854C212.576 89.912 212.479 89.7814 212.405 89.6346C211.672 88.1142 211.389 86.4151 211.59 84.7387C209.438 84.3781 207.494 83.2365 206.13 81.5319C205.49 82.2918 204.813 83.019 204.1 83.7106C203.59 84.1311 203.13 84.6104 202.731 85.1385C201.582 86.7705 201.778 89.6998 201.916 90.8504C202.071 92.1804 202.78 94.4407 204.435 94.4489C204.487 94.4484 204.539 94.4592 204.587 94.4807C204.635 94.5021 204.678 94.5336 204.713 94.5731C204.748 94.6126 204.774 94.659 204.789 94.7094C204.804 94.7598 204.808 94.8128 204.801 94.865L204.141 100.299V100.348Z" fill="#F5841F"/>
<path d="M204.149 96.5214C205.028 96.8059 205.979 96.777 206.839 96.4398C208.795 95.7952 208.933 94.4733 208.933 94.4733C207.517 95.1358 205.911 95.2745 204.402 94.865L204.149 96.5214Z" fill="#F5841F"/>
<path d="M205.282 97.06C204.876 97.0626 204.471 96.9993 204.084 96.8723C204.018 96.8624 203.956 96.8341 203.905 96.7907C203.857 96.7441 203.822 96.6857 203.803 96.6213C203.785 96.5568 203.783 96.4887 203.799 96.4235L204.044 94.7916C204.052 94.7425 204.07 94.6956 204.096 94.6536C204.123 94.6116 204.158 94.5753 204.198 94.5468C204.239 94.5193 204.284 94.5002 204.331 94.4904C204.379 94.4806 204.428 94.4803 204.476 94.4896C205.896 94.8752 207.407 94.751 208.746 94.1388C208.803 94.105 208.868 94.0872 208.934 94.0872C209 94.0872 209.064 94.105 209.121 94.1388C209.177 94.1749 209.223 94.2262 209.251 94.2868C209.28 94.3474 209.292 94.4148 209.284 94.4815C209.284 94.5468 209.097 96.04 206.953 96.7499C206.416 96.941 205.852 97.0456 205.282 97.06ZM204.549 96.244C205.276 96.3842 206.027 96.3279 206.725 96.0808C207.307 95.9148 207.828 95.5831 208.225 95.1261C207.078 95.4436 205.873 95.4939 204.704 95.273L204.549 96.244Z" fill="#F5841F"/>
<path d="M207.548 85.7097C207.548 85.7097 205.502 88.1576 205.861 88.6309C206.22 89.1042 207.426 88.9655 207.426 88.9655" fill="white"/>
<path d="M207.01 89.3571C206.752 89.382 206.492 89.3479 206.249 89.2575C206.006 89.167 205.787 89.0225 205.608 88.8349C205.249 88.3535 205.828 87.2029 207.311 85.4812C207.341 85.4438 207.379 85.4128 207.421 85.3901C207.463 85.3673 207.509 85.3533 207.557 85.3487C207.605 85.3442 207.653 85.3493 207.699 85.3637C207.744 85.3782 207.787 85.4016 207.823 85.4327C207.86 85.4638 207.89 85.5019 207.911 85.5448C207.933 85.5877 207.945 85.6344 207.949 85.6823C207.952 85.7302 207.945 85.7782 207.93 85.8236C207.914 85.8689 207.889 85.9107 207.857 85.9463C207.16 86.6796 206.607 87.5377 206.227 88.4759C206.605 88.6379 207.022 88.6833 207.425 88.6064C207.52 88.5947 207.616 88.6206 207.692 88.6785C207.768 88.7365 207.819 88.8218 207.833 88.9165C207.845 89.0115 207.819 89.1073 207.761 89.1835C207.703 89.2598 207.618 89.3103 207.523 89.3245C207.353 89.3453 207.181 89.3562 207.01 89.3571Z" fill="#F5841F"/>
<path d="M205.552 86.2556C205.601 85.9439 205.507 85.6704 205.342 85.6448C205.177 85.6192 205.005 85.8511 204.956 86.1628C204.908 86.4745 205.002 86.7479 205.167 86.7736C205.331 86.7992 205.504 86.5673 205.552 86.2556Z" fill="#F5841F"/>
<path d="M210.244 86.6985C210.254 86.3832 210.128 86.1232 209.961 86.1177C209.795 86.1122 209.651 86.3633 209.641 86.6786C209.63 86.9939 209.757 87.2539 209.923 87.2594C210.09 87.2649 210.233 87.0138 210.244 86.6985Z" fill="#F5841F"/>
<path d="M211.794 87.9128C211.926 87.4504 212.141 87.0162 212.43 86.6317C212.594 86.41 212.809 86.2317 213.058 86.1122C213.307 85.9928 213.58 85.9358 213.856 85.9463C214.025 85.9572 214.19 86.0061 214.339 86.0894C214.487 86.1728 214.614 86.2884 214.712 86.4278C214.825 86.6285 214.894 86.851 214.915 87.0805C215.07 88.2963 214.63 89.863 213.481 90.4668C213.288 90.5868 213.065 90.6504 212.837 90.6504C212.61 90.6504 212.387 90.5868 212.193 90.4668" fill="white"/>
<path d="M212.788 90.9565C212.495 90.965 212.207 90.8728 211.973 90.6953C211.936 90.6702 211.903 90.6375 211.879 90.5993C211.854 90.561 211.838 90.518 211.831 90.4731C211.824 90.4282 211.827 90.3824 211.839 90.3385C211.85 90.2946 211.871 90.2537 211.9 90.2183C211.928 90.183 211.964 90.1539 212.004 90.1331C212.044 90.1123 212.089 90.1001 212.134 90.0974C212.179 90.0947 212.225 90.1015 212.267 90.1173C212.31 90.1332 212.348 90.1577 212.381 90.1894C212.522 90.2711 212.682 90.3141 212.845 90.3141C213.009 90.3141 213.169 90.2711 213.31 90.1894C214.321 89.659 214.712 88.2229 214.573 87.1295C214.565 86.9454 214.512 86.7662 214.418 86.6073C214.348 86.5108 214.258 86.4308 214.154 86.373C214.05 86.3152 213.934 86.281 213.815 86.2727C213.593 86.2721 213.373 86.3234 213.173 86.4225C212.974 86.5217 212.8 86.6659 212.666 86.8439C212.401 87.1984 212.204 87.5998 212.088 88.0271C212.06 88.1076 212.001 88.1741 211.925 88.2122C211.849 88.2503 211.761 88.2571 211.68 88.2311C211.639 88.219 211.6 88.1988 211.567 88.1715C211.534 88.1442 211.507 88.1105 211.487 88.0724C211.467 88.0343 211.455 87.9925 211.452 87.9497C211.449 87.9068 211.454 87.8638 211.468 87.8231C211.61 87.3213 211.845 86.8508 212.161 86.4359C212.358 86.1729 212.616 85.9614 212.913 85.8194C213.209 85.6774 213.536 85.6089 213.864 85.62C214.084 85.6328 214.297 85.6961 214.488 85.8051C214.679 85.9141 214.842 86.0658 214.964 86.2483C215.112 86.4963 215.199 86.776 215.217 87.0642C215.388 88.4024 214.891 90.116 213.587 90.7769C213.338 90.8976 213.065 90.9591 212.788 90.9565Z" fill="#F5841F"/>
<path d="M204.459 90.0262L209.691 90.2792C209.691 90.2792 208.933 93.0617 206.7 92.874C204.467 92.6863 204.459 90.0262 204.459 90.0262Z" fill="white"/>
<path d="M206.912 93.2494H206.676C204.646 93.0862 204.1 91.0788 204.092 90.0507C204.092 90.0004 204.102 89.9505 204.121 89.9042C204.141 89.8579 204.17 89.8161 204.206 89.7814C204.281 89.7173 204.377 89.6825 204.475 89.6835L209.716 89.9365C209.769 89.9396 209.82 89.9543 209.867 89.9797C209.913 90.0051 209.954 90.0405 209.985 90.0834C210.018 90.127 210.04 90.1778 210.05 90.2316C210.06 90.2855 210.057 90.3409 210.042 90.3934C209.765 91.3971 208.762 93.2494 206.912 93.2494ZM204.85 90.4097C204.866 90.9264 205.064 91.4209 205.408 91.806C205.753 92.1911 206.222 92.4422 206.733 92.515C208.143 92.6292 208.893 91.3236 209.178 90.6137L204.85 90.4097Z" fill="#F5841F"/>
<path d="M191.452 129.846H191.379C191.27 129.824 191.173 129.761 191.109 129.67C191.046 129.579 191.019 129.467 191.036 129.356C191.444 127.121 195.005 107.521 195.16 106.958C195.174 106.905 195.199 106.855 195.232 106.811C195.266 106.767 195.308 106.731 195.356 106.704C195.403 106.676 195.456 106.659 195.511 106.652C195.565 106.645 195.621 106.649 195.674 106.664C195.781 106.693 195.873 106.763 195.93 106.859C195.986 106.955 196.002 107.07 195.975 107.178C195.837 107.709 192.96 123.498 191.9 129.503C191.88 129.606 191.824 129.697 191.741 129.76C191.659 129.823 191.556 129.854 191.452 129.846Z" fill="white"/>
<path d="M217.148 100.202C217.148 100.202 224.117 110.907 225.095 111.07C226.073 111.234 228.094 100.838 228.094 100.838L235.347 103.286C235.347 103.286 231.998 129.34 227.833 128.271C223.668 127.202 215.298 114.791 215.298 114.791L217.148 100.202Z" fill="#78909C"/>
<path d="M226.912 128.035C226.864 128.042 226.814 128.042 226.766 128.035C221.542 126.068 216.774 116.815 216.57 116.423C216.537 116.373 216.515 116.317 216.505 116.258C216.495 116.199 216.498 116.139 216.513 116.081C216.528 116.023 216.555 115.969 216.592 115.922C216.63 115.876 216.677 115.837 216.73 115.81C216.783 115.783 216.842 115.767 216.901 115.764C216.961 115.761 217.021 115.771 217.076 115.793C217.132 115.814 217.183 115.847 217.225 115.89C217.266 115.933 217.299 115.984 217.32 116.04C217.369 116.129 222.137 125.399 227.1 127.251C227.2 127.279 227.287 127.343 227.342 127.431C227.398 127.519 227.418 127.624 227.4 127.726C227.381 127.829 227.325 127.921 227.243 127.984C227.16 128.047 227.057 128.077 226.953 128.067L226.912 128.035Z" fill="white"/>
<path d="M229.015 100.773C229.015 100.773 228.461 92.7353 229.015 92.6863C229.569 92.6374 230.409 96.5214 230.409 96.5214C230.409 96.5214 232.039 91.2747 232.568 91.2992C233.098 91.3236 233.269 92.3681 232.894 94.8242C232.894 94.8242 233.889 91.1849 234.524 91.5603C235.16 91.9356 234.052 95.2811 234.052 95.2811C234.052 95.2811 235.087 92.0172 235.592 92.3518C236.097 92.6863 234.932 96.0563 234.932 96.0563C234.932 96.0563 235.869 92.5476 236.382 93.2493C236.896 93.9511 235.07 100.977 234.516 102.935" fill="white"/>
<path d="M234.476 103.335C234.438 103.343 234.399 103.343 234.362 103.335C234.311 103.321 234.263 103.297 234.221 103.264C234.179 103.231 234.145 103.19 234.119 103.144C234.093 103.098 234.077 103.047 234.071 102.994C234.065 102.941 234.07 102.888 234.084 102.837C234.942 99.9412 235.592 96.9881 236.032 94.0001C235.943 94.1959 235.845 94.4325 235.747 94.7018C235.625 95.1261 235.47 95.6239 235.274 96.1951C235.243 96.3033 235.17 96.3946 235.071 96.4489C234.973 96.5032 234.857 96.5161 234.749 96.4847C234.641 96.4533 234.549 96.3803 234.495 96.2816C234.441 96.1829 234.428 96.0666 234.459 95.9584C234.622 95.3546 234.777 94.865 234.924 94.4733C235.071 94.0817 235.136 93.6574 235.193 93.2983C234.874 93.978 234.602 94.6787 234.378 95.3954C234.362 95.4469 234.336 95.4947 234.302 95.536C234.267 95.5772 234.225 95.611 234.177 95.6354C234.129 95.6598 234.076 95.6742 234.023 95.6779C233.969 95.6815 233.915 95.6742 233.864 95.6565C233.762 95.6229 233.677 95.5499 233.628 95.4535C233.579 95.3571 233.57 95.2452 233.604 95.1424C233.928 94.1994 234.141 93.2218 234.239 92.2294C233.819 93.0999 233.486 94.0101 233.245 94.9466C233.22 95.0475 233.156 95.1346 233.068 95.1895C232.98 95.2443 232.874 95.2626 232.772 95.2404C232.671 95.2169 232.582 95.156 232.523 95.0699C232.464 94.9837 232.44 94.8786 232.454 94.7752C232.689 93.8135 232.725 92.8139 232.56 91.8377C231.831 93.3939 231.229 95.0067 230.759 96.6602C230.736 96.7485 230.683 96.8258 230.608 96.8782C230.533 96.9305 230.443 96.9545 230.352 96.9458C230.263 96.9422 230.178 96.9089 230.11 96.8512C230.042 96.7936 229.995 96.7148 229.977 96.6275C229.769 95.6317 229.497 94.6504 229.162 93.69C229.089 95.069 229.162 98.0392 229.382 100.756C229.386 100.81 229.38 100.864 229.364 100.915C229.347 100.966 229.321 101.014 229.286 101.055C229.251 101.096 229.209 101.129 229.161 101.154C229.113 101.178 229.061 101.193 229.007 101.197C228.9 101.2 228.796 101.161 228.716 101.09C228.636 101.019 228.585 100.92 228.575 100.814C227.988 92.3763 228.518 92.3355 228.95 92.2947C229.211 92.2947 229.708 92.2294 230.433 95.0119C231.794 90.8667 232.283 90.932 232.552 90.932C232.666 90.9386 232.777 90.9688 232.878 91.0208C232.979 91.0728 233.068 91.1454 233.139 91.2339C233.314 91.4721 233.419 91.7549 233.441 92.0499C233.577 91.6921 233.826 91.3885 234.15 91.1849C234.232 91.1427 234.322 91.1207 234.415 91.1207C234.507 91.1207 234.598 91.1427 234.679 91.1849C234.81 91.2911 234.912 91.4278 234.978 91.5828C235.043 91.7379 235.069 91.9067 235.054 92.0744C235.116 92.0176 235.188 91.9733 235.266 91.9438C235.344 91.912 235.428 91.8991 235.512 91.9062C235.595 91.9133 235.676 91.9402 235.747 91.9846C235.853 92.0417 236.057 92.1641 236.065 92.7353C236.176 92.7154 236.29 92.7278 236.394 92.7712C236.498 92.8147 236.588 92.8872 236.652 92.9801C237.377 93.9674 235.103 102.103 234.842 103.025C234.823 103.109 234.777 103.185 234.711 103.241C234.645 103.297 234.562 103.33 234.476 103.335Z" fill="#F5841F"/>
<path d="M216.904 86.795H216.798C216.703 86.7666 216.623 86.7018 216.576 86.6146C216.529 86.5274 216.518 86.4251 216.546 86.3298C217.062 84.8804 217.337 83.3561 217.361 81.8175C217.365 81.0892 217.195 80.3704 216.864 79.7215C216.534 79.0727 216.053 78.5126 215.462 78.0884C214.813 77.7406 214.11 77.5034 213.383 77.3867C211.366 76.8275 209.261 76.6613 207.181 76.8971L206.676 76.995C206.143 77.1268 205.595 77.1899 205.046 77.1827C204.795 77.1626 204.544 77.13 204.296 77.0848C204.092 77.0451 203.885 77.0178 203.677 77.0032C201.924 76.8971 200.417 78.3904 199.887 79.9326C199.402 81.6932 199.29 83.5362 199.561 85.3425C199.568 85.4408 199.536 85.5378 199.472 85.6126C199.408 85.6874 199.317 85.734 199.219 85.7423C199.17 85.7468 199.121 85.7414 199.074 85.7265C199.027 85.7116 198.984 85.6874 198.947 85.6555C198.909 85.6235 198.879 85.5844 198.857 85.5405C198.835 85.4965 198.822 85.4486 198.819 85.3996C198.532 83.4909 198.66 81.5425 199.194 79.6878C199.846 77.8763 201.639 76.1138 203.734 76.2688C203.964 76.2825 204.193 76.3125 204.418 76.3586C204.638 76.3586 204.858 76.432 205.079 76.4483C205.557 76.447 206.033 76.3867 206.497 76.2688L207.018 76.1709C209.203 75.9105 211.418 76.0796 213.538 76.6686C214.347 76.8117 215.126 77.0874 215.845 77.4846C216.551 77.9645 217.128 78.6121 217.523 79.3697C217.919 80.1272 218.12 80.971 218.11 81.8256C218.08 83.4456 217.785 85.0496 217.238 86.5746C217.21 86.6398 217.163 86.6953 217.104 86.7344C217.045 86.7735 216.975 86.7946 216.904 86.795Z" fill="#F5841F"/>
<path d="M267.141 69.692H148.151C148.043 69.6899 147.941 69.6463 147.865 69.5702C147.789 69.4941 147.745 69.3916 147.743 69.284C147.743 69.1758 147.786 69.072 147.863 68.9955C147.939 68.919 148.043 68.876 148.151 68.876H267.141C267.249 68.876 267.352 68.919 267.429 68.9955C267.505 69.072 267.548 69.1758 267.548 69.284C267.548 69.3922 267.505 69.496 267.429 69.5725C267.352 69.649 267.249 69.692 267.141 69.692Z" fill="#D1D3D4"/>
<path d="M197.613 139.189C198.649 139.189 199.488 138.349 199.488 137.312C199.488 136.276 198.649 135.436 197.613 135.436C196.578 135.436 195.739 136.276 195.739 137.312C195.739 138.349 196.578 139.189 197.613 139.189Z" fill="#C6CFD3"/>
<path d="M207.719 139.189C208.754 139.189 209.594 138.349 209.594 137.312C209.594 136.276 208.754 135.436 207.719 135.436C206.684 135.436 205.845 136.276 205.845 137.312C205.845 138.349 206.684 139.189 207.719 139.189Z" fill="#D1D3D4"/>
<path d="M217.825 139.189C218.86 139.189 219.7 138.349 219.7 137.312C219.7 136.276 218.86 135.436 217.825 135.436C216.79 135.436 215.951 136.276 215.951 137.312C215.951 138.349 216.79 139.189 217.825 139.189Z" fill="#D1D3D4"/>
<path d="M209.455 64.0536H201.305C201.197 64.0536 201.093 64.0106 201.017 63.9341C200.94 63.8576 200.897 63.7538 200.897 63.6456C200.897 63.5374 200.94 63.4336 201.017 63.3571C201.093 63.2806 201.197 63.2376 201.305 63.2376H209.455C209.563 63.2376 209.667 63.2806 209.743 63.3571C209.82 63.4336 209.862 63.5374 209.862 63.6456C209.862 63.7538 209.82 63.8576 209.743 63.9341C209.667 64.0106 209.563 64.0536 209.455 64.0536Z" fill="#D1D3D4"/>
<path d="M273.604 184.362C273.495 184.362 273.392 184.319 273.315 184.242C273.239 184.166 273.196 184.062 273.196 183.954V174.244H58.5005V183.954C58.5005 184.062 58.4576 184.166 58.3812 184.242C58.3048 184.319 58.2011 184.362 58.093 184.362C57.985 184.362 57.8813 184.319 57.8049 184.242C57.7285 184.166 57.6855 184.062 57.6855 183.954V173.836C57.6855 173.727 57.7285 173.624 57.8049 173.547C57.8813 173.471 57.985 173.428 58.093 173.428H273.604C273.711 173.43 273.813 173.473 273.889 173.549C273.965 173.625 274.009 173.728 274.011 173.836V183.954C274.011 184.062 273.968 184.166 273.892 184.242C273.815 184.319 273.712 184.362 273.604 184.362Z" fill="#D1D3D4"/>
<path d="M183.717 159.564H130.033V165.292H183.717V159.564Z" fill="white"/>
<path d="M183.709 165.668H130.033C129.934 165.666 129.84 165.625 129.77 165.555C129.7 165.485 129.66 165.391 129.658 165.292V159.58C129.658 159.481 129.698 159.385 129.768 159.315C129.838 159.245 129.934 159.205 130.033 159.205H183.709C183.759 159.204 183.808 159.213 183.854 159.231C183.9 159.25 183.942 159.277 183.977 159.313C184.012 159.348 184.039 159.389 184.058 159.435C184.076 159.481 184.085 159.531 184.084 159.58V165.292C184.084 165.342 184.074 165.39 184.055 165.436C184.037 165.481 184.009 165.523 183.974 165.558C183.939 165.593 183.898 165.62 183.852 165.639C183.807 165.658 183.758 165.668 183.709 165.668ZM130.4 164.917H183.375V159.931H130.4V164.917Z" fill="#F5841F"/>
<path d="M253.579 161.669C255.348 161.669 256.782 160.234 256.782 158.463C256.782 156.691 255.348 155.256 253.579 155.256C251.81 155.256 250.376 156.691 250.376 158.463C250.376 160.234 251.81 161.669 253.579 161.669Z" fill="white"/>
<path d="M253.579 162.077C252.863 162.077 252.163 161.865 251.568 161.466C250.973 161.068 250.509 160.501 250.235 159.839C249.961 159.176 249.89 158.448 250.031 157.745C250.171 157.042 250.516 156.396 251.023 155.89C251.53 155.383 252.176 155.039 252.878 154.9C253.581 154.761 254.308 154.834 254.969 155.11C255.631 155.385 256.195 155.851 256.592 156.447C256.988 157.044 257.199 157.746 257.198 158.463C257.195 159.422 256.813 160.341 256.135 161.019C255.457 161.697 254.537 162.077 253.579 162.077ZM253.579 155.656C253.025 155.656 252.482 155.82 252.021 156.129C251.56 156.437 251.201 156.875 250.989 157.388C250.777 157.901 250.721 158.466 250.829 159.01C250.937 159.555 251.204 160.055 251.597 160.447C251.989 160.84 252.488 161.107 253.032 161.216C253.576 161.324 254.14 161.268 254.652 161.056C255.164 160.843 255.602 160.484 255.91 160.022C256.218 159.56 256.383 159.018 256.383 158.463C256.385 158.093 256.314 157.726 256.174 157.383C256.034 157.041 255.828 156.73 255.567 156.467C255.307 156.205 254.997 155.997 254.656 155.854C254.314 155.712 253.949 155.639 253.579 155.639V155.656Z" fill="#D1D3D4"/>
<path d="M236.464 165.97C236.464 165.97 234.28 162.706 236.073 159.442C237.866 156.178 242.169 154.978 246.937 155.525C251.705 156.072 259.056 159.05 260.148 161.865C260.857 163.693 257.882 165.782 257.882 165.782L236.464 165.97Z" fill="white"/>
<path d="M236.464 166.378C236.398 166.378 236.332 166.362 236.274 166.331C236.215 166.3 236.166 166.254 236.13 166.198C236.032 166.059 233.823 162.665 235.714 159.205C237.466 156.015 241.672 154.472 246.986 155.084C251.558 155.607 259.292 158.503 260.531 161.677C261.346 163.775 258.249 165.978 258.086 166.076C258.013 166.116 257.933 166.141 257.85 166.149L236.44 166.378H236.464ZM244.753 155.77C240.816 155.77 237.776 157.141 236.431 159.605C235.013 162.2 236.293 164.86 236.692 165.57L257.744 165.341C258.559 164.746 260.229 163.179 259.765 161.979C258.779 159.434 251.745 156.455 246.896 155.9C246.185 155.815 245.469 155.769 244.753 155.762V155.77Z" fill="#D1D3D4"/>
<path d="M242.715 155.411C242.715 155.411 251.395 156.423 248.42 161.514L242.715 155.411Z" fill="white"/>
<path d="M248.42 161.922C248.349 161.919 248.279 161.899 248.216 161.865C248.123 161.809 248.056 161.719 248.029 161.614C248.001 161.508 248.016 161.397 248.07 161.302C248.36 160.918 248.545 160.464 248.605 159.985C248.665 159.507 248.599 159.021 248.412 158.577C247.32 156.39 242.707 155.819 242.707 155.811C242.654 155.806 242.602 155.79 242.555 155.764C242.508 155.739 242.466 155.704 242.433 155.662C242.399 155.62 242.375 155.572 242.36 155.521C242.346 155.469 242.342 155.415 242.348 155.362C242.361 155.255 242.415 155.157 242.499 155.09C242.583 155.023 242.69 154.991 242.797 155.003C243.009 155.003 247.882 155.631 249.17 158.21C249.418 158.776 249.516 159.396 249.453 160.011C249.39 160.626 249.169 161.214 248.811 161.718C248.772 161.786 248.714 161.84 248.645 161.877C248.576 161.913 248.498 161.928 248.42 161.922Z" fill="#D1D3D4"/>
<path d="M283.327 184.362C283.219 184.362 283.115 184.319 283.038 184.242C282.962 184.166 282.919 184.062 282.919 183.954V166.378H49.6417V183.954C49.6417 184.062 49.5987 184.166 49.5223 184.242C49.4459 184.319 49.3422 184.362 49.2342 184.362C49.1261 184.362 49.0224 184.319 48.946 184.242C48.8696 184.166 48.8267 184.062 48.8267 183.954V166.002C48.8267 165.894 48.8696 165.79 48.946 165.714C49.0224 165.637 49.1261 165.594 49.2342 165.594H283.327C283.435 165.594 283.538 165.637 283.615 165.714C283.691 165.79 283.734 165.894 283.734 166.002V183.954C283.734 184.062 283.691 184.166 283.615 184.242C283.538 184.319 283.435 184.362 283.327 184.362Z" fill="#D1D3D4"/>
<path d="M155.095 157.679C155.095 157.679 160.351 162.183 164.353 160.054C168.355 157.924 169.52 155.639 169.52 155.639C169.52 155.639 170.889 161.522 172.389 159.899C172.592 159.689 172.75 159.44 172.855 159.166C172.959 158.893 173.007 158.602 172.995 158.31C172.984 158.018 172.913 157.731 172.788 157.467C172.663 157.203 172.485 156.967 172.267 156.773C172.267 156.773 175.021 161.147 175.266 158.773C175.51 156.398 173.636 153.877 173.636 153.877C173.636 153.877 181.786 159.882 181.386 156.251C180.987 152.62 173.888 147.993 168.509 147.993C163.13 147.993 153.13 150.874 153.13 150.874" fill="white"/>
<path d="M161.957 161.041C158.436 161.041 155.013 158.144 154.834 157.989C154.793 157.954 154.76 157.912 154.735 157.864C154.711 157.816 154.697 157.764 154.692 157.711C154.688 157.657 154.695 157.604 154.711 157.553C154.728 157.502 154.754 157.455 154.789 157.414C154.824 157.373 154.866 157.34 154.914 157.316C154.962 157.291 155.014 157.277 155.067 157.272C155.12 157.268 155.174 157.275 155.225 157.291C155.276 157.308 155.323 157.334 155.364 157.369C155.412 157.369 160.449 161.669 164.157 159.695C167.866 157.72 169.104 155.517 169.113 155.492C169.151 155.417 169.211 155.356 169.285 155.316C169.36 155.277 169.445 155.261 169.528 155.272C169.61 155.282 169.687 155.317 169.749 155.373C169.81 155.428 169.853 155.501 169.871 155.582C170.319 157.491 171.175 159.662 171.77 159.801C171.77 159.801 171.892 159.801 172.055 159.654C172.287 159.439 172.451 159.16 172.528 158.853C172.604 158.546 172.59 158.223 172.487 157.924C172.259 157.606 172.055 157.296 171.884 157.018C171.829 156.935 171.807 156.835 171.822 156.737C171.837 156.639 171.888 156.55 171.965 156.488C172.039 156.422 172.135 156.386 172.234 156.386C172.333 156.386 172.429 156.422 172.503 156.488C172.802 156.767 173.038 157.106 173.196 157.483C173.586 158.14 174.121 158.699 174.761 159.115C174.761 159.115 174.761 159.001 174.826 158.773C175.054 156.586 173.294 154.203 173.277 154.179C173.214 154.103 173.179 154.008 173.179 153.909C173.179 153.811 173.214 153.715 173.277 153.64C173.354 153.579 173.449 153.546 173.546 153.546C173.644 153.546 173.739 153.579 173.815 153.64C176.146 155.37 179.846 157.557 180.751 157.043C180.898 156.961 180.955 156.741 180.914 156.39C180.555 152.922 173.579 148.499 168.444 148.499C163.188 148.499 153.277 151.331 153.179 151.363C153.071 151.394 152.956 151.38 152.858 151.325C152.76 151.27 152.688 151.178 152.658 151.07C152.628 150.962 152.641 150.846 152.696 150.748C152.751 150.65 152.843 150.578 152.951 150.547C153.359 150.433 163.073 147.659 168.436 147.659C173.994 147.659 181.321 152.416 181.721 156.284C181.787 156.554 181.768 156.838 181.666 157.097C181.564 157.356 181.383 157.577 181.15 157.728C179.903 158.438 176.806 156.643 174.85 155.345C175.405 156.434 175.661 157.65 175.592 158.871C175.527 159.485 175.298 159.836 174.907 159.923C174.435 160.037 173.848 159.613 173.277 159.009C173.164 159.472 172.927 159.895 172.593 160.233C172.469 160.396 172.301 160.52 172.108 160.588C171.916 160.656 171.707 160.666 171.509 160.617C170.441 160.331 169.651 158.103 169.251 156.684C167.938 158.253 166.315 159.534 164.483 160.445C163.701 160.844 162.835 161.049 161.957 161.041Z" fill="#F5841F"/>
<path d="M131.957 193.843C131.957 193.843 122.087 176.202 123.212 156.308C124.336 136.415 132.992 128.516 126.594 108.981C120.196 89.4469 108.664 89.7814 92.6247 99.4998C71.94 112.025 56.8299 162.126 66.5447 195.549C66.5773 195.549 96.5449 204.068 131.957 193.843Z" fill="#C6CFD3"/>
<path d="M103.961 114.114C103.961 115.118 93.7085 163.685 100.457 168.197C107.205 172.71 156.692 162.436 156.692 162.436L156.186 148.916L126.936 145.652C126.936 145.652 135.192 108.867 120.685 99.1407C106.178 89.4142 103.961 114.114 103.961 114.114Z" fill="#C6CFD3"/>
<path d="M108.395 170.939C103.032 170.939 97.7347 169.756 95.6157 165.627C90.8479 156.333 103.766 107.088 104.336 104.999C104.349 104.947 104.373 104.899 104.405 104.856C104.437 104.813 104.478 104.777 104.524 104.749C104.57 104.722 104.621 104.704 104.674 104.697C104.727 104.689 104.781 104.692 104.833 104.706C104.937 104.734 105.025 104.803 105.078 104.896C105.132 104.989 105.146 105.1 105.119 105.203C104.988 105.718 91.7118 156.235 96.341 165.251C100.881 174.113 122.421 168.116 122.617 168.05C122.67 168.035 122.726 168.031 122.781 168.038C122.836 168.044 122.89 168.062 122.938 168.089C122.987 168.116 123.029 168.153 123.064 168.197C123.098 168.24 123.123 168.29 123.138 168.344C123.153 168.398 123.158 168.454 123.151 168.509C123.144 168.564 123.127 168.617 123.1 168.666C123.072 168.714 123.036 168.757 122.992 168.791C122.948 168.826 122.898 168.851 122.845 168.866C118.131 170.144 113.278 170.84 108.395 170.939Z" fill="#F5841F"/>
<path d="M126.969 146.068C125.746 146.027 119.634 145.692 119.088 143.506C118.574 141.449 125.771 120.381 126.594 117.99C126.631 117.888 126.706 117.805 126.803 117.757C126.901 117.71 127.013 117.703 127.115 117.737C127.217 117.772 127.3 117.846 127.347 117.942C127.394 118.038 127.402 118.149 127.368 118.251C124.287 127.227 119.536 141.914 119.878 143.31C120.172 144.485 124.214 145.154 126.993 145.252C127.101 145.252 127.205 145.295 127.281 145.371C127.358 145.448 127.401 145.552 127.401 145.66C127.401 145.768 127.358 145.872 127.281 145.948C127.205 146.025 127.101 146.068 126.993 146.068H126.969Z" fill="#F5841F"/>
<path d="M121.15 97.7046L123.212 93.3799C123.212 93.3799 126.594 95.8278 130.156 90.3771C133.717 84.9263 134.475 63.9149 134.475 63.9149L124.915 64.6656L124.345 72.0094C124.345 72.0094 123.065 65.9874 119.275 69.9613C115.486 73.9351 121.525 81.793 121.525 81.793L116.635 92.4905" fill="white"/>
<path d="M121.15 98.1289C121.093 98.1401 121.035 98.1401 120.978 98.1289C120.929 98.1061 120.886 98.0739 120.849 98.034C120.813 97.9941 120.785 97.9473 120.766 97.8965C120.748 97.8456 120.74 97.7917 120.743 97.7377C120.746 97.6838 120.759 97.6309 120.783 97.5822L122.845 93.2657C122.87 93.211 122.908 93.1626 122.954 93.1242C123.001 93.0857 123.055 93.0581 123.114 93.0432C123.172 93.0284 123.233 93.0267 123.292 93.0384C123.352 93.0501 123.408 93.0747 123.456 93.1106C124.152 93.5403 124.986 93.6863 125.787 93.5186C127.197 93.2494 128.558 92.1315 129.813 90.2547C132.983 85.3588 133.888 67.5378 134.043 64.4452L125.282 65.0654L124.744 72.042C124.747 72.0956 124.741 72.1494 124.724 72.2003C124.707 72.2513 124.68 72.2983 124.645 72.3389C124.573 72.4207 124.473 72.471 124.365 72.4786C124.257 72.4861 124.15 72.4504 124.068 72.3793C123.986 72.3081 123.936 72.2073 123.929 72.0991C123.766 71.3566 123.114 69.3738 121.948 69.0555C121.28 68.8679 120.473 69.2595 119.552 70.2224C116.088 73.8698 121.777 81.4503 121.834 81.5237C121.878 81.5829 121.905 81.6524 121.914 81.7253C121.922 81.7983 121.912 81.8722 121.883 81.9399L116.993 92.6455C116.949 92.7439 116.867 92.8205 116.766 92.8588C116.665 92.897 116.554 92.8937 116.455 92.8495C116.356 92.8034 116.28 92.7202 116.242 92.6179C116.203 92.5156 116.207 92.4025 116.251 92.3028L121.035 81.8256C120.09 80.5282 115.33 73.4945 118.957 69.6594C120.098 68.4599 121.174 68.0274 122.16 68.2722C122.582 68.4352 122.968 68.6818 123.292 68.9973C123.617 69.3128 123.875 69.6906 124.051 70.1081L124.475 64.6574C124.481 64.5597 124.522 64.4676 124.591 64.3984C124.66 64.3293 124.752 64.2879 124.85 64.282L134.475 63.515C134.591 63.507 134.705 63.5452 134.793 63.6211C134.834 63.6613 134.866 63.7096 134.887 63.7631C134.908 63.8165 134.917 63.8738 134.915 63.9312C134.915 64.7961 134.1 85.1467 130.538 90.6137C129.145 92.7434 127.604 93.9756 125.958 94.2775C125.107 94.4406 124.226 94.3321 123.44 93.9674L121.557 97.8923C121.523 97.9699 121.465 98.0346 121.392 98.0772C121.319 98.1197 121.234 98.1378 121.15 98.1289Z" fill="#F5841F"/>
<path d="M132.503 74.5308C132.503 74.5308 136.048 82.6906 135.005 83.5066C133.962 84.3225 131.256 83.7106 131.256 83.7106" fill="white"/>
<path d="M133.212 84.347C132.524 84.3404 131.838 84.2611 131.166 84.1104C131.114 84.0988 131.064 84.0769 131.02 84.046C130.976 84.0151 130.938 83.9757 130.909 83.9302C130.881 83.8847 130.861 83.8339 130.852 83.7808C130.843 83.7277 130.844 83.6733 130.856 83.6208C130.868 83.5683 130.89 83.5188 130.921 83.475C130.952 83.4312 130.991 83.3941 131.037 83.3659C131.083 83.3377 131.133 83.3191 131.186 83.311C131.239 83.3029 131.294 83.3056 131.345 83.3189C132.323 83.5392 134.108 83.7024 134.752 83.1883C135.143 82.6253 133.717 78.3414 132.128 74.694C132.085 74.5944 132.083 74.4817 132.122 74.3807C132.162 74.2797 132.24 74.1987 132.34 74.1554C132.439 74.1121 132.552 74.1102 132.653 74.1499C132.754 74.1897 132.834 74.268 132.878 74.3676C134.247 77.5172 136.382 82.9272 135.257 83.8248C134.65 84.2156 133.932 84.3988 133.212 84.347Z" fill="#F5841F"/>
<path d="M129.716 73.1681C130.103 73.1681 130.416 72.2584 130.416 71.1363C130.416 70.0142 130.103 69.1045 129.716 69.1045C129.328 69.1045 129.015 70.0142 129.015 71.1363C129.015 72.2584 129.328 73.1681 129.716 73.1681Z" fill="#F5841F"/>
<path d="M58.1014 145.342H58.0118C52.698 144.118 47.8976 140.038 45.1674 134.432C36.6343 116.88 48.5904 99.1244 63.3093 90.0589C65.1593 88.9247 67.0827 87.8068 68.9409 86.7215C76.5449 82.3071 84.4259 77.7457 89.3159 70.4998C90.8591 68.0856 92.2212 65.56 93.3909 62.9438C94.4097 60.8305 95.461 58.6518 96.708 56.6037C100.677 50.0758 106.684 46.5018 113.22 46.7466C124.63 47.1628 132.853 53.8783 135.037 60.2919C135.062 60.3439 135.076 60.4006 135.077 60.4582C135.079 60.5159 135.068 60.5731 135.046 60.6263C135.023 60.6794 134.99 60.7272 134.948 60.7666C134.906 60.8059 134.856 60.8358 134.801 60.8544C134.747 60.873 134.689 60.8798 134.632 60.8743C134.574 60.8689 134.519 60.8514 134.469 60.8229C134.419 60.7944 134.375 60.7557 134.341 60.7091C134.307 60.6626 134.283 60.6094 134.271 60.553C131.574 52.4993 121.435 47.8482 113.228 47.5463C107.001 47.326 101.256 50.7694 97.4415 57.0198C96.219 59.019 95.1758 61.1895 94.1815 63.2866C92.9834 65.937 91.5914 68.4953 90.0168 70.9404C84.9964 78.3332 77.0502 82.9517 69.3647 87.4151C67.5065 88.4922 65.5913 89.6101 63.7494 90.7361C49.3402 99.6222 37.6042 116.962 45.9172 134.057C48.5333 139.442 53.1299 143.359 58.2074 144.534C58.2599 144.545 58.3097 144.567 58.3538 144.598C58.3978 144.629 58.4354 144.668 58.4641 144.714C58.4929 144.759 58.5124 144.81 58.5215 144.863C58.5306 144.916 58.5291 144.971 58.5171 145.023C58.4947 145.116 58.4412 145.198 58.3656 145.256C58.2899 145.314 58.1967 145.344 58.1014 145.342Z" fill="#F5841F"/>
<path d="M129.226 90.3608C128.941 90.3652 128.66 90.2949 128.411 90.1568C127.115 89.4795 127.914 86.3462 128.085 85.726C128.1 85.6666 128.129 85.6115 128.168 85.5648C128.208 85.5181 128.257 85.4811 128.313 85.4567C128.368 85.4306 128.428 85.4171 128.489 85.4171C128.549 85.4171 128.609 85.4306 128.664 85.4567L131.598 86.9908C131.652 87.0113 131.701 87.0429 131.741 87.0837C131.782 87.1245 131.814 87.1734 131.834 87.2273C131.855 87.2812 131.863 87.3388 131.86 87.3964C131.857 87.4539 131.841 87.5101 131.814 87.5612C131.788 87.6123 131.75 87.6571 131.705 87.6928C131.66 87.7284 131.608 87.7541 131.552 87.768C131.496 87.782 131.438 87.7839 131.381 87.7737C131.324 87.7635 131.271 87.7414 131.223 87.7088L128.778 86.4196C128.468 87.7823 128.411 89.2021 128.827 89.4224C128.924 89.4767 129.031 89.5105 129.142 89.5218C129.253 89.533 129.365 89.5214 129.471 89.4877C129.948 89.2502 130.334 88.8635 130.571 88.3861C130.595 88.3378 130.627 88.2947 130.667 88.2591C130.708 88.2235 130.754 88.1962 130.805 88.1788C130.856 88.1613 130.91 88.1541 130.963 88.1575C131.017 88.1608 131.069 88.1748 131.117 88.1984C131.165 88.2218 131.208 88.2547 131.244 88.2951C131.279 88.3355 131.306 88.3826 131.323 88.4337C131.339 88.4847 131.346 88.5386 131.341 88.5921C131.337 88.6456 131.321 88.6976 131.296 88.7451C130.962 89.4171 130.406 89.9531 129.723 90.2629C129.564 90.3232 129.396 90.3563 129.226 90.3608Z" fill="#F5841F"/>
</svg>
