<?xml version="1.0" encoding="UTF-8" standalone="no"?>
<!DOCTYPE svg PUBLIC "-//W3C//DTD SVG 1.1//EN" "http://www.w3.org/Graphics/SVG/1.1/DTD/svg11.dtd">
<svg width="100%" height="100%" viewBox="0 0 100 100" version="1.1" xmlns="http://www.w3.org/2000/svg" xmlns:xlink="http://www.w3.org/1999/xlink" xml:space="preserve" xmlns:serif="http://www.serif.com/" style="fill-rule:evenodd;clip-rule:evenodd;stroke-linejoin:round;stroke-miterlimit:2;">
    <g transform="matrix(1,0,0,1,-1480,-924)">
        <g id="WebTrit-Dialer" serif:id="WebTrit Dialer" transform="matrix(1,0,0,1,903,-558)">
            <rect x="577" y="1482" width="100" height="100" style="fill:none;"/>
            <clipPath id="_clip1">
                <rect x="577" y="1482" width="100" height="100"/>
            </clipPath>
            <g clip-path="url(#_clip1)">
                <g transform="matrix(0.555581,0,0,0.555581,599.221,1504.22)">
                    <g transform="matrix(4.16667,0,0,4.16667,-883.354,-607.229)">
                        <path d="M245.604,157.735C245.604,169.664 235.935,179.334 224.005,179.334C212.076,179.334 202.406,169.664 202.406,157.735C202.406,145.806 212.076,136.136 224.005,136.136C235.935,136.136 245.604,145.806 245.604,157.735Z" style="fill:rgb(245,132,31);fill-rule:nonzero;"/>
                    </g>
                    <g id="base-logo" serif:id="base logo" transform="matrix(3.60005,0,0,3.60005,-27.4006,-27.4657)">
                        <g id="_4hgQa5">
                            <path d="M25.54,37.52C20.91,37.52 16.54,33.39 13.62,30.58L13,30L12.45,29.42C8.39,25.15 1.61,18 8.37,11.27C10.18,9.46 12.37,9.58 14.49,11.58C15.67,12.71 17.05,14.69 17.07,16.58C17.097,17.458 16.76,18.308 16.14,18.93C15.817,19.239 15.465,19.517 15.09,19.76C14.27,20.33 14.21,20.44 14.27,20.62C15.167,22.349 16.324,23.931 17.7,25.31C19.079,26.686 20.661,27.843 22.39,28.74C22.57,28.8 22.69,28.74 23.25,27.92C23.5,27.566 23.778,27.231 24.08,26.92C24.704,26.305 25.554,25.972 26.43,26C28.29,26 30.27,27.4 31.43,28.58C33.43,30.67 33.55,32.9 31.74,34.7C30.149,36.45 27.905,37.471 25.54,37.52ZM11.17,12.23C10.695,12.257 10.252,12.482 9.95,12.85C5.12,17.67 8.95,22.5 14.05,27.85L14.62,28.45L15.16,28.96C20.52,34.06 25.35,37.89 30.16,33.06C30.83,32.39 31.25,31.56 29.81,30.06C28.925,29.07 27.736,28.402 26.43,28.16C26.148,28.128 25.867,28.237 25.68,28.45C25.463,28.678 25.269,28.925 25.1,29.19C24.53,30.01 23.47,31.54 21.54,30.79L21.41,30.72C19.46,29.716 17.679,28.413 16.13,26.86C14.575,25.311 13.269,23.529 12.26,21.58L12.2,21.44C11.45,19.51 12.97,18.44 13.8,17.88C14.061,17.706 14.308,17.512 14.54,17.3C14.738,17.107 14.84,16.836 14.82,16.56C14.598,15.268 13.958,14.084 13,13.19C12.54,12.642 11.882,12.297 11.17,12.23Z" style="fill:white;fill-rule:nonzero;"/>
                        </g>
                        <path d="M27,19.34L24.74,19.34C24.735,18.761 24.259,18.285 23.68,18.28L23.68,16.05C23.687,16.05 23.693,16.05 23.7,16.05C25.507,16.05 26.995,17.533 27,19.34Z" style="fill:white;fill-rule:nonzero;"/>
                        <path d="M32.3,19.34L30.07,19.34C30.037,15.859 27.171,13.011 23.69,13L23.69,10.72C28.415,10.725 32.3,14.615 32.3,19.34Z" style="fill:white;fill-rule:nonzero;"/>
                        <path d="M37.5,19.33L35.27,19.33C35.265,12.979 30.041,7.755 23.69,7.75L23.69,5.52C31.264,5.525 37.495,11.756 37.5,19.33Z" style="fill:white;fill-rule:nonzero;"/>
                    </g>
                </g>
            </g>
        </g>
    </g>
</svg>
