<svg width="139" height="166" viewBox="0 0 139 166" fill="none" xmlns="http://www.w3.org/2000/svg">
<path d="M58.8625 0.396454H10.4745C5.07666 0.396454 0.700806 4.79343 0.700806 10.2174V122.582C0.700806 128.006 5.07666 132.403 10.4745 132.403H58.8625C64.2604 132.403 68.6363 128.006 68.6363 122.582V10.2174C68.6363 4.79343 64.2604 0.396454 58.8625 0.396454Z" fill="#0D569F"/>
<path d="M57.8642 2.05597H11.4852C6.27111 2.05597 2.04425 6.30324 2.04425 11.5425V121.034C2.04425 126.273 6.27111 130.521 11.4852 130.521H57.8642C63.0783 130.521 67.3052 126.273 67.3052 121.034V11.5425C67.3052 6.30324 63.0783 2.05597 57.8642 2.05597Z" fill="#473F47"/>
<path d="M65.518 12.6324V118.656C65.492 121.058 64.5182 123.352 62.8104 125.033C61.1026 126.714 58.8005 127.646 56.4099 127.623H12.9642C11.3714 127.609 9.80902 127.183 8.42859 126.384C7.04478 125.615 5.8903 124.489 5.08432 123.122C4.27835 121.754 3.85007 120.196 3.84369 118.607V12.6324C3.86971 10.2269 4.84486 7.93015 6.55496 6.24663C8.26506 4.5631 10.5703 3.63047 12.9642 3.65359H20.3592V4.96635C20.3685 5.81793 20.6287 6.64766 21.1069 7.35079C21.5851 8.05391 22.2599 8.59892 23.0461 8.91701C23.5747 9.13165 24.1398 9.24101 24.7099 9.23901H44.9353C45.5083 9.24555 46.0769 9.13862 46.6087 8.92432C47.1406 8.71002 47.6252 8.39255 48.0349 7.99004C48.4447 7.58753 48.7715 7.10786 48.9967 6.57843C49.222 6.049 49.3412 5.48017 49.3476 4.90442V3.66597H56.4592C58.7917 3.65825 61.0394 4.54398 62.7449 6.14288C63.6249 6.97598 64.3252 7.98191 64.8022 9.09824C65.2792 10.2146 65.5229 11.4175 65.518 12.6324Z" fill="white"/>
<path d="M65.5181 12.6324V118.656C65.492 121.058 64.5182 123.352 62.8104 125.033C61.1026 126.714 58.8005 127.646 56.4099 127.623H12.9642C11.3714 127.609 9.80903 127.183 8.42861 126.384C7.54458 125.555 6.83913 124.552 6.35581 123.438C5.87249 122.324 5.62155 121.122 5.6185 119.907V13.9327C5.63138 12.7422 5.87751 11.5659 6.34285 10.471C6.80818 9.37605 7.48359 8.38395 8.33052 7.55133C9.17745 6.71871 10.1793 6.06188 11.2789 5.61834C12.3785 5.17481 13.5542 4.95325 14.739 4.96633H20.2853C20.3005 5.82652 20.5715 6.66244 21.0635 7.36651C21.5556 8.07059 22.246 8.61058 23.0461 8.917C23.4611 9.42023 23.9806 9.82619 24.5683 10.1064C25.1559 10.3867 25.7973 10.5345 26.4478 10.5394H46.6731C47.2481 10.5476 47.8191 10.4414 48.3532 10.2271C48.8872 10.0128 49.3739 9.69445 49.7851 9.29046C50.1963 8.88648 50.524 8.4048 50.7492 7.87312C50.9745 7.34144 51.093 6.77025 51.0978 6.1924V4.95395H58.2093C59.7936 4.97256 61.3467 5.39895 62.7203 6.1924C63.5987 7.01765 64.3 8.01459 64.7811 9.12203C65.2622 10.2295 65.513 11.424 65.5181 12.6324Z" fill="#B4B7CC"/>
<rect x="8" y="12" width="55" height="15" rx="5" fill="#1565C0"/>
<rect x="8" y="40" width="55" height="85" rx="5" fill="white"/>
<circle cx="14.8256" cy="48.8256" r="4.82561" fill="#1565C0"/>
<circle cx="14.8256" cy="74.8256" r="4.82561" fill="#1565C0"/>
<circle cx="14.8256" cy="87.8256" r="4.82561" fill="#1565C0"/>
<circle cx="14.8256" cy="100.826" r="4.82561" fill="#1565C0"/>
<circle cx="14.8256" cy="113.826" r="4.82561" fill="#1565C0"/>
<circle cx="14.8256" cy="61.8256" r="4.82561" fill="#1565C0"/>
<rect x="22" y="46" width="36" height="2" fill="#C4C4C4"/>
<rect x="22" y="72" width="36" height="2" fill="#C4C4C4"/>
<rect x="22" y="85" width="36" height="2" fill="#C4C4C4"/>
<rect x="22" y="98" width="36" height="2" fill="#C4C4C4"/>
<rect x="22" y="111" width="36" height="2" fill="#C4C4C4"/>
<rect x="22" y="59" width="14" height="2" fill="#C4C4C4"/>
<rect x="22" y="50" width="36" height="2" fill="#C4C4C4"/>
<rect x="22" y="76" width="36" height="2" fill="#C4C4C4"/>
<rect x="22" y="89" width="36" height="2" fill="#C4C4C4"/>
<rect x="22" y="102" width="36" height="2" fill="#C4C4C4"/>
<rect x="22" y="115" width="36" height="2" fill="#C4C4C4"/>
<rect x="22" y="63" width="14" height="2" fill="#C4C4C4"/>
<rect x="43" y="105" width="17" height="17" rx="8.5" fill="#EF6C00"/>
<path d="M51.5 116.125C51.0875 116.125 50.75 116.462 50.75 116.875C50.75 117.287 51.0875 117.625 51.5 117.625C51.9125 117.625 52.25 117.287 52.25 116.875C52.25 116.462 51.9125 116.125 51.5 116.125ZM49.25 109.375C48.8375 109.375 48.5 109.712 48.5 110.125C48.5 110.537 48.8375 110.875 49.25 110.875C49.6625 110.875 50 110.537 50 110.125C50 109.712 49.6625 109.375 49.25 109.375ZM49.25 111.625C48.8375 111.625 48.5 111.962 48.5 112.375C48.5 112.787 48.8375 113.125 49.25 113.125C49.6625 113.125 50 112.787 50 112.375C50 111.962 49.6625 111.625 49.25 111.625ZM49.25 113.875C48.8375 113.875 48.5 114.212 48.5 114.625C48.5 115.037 48.8375 115.375 49.25 115.375C49.6625 115.375 50 115.037 50 114.625C50 114.212 49.6625 113.875 49.25 113.875ZM53.75 110.875C54.1625 110.875 54.5 110.537 54.5 110.125C54.5 109.712 54.1625 109.375 53.75 109.375C53.3375 109.375 53 109.712 53 110.125C53 110.537 53.3375 110.875 53.75 110.875ZM51.5 113.875C51.0875 113.875 50.75 114.212 50.75 114.625C50.75 115.037 51.0875 115.375 51.5 115.375C51.9125 115.375 52.25 115.037 52.25 114.625C52.25 114.212 51.9125 113.875 51.5 113.875ZM53.75 113.875C53.3375 113.875 53 114.212 53 114.625C53 115.037 53.3375 115.375 53.75 115.375C54.1625 115.375 54.5 115.037 54.5 114.625C54.5 114.212 54.1625 113.875 53.75 113.875ZM53.75 111.625C53.3375 111.625 53 111.962 53 112.375C53 112.787 53.3375 113.125 53.75 113.125C54.1625 113.125 54.5 112.787 54.5 112.375C54.5 111.962 54.1625 111.625 53.75 111.625ZM51.5 111.625C51.0875 111.625 50.75 111.962 50.75 112.375C50.75 112.787 51.0875 113.125 51.5 113.125C51.9125 113.125 52.25 112.787 52.25 112.375C52.25 111.962 51.9125 111.625 51.5 111.625ZM51.5 109.375C51.0875 109.375 50.75 109.712 50.75 110.125C50.75 110.537 51.0875 110.875 51.5 110.875C51.9125 110.875 52.25 110.537 52.25 110.125C52.25 109.712 51.9125 109.375 51.5 109.375Z" fill="white"/>
<path d="M39.6089 61.4622C40.2489 62.72 41.28 63.7467 42.5378 64.3911L43.5156 63.4133C43.6356 63.2933 43.8133 63.2533 43.9689 63.3067C44.4667 63.4711 45.0044 63.56 45.5556 63.56C45.8 63.56 46 63.76 46 64.0044V65.5556C46 65.8 45.8 66 45.5556 66C41.3822 66 38 62.6178 38 58.4444C38 58.2 38.2 58 38.4444 58H40C40.2444 58 40.4444 58.2 40.4444 58.4444C40.4444 59 40.5333 59.5333 40.6978 60.0311C40.7467 60.1867 40.7111 60.36 40.5867 60.4844L39.6089 61.4622Z" fill="#1565C0"/>
<path d="M56 61.25V59.5C56 59.225 55.775 59 55.5 59H49.5C49.225 59 49 59.225 49 59.5V64.5C49 64.775 49.225 65 49.5 65H55.5C55.775 65 56 64.775 56 64.5V62.75L58 64.75V59.25L56 61.25Z" fill="#1565C0"/>
<path d="M11.1079 33.8159C11.0802 34.1984 10.9386 34.4995 10.6831 34.7192C10.4292 34.939 10.0939 35.0488 9.67725 35.0488C9.22152 35.0488 8.86263 34.8958 8.60059 34.5898C8.34017 34.2822 8.20996 33.8607 8.20996 33.3252V33.1079C8.20996 32.7661 8.27018 32.465 8.39062 32.2046C8.51107 31.9442 8.68278 31.7448 8.90576 31.6064C9.13037 31.4665 9.39079 31.3965 9.68701 31.3965C10.0972 31.3965 10.4276 31.5063 10.6782 31.7261C10.9289 31.9458 11.0737 32.2542 11.1128 32.6514H10.3804C10.3625 32.4219 10.2982 32.2559 10.1875 32.1533C10.0785 32.0492 9.91162 31.9971 9.68701 31.9971C9.44287 31.9971 9.25977 32.085 9.1377 32.2607C9.01725 32.4349 8.9554 32.7059 8.95215 33.0737V33.3423C8.95215 33.7264 9.00993 34.0072 9.12549 34.1846C9.24268 34.362 9.4266 34.4507 9.67725 34.4507C9.90348 34.4507 10.0719 34.3994 10.1826 34.2969C10.2949 34.1927 10.3592 34.0324 10.3755 33.8159H11.1079ZM11.4326 33.6548C11.4326 33.3927 11.4831 33.1592 11.584 32.9541C11.6849 32.749 11.8298 32.5903 12.0186 32.478C12.209 32.3657 12.4295 32.3096 12.6802 32.3096C13.0366 32.3096 13.3271 32.4186 13.5518 32.6367C13.778 32.8548 13.9041 33.151 13.9302 33.5254L13.9351 33.7061C13.9351 34.1113 13.8219 34.4368 13.5957 34.6826C13.3695 34.9268 13.0659 35.0488 12.6851 35.0488C12.3042 35.0488 11.9998 34.9268 11.772 34.6826C11.5457 34.4385 11.4326 34.1064 11.4326 33.6865V33.6548ZM12.1382 33.7061C12.1382 33.9567 12.1854 34.1488 12.2798 34.2822C12.3742 34.4141 12.5093 34.48 12.6851 34.48C12.856 34.48 12.9894 34.4149 13.0854 34.2847C13.1815 34.1528 13.2295 33.9429 13.2295 33.6548C13.2295 33.409 13.1815 33.2186 13.0854 33.0835C12.9894 32.9484 12.8543 32.8809 12.6802 32.8809C12.5076 32.8809 12.3742 32.9484 12.2798 33.0835C12.1854 33.217 12.1382 33.4245 12.1382 33.7061ZM15.019 32.3584L15.041 32.6636C15.2298 32.4276 15.4829 32.3096 15.8003 32.3096C16.0802 32.3096 16.2886 32.3918 16.4253 32.5562C16.562 32.7205 16.632 32.9663 16.6353 33.2935V35H15.9297V33.3105C15.9297 33.1608 15.8971 33.0526 15.832 32.9858C15.7669 32.9175 15.6587 32.8833 15.5073 32.8833C15.3088 32.8833 15.1598 32.9679 15.0605 33.1372V35H14.355V32.3584H15.019ZM18.0171 31.709V32.3584H18.4688V32.876H18.0171V34.1943C18.0171 34.292 18.0358 34.362 18.0732 34.4043C18.1107 34.4466 18.1823 34.4678 18.2881 34.4678C18.3662 34.4678 18.4354 34.4621 18.4956 34.4507V34.9854C18.3573 35.0277 18.2148 35.0488 18.0684 35.0488C17.5736 35.0488 17.3213 34.799 17.3115 34.2993V32.876H16.9258V32.3584H17.3115V31.709H18.0171ZM20.3926 35C20.36 34.9365 20.3364 34.8576 20.3218 34.7632C20.1509 34.9536 19.9287 35.0488 19.6553 35.0488C19.3965 35.0488 19.1816 34.974 19.0107 34.8242C18.8415 34.6745 18.7568 34.4857 18.7568 34.2578C18.7568 33.9779 18.8602 33.763 19.0669 33.6133C19.2752 33.4635 19.5755 33.3879 19.9678 33.3862H20.2925V33.2349C20.2925 33.1128 20.2607 33.0151 20.1973 32.9419C20.1354 32.8687 20.0369 32.832 19.9019 32.832C19.783 32.832 19.6895 32.8605 19.6211 32.9175C19.5544 32.9744 19.521 33.0526 19.521 33.1519H18.8154C18.8154 32.9989 18.8626 32.8573 18.957 32.7271C19.0514 32.5968 19.1849 32.4951 19.3574 32.4219C19.5299 32.347 19.7236 32.3096 19.9385 32.3096C20.264 32.3096 20.522 32.3918 20.7124 32.5562C20.9045 32.7189 21.0005 32.9484 21.0005 33.2446V34.3896C21.0021 34.6403 21.0371 34.8299 21.1055 34.9585V35H20.3926ZM19.8091 34.5093C19.9132 34.5093 20.0093 34.4865 20.0972 34.4409C20.1851 34.3937 20.2502 34.3311 20.2925 34.2529V33.7988H20.0288C19.6756 33.7988 19.4876 33.9209 19.4648 34.165L19.4624 34.2065C19.4624 34.2944 19.4933 34.3669 19.5552 34.4238C19.617 34.4808 19.7017 34.5093 19.8091 34.5093ZM22.6411 34.48C22.7713 34.48 22.8771 34.4442 22.9585 34.3726C23.0399 34.3009 23.0822 34.2057 23.0854 34.0869H23.7471C23.7454 34.266 23.6966 34.4303 23.6006 34.5801C23.5046 34.7282 23.3727 34.8438 23.2051 34.9268C23.0391 35.0081 22.8551 35.0488 22.6533 35.0488C22.2757 35.0488 21.9779 34.9292 21.7598 34.6899C21.5417 34.4491 21.4326 34.117 21.4326 33.6938V33.6475C21.4326 33.2406 21.5409 32.9159 21.7573 32.6733C21.9738 32.4308 22.2708 32.3096 22.6484 32.3096C22.9788 32.3096 23.2433 32.404 23.4419 32.5928C23.6421 32.7799 23.7438 33.0298 23.7471 33.3423H23.0854C23.0822 33.2056 23.0399 33.0949 22.9585 33.0103C22.8771 32.924 22.7697 32.8809 22.6362 32.8809C22.4718 32.8809 22.3473 32.9411 22.2627 33.0615C22.1797 33.1803 22.1382 33.374 22.1382 33.6426V33.7158C22.1382 33.9876 22.1797 34.1829 22.2627 34.3018C22.3457 34.4206 22.4718 34.48 22.6411 34.48ZM24.9946 31.709V32.3584H25.4463V32.876H24.9946V34.1943C24.9946 34.292 25.0133 34.362 25.0508 34.4043C25.0882 34.4466 25.1598 34.4678 25.2656 34.4678C25.3438 34.4678 25.4129 34.4621 25.4731 34.4507V34.9854C25.3348 35.0277 25.1924 35.0488 25.0459 35.0488C24.5511 35.0488 24.2988 34.799 24.2891 34.2993V32.876H23.9033V32.3584H24.2891V31.709H24.9946ZM27.27 34.27C27.27 34.1838 27.2269 34.1162 27.1406 34.0674C27.056 34.0169 26.9193 33.9722 26.7305 33.9331C26.1022 33.8013 25.7881 33.5343 25.7881 33.1323C25.7881 32.8979 25.8849 32.7026 26.0786 32.5464C26.2739 32.3885 26.5286 32.3096 26.8428 32.3096C27.1781 32.3096 27.4458 32.3885 27.646 32.5464C27.8478 32.7043 27.9487 32.9093 27.9487 33.1616H27.2432C27.2432 33.0607 27.2106 32.9777 27.1455 32.9126C27.0804 32.8459 26.9787 32.8125 26.8403 32.8125C26.7215 32.8125 26.6296 32.8394 26.5645 32.8931C26.4993 32.9468 26.4668 33.0151 26.4668 33.0981C26.4668 33.1763 26.5034 33.2397 26.5767 33.2886C26.6515 33.3358 26.7769 33.3773 26.9526 33.4131C27.1284 33.4473 27.2765 33.4863 27.397 33.5303C27.7697 33.667 27.9561 33.9038 27.9561 34.2407C27.9561 34.4816 27.8527 34.6769 27.646 34.8267C27.4393 34.9748 27.1724 35.0488 26.8452 35.0488C26.6239 35.0488 26.4269 35.0098 26.2544 34.9316C26.0835 34.8519 25.9492 34.7437 25.8516 34.6069C25.7539 34.4686 25.7051 34.3197 25.7051 34.1602H26.374C26.3805 34.2855 26.4269 34.3815 26.5132 34.4482C26.5994 34.515 26.715 34.5483 26.8599 34.5483C26.995 34.5483 27.0967 34.5231 27.165 34.4727C27.235 34.4206 27.27 34.353 27.27 34.27Z" fill="white"/>
<path d="M35.6333 33.6987H35.0498V35H34.3174V31.4453H35.6382C36.0581 31.4453 36.382 31.5389 36.6099 31.7261C36.8377 31.9132 36.9517 32.1777 36.9517 32.5195C36.9517 32.762 36.8988 32.9647 36.793 33.1274C36.6888 33.2886 36.5301 33.4172 36.3169 33.5132L37.0859 34.9658V35H36.2998L35.6333 33.6987ZM35.0498 33.1055H35.6406C35.8245 33.1055 35.967 33.0591 36.0679 32.9663C36.1688 32.8719 36.2192 32.7425 36.2192 32.5781C36.2192 32.4105 36.1712 32.2786 36.0752 32.1826C35.9808 32.0866 35.8351 32.0386 35.6382 32.0386H35.0498V33.1055ZM38.6802 35.0488C38.2928 35.0488 37.9771 34.93 37.7329 34.6924C37.4904 34.4548 37.3691 34.1382 37.3691 33.7427V33.6743C37.3691 33.409 37.4204 33.1722 37.5229 32.9639C37.6255 32.7539 37.7703 32.5928 37.9575 32.4805C38.1463 32.3665 38.3612 32.3096 38.6021 32.3096C38.9634 32.3096 39.2474 32.4235 39.4541 32.6514C39.6624 32.8792 39.7666 33.2023 39.7666 33.6206V33.9087H38.0845C38.1073 34.0812 38.1756 34.2196 38.2896 34.3237C38.4051 34.4279 38.5508 34.48 38.7266 34.48C38.9984 34.48 39.2108 34.3815 39.3638 34.1846L39.7104 34.5728C39.6047 34.7225 39.4614 34.8397 39.2808 34.9243C39.1001 35.0073 38.8999 35.0488 38.6802 35.0488ZM38.5996 32.8809C38.4596 32.8809 38.3457 32.9281 38.2578 33.0225C38.1715 33.1169 38.1162 33.252 38.0918 33.4277H39.0732V33.3716C39.07 33.2153 39.0277 33.0949 38.9463 33.0103C38.8649 32.924 38.7493 32.8809 38.5996 32.8809ZM41.2681 34.48C41.3983 34.48 41.5041 34.4442 41.5854 34.3726C41.6668 34.3009 41.7091 34.2057 41.7124 34.0869H42.374C42.3724 34.266 42.3236 34.4303 42.2275 34.5801C42.1315 34.7282 41.9997 34.8438 41.832 34.9268C41.666 35.0081 41.4821 35.0488 41.2803 35.0488C40.9027 35.0488 40.6048 34.9292 40.3867 34.6899C40.1686 34.4491 40.0596 34.117 40.0596 33.6938V33.6475C40.0596 33.2406 40.1678 32.9159 40.3843 32.6733C40.6007 32.4308 40.8978 32.3096 41.2754 32.3096C41.6058 32.3096 41.8703 32.404 42.0688 32.5928C42.269 32.7799 42.3708 33.0298 42.374 33.3423H41.7124C41.7091 33.2056 41.6668 33.0949 41.5854 33.0103C41.5041 32.924 41.3966 32.8809 41.2632 32.8809C41.0988 32.8809 40.9743 32.9411 40.8896 33.0615C40.8066 33.1803 40.7651 33.374 40.7651 33.6426V33.7158C40.7651 33.9876 40.8066 34.1829 40.8896 34.3018C40.9727 34.4206 41.0988 34.48 41.2681 34.48ZM43.9927 35.0488C43.6053 35.0488 43.2896 34.93 43.0454 34.6924C42.8029 34.4548 42.6816 34.1382 42.6816 33.7427V33.6743C42.6816 33.409 42.7329 33.1722 42.8354 32.9639C42.938 32.7539 43.0828 32.5928 43.27 32.4805C43.4588 32.3665 43.6737 32.3096 43.9146 32.3096C44.2759 32.3096 44.5599 32.4235 44.7666 32.6514C44.9749 32.8792 45.0791 33.2023 45.0791 33.6206V33.9087H43.397C43.4198 34.0812 43.4881 34.2196 43.6021 34.3237C43.7176 34.4279 43.8633 34.48 44.0391 34.48C44.3109 34.48 44.5233 34.3815 44.6763 34.1846L45.0229 34.5728C44.9172 34.7225 44.7739 34.8397 44.5933 34.9243C44.4126 35.0073 44.2124 35.0488 43.9927 35.0488ZM43.9121 32.8809C43.7721 32.8809 43.6582 32.9281 43.5703 33.0225C43.484 33.1169 43.4287 33.252 43.4043 33.4277H44.3857V33.3716C44.3825 33.2153 44.3402 33.0949 44.2588 33.0103C44.1774 32.924 44.0618 32.8809 43.9121 32.8809ZM46.1313 32.3584L46.1533 32.6636C46.3421 32.4276 46.5952 32.3096 46.9126 32.3096C47.1925 32.3096 47.4009 32.3918 47.5376 32.5562C47.6743 32.7205 47.7443 32.9663 47.7476 33.2935V35H47.042V33.3105C47.042 33.1608 47.0094 33.0526 46.9443 32.9858C46.8792 32.9175 46.771 32.8833 46.6196 32.8833C46.4211 32.8833 46.2721 32.9679 46.1729 33.1372V35H45.4673V32.3584H46.1313ZM49.1294 31.709V32.3584H49.5811V32.876H49.1294V34.1943C49.1294 34.292 49.1481 34.362 49.1855 34.4043C49.223 34.4466 49.2946 34.4678 49.4004 34.4678C49.4785 34.4678 49.5477 34.4621 49.6079 34.4507V34.9854C49.4696 35.0277 49.3271 35.0488 49.1807 35.0488C48.6859 35.0488 48.4336 34.799 48.4238 34.2993V32.876H48.0381V32.3584H48.4238V31.709H49.1294ZM54.0562 33.8159C54.0285 34.1984 53.8869 34.4995 53.6313 34.7192C53.3774 34.939 53.0422 35.0488 52.6255 35.0488C52.1698 35.0488 51.8109 34.8958 51.5488 34.5898C51.2884 34.2822 51.1582 33.8607 51.1582 33.3252V33.1079C51.1582 32.7661 51.2184 32.465 51.3389 32.2046C51.4593 31.9442 51.631 31.7448 51.854 31.6064C52.0786 31.4665 52.339 31.3965 52.6353 31.3965C53.0454 31.3965 53.3758 31.5063 53.6265 31.7261C53.8771 31.9458 54.022 32.2542 54.061 32.6514H53.3286C53.3107 32.4219 53.2464 32.2559 53.1357 32.1533C53.0267 32.0492 52.8599 31.9971 52.6353 31.9971C52.3911 31.9971 52.208 32.085 52.0859 32.2607C51.9655 32.4349 51.9036 32.7059 51.9004 33.0737V33.3423C51.9004 33.7264 51.9582 34.0072 52.0737 34.1846C52.1909 34.362 52.3748 34.4507 52.6255 34.4507C52.8517 34.4507 53.0202 34.3994 53.1309 34.2969C53.2432 34.1927 53.3075 34.0324 53.3237 33.8159H54.0562ZM56.0215 35C55.9889 34.9365 55.9653 34.8576 55.9507 34.7632C55.7798 34.9536 55.5576 35.0488 55.2842 35.0488C55.0254 35.0488 54.8105 34.974 54.6396 34.8242C54.4704 34.6745 54.3857 34.4857 54.3857 34.2578C54.3857 33.9779 54.4891 33.763 54.6958 33.6133C54.9041 33.4635 55.2044 33.3879 55.5967 33.3862H55.9214V33.2349C55.9214 33.1128 55.8896 33.0151 55.8262 32.9419C55.7643 32.8687 55.6659 32.832 55.5308 32.832C55.4119 32.832 55.3184 32.8605 55.25 32.9175C55.1833 32.9744 55.1499 33.0526 55.1499 33.1519H54.4443C54.4443 32.9989 54.4915 32.8573 54.5859 32.7271C54.6803 32.5968 54.8138 32.4951 54.9863 32.4219C55.1589 32.347 55.3525 32.3096 55.5674 32.3096C55.8929 32.3096 56.1509 32.3918 56.3413 32.5562C56.5334 32.7189 56.6294 32.9484 56.6294 33.2446V34.3896C56.631 34.6403 56.666 34.8299 56.7344 34.9585V35H56.0215ZM55.438 34.5093C55.5422 34.5093 55.6382 34.4865 55.7261 34.4409C55.814 34.3937 55.8791 34.3311 55.9214 34.2529V33.7988H55.6577C55.3045 33.7988 55.1165 33.9209 55.0938 34.165L55.0913 34.2065C55.0913 34.2944 55.1222 34.3669 55.1841 34.4238C55.2459 34.4808 55.3306 34.5093 55.438 34.5093ZM57.916 35H57.208V31.25H57.916V35ZM59.2441 35H58.5361V31.25H59.2441V35ZM61.2583 34.27C61.2583 34.1838 61.2152 34.1162 61.1289 34.0674C61.0443 34.0169 60.9076 33.9722 60.7188 33.9331C60.0905 33.8013 59.7764 33.5343 59.7764 33.1323C59.7764 32.8979 59.8732 32.7026 60.0669 32.5464C60.2622 32.3885 60.5169 32.3096 60.8311 32.3096C61.1663 32.3096 61.4341 32.3885 61.6343 32.5464C61.8361 32.7043 61.937 32.9093 61.937 33.1616H61.2314C61.2314 33.0607 61.1989 32.9777 61.1338 32.9126C61.0687 32.8459 60.967 32.8125 60.8286 32.8125C60.7098 32.8125 60.6178 32.8394 60.5527 32.8931C60.4876 32.9468 60.4551 33.0151 60.4551 33.0981C60.4551 33.1763 60.4917 33.2397 60.5649 33.2886C60.6398 33.3358 60.7651 33.3773 60.9409 33.4131C61.1167 33.4473 61.2648 33.4863 61.3853 33.5303C61.758 33.667 61.9443 33.9038 61.9443 34.2407C61.9443 34.4816 61.841 34.6769 61.6343 34.8267C61.4276 34.9748 61.1606 35.0488 60.8335 35.0488C60.6121 35.0488 60.4152 35.0098 60.2427 34.9316C60.0718 34.8519 59.9375 34.7437 59.8398 34.6069C59.7422 34.4686 59.6934 34.3197 59.6934 34.1602H60.3623C60.3688 34.2855 60.4152 34.3815 60.5015 34.4482C60.5877 34.515 60.7033 34.5483 60.8481 34.5483C60.9832 34.5483 61.085 34.5231 61.1533 34.4727C61.2233 34.4206 61.2583 34.353 61.2583 34.27Z" fill="#8B8FAF"/>
<path d="M95.4176 161.064C112.216 161.064 125.833 156.572 125.833 151.032C125.833 145.491 112.216 141 95.4176 141C78.6197 141 65.0023 145.491 65.0023 151.032C65.0023 156.572 78.6197 161.064 95.4176 161.064Z" fill="#0C5399"/>
<path d="M87.8131 145.238C87.8487 146.227 87.6773 147.212 87.3118 148.119C86.8675 148.964 86.2007 149.645 85.3977 150.072C83.664 151.051 81.6512 151.265 79.777 150.669C79.521 150.62 79.2895 150.473 79.1237 150.255C79.0316 150.067 78.9895 149.855 79.0022 149.642C79.1632 148.509 79.7046 147.483 80.5213 146.761C81.3257 146.047 82.0139 145.191 82.5569 144.227C83.4076 142.323 82.7696 137.29 86.0509 138.084C88.7397 138.763 87.889 143.135 87.8131 145.238Z" fill="#E9A590"/>
<path d="M88.8209 149.123C88.8209 149.123 89.289 150.145 88.7117 150.744C88.1343 151.344 82.0798 154.628 78.007 151.984C73.9342 149.341 83.531 149 83.531 149L88.8209 149.123Z" fill="#1976D2"/>
<path d="M88.6222 145.494C88.4288 145.399 88.2087 145.377 88.0007 145.431C87.7927 145.485 87.6104 145.612 87.486 145.79C87.0723 146.242 86.5558 146.584 85.9815 146.788C85.4072 146.992 84.7925 147.05 84.191 146.958C82.8113 146.612 82.2594 145 81.5777 145C80.8959 145 77.2276 148.142 77.0166 149.508C76.8056 150.873 78.6397 151.86 80.7499 151.992C82.86 152.123 87.5022 150.676 88.395 149.573C88.7485 148.96 88.9535 148.27 88.993 147.561C89.0325 146.852 88.9054 146.143 88.6222 145.494Z" fill="white"/>
<path d="M99.854 147.232C99.8898 148.222 99.7176 149.208 99.3504 150.116C98.9086 150.966 98.2375 151.648 97.4275 152.072C95.6859 153.051 93.6639 153.265 91.7811 152.668C91.5239 152.619 91.2913 152.472 91.1248 152.254C91.0307 152.066 90.9883 151.854 91.0028 151.641C91.1645 150.507 91.7084 149.479 92.5288 148.757C93.3369 148.042 94.0283 147.185 94.5738 146.221C95.4284 144.314 94.7874 139.276 98.0837 140.088C100.754 140.718 99.854 145.093 99.854 147.232Z" fill="#E9A590"/>
<path d="M100.806 150.153C100.806 150.153 101.313 151.431 100.688 152.18C100.062 152.93 93.5039 157.035 89.0922 153.731C84.6805 150.426 95.0589 150 95.0589 150L100.806 150.153Z" fill="#1976D2"/>
<path d="M100.642 147.428C100.449 147.333 100.23 147.311 100.023 147.365C99.8166 147.419 99.6352 147.546 99.5115 147.724C99.1004 148.203 98.5765 148.567 97.9889 148.783C97.4014 148.999 96.7697 149.059 96.1531 148.958C94.7807 148.612 94.2317 147 93.5536 147C92.8754 147 89.2264 150.142 89.0165 151.508C88.8066 152.873 90.6311 153.86 92.7301 153.992C94.8291 154.123 99.4469 152.676 100.335 151.573C100.71 150.959 100.934 150.261 100.988 149.539C101.041 148.817 100.922 148.093 100.642 147.428Z" fill="white"/>
<path d="M101.93 96.4428C101.93 96.4428 102.569 131.49 99.9956 143.193L93.5074 144L89 96L101.93 96.4428Z" fill="#473F47"/>
<path d="M82.2239 93C82.2239 93 79.071 111.945 82.886 142.179L89.4441 143L94 95.0366L82.2239 93Z" fill="#473F47"/>
<path d="M74.0004 78.167C74.0004 79.4455 74.5094 80.5643 75.6422 80.9319H75.9377C78.0391 81.3474 80.8629 79.7812 82.718 78.4227C83.5107 77.8602 84.2725 77.2573 85 76.6167V63L74.7885 73.1806C74.2538 74.7911 73.9877 76.4745 74.0004 78.167Z" fill="white"/>
<path d="M82.5892 77.5518C82.5892 78.1693 82.5892 78.8185 82.5892 79.4518C82.5892 82.9668 83.3951 86.5768 82.3521 90.0127C82.0176 90.7455 81.9183 91.5642 82.0677 92.356C82.3722 92.9877 82.8941 93.4881 83.5373 93.7652C86.7209 95.261 90.1463 96.1726 93.6511 96.4568C96.2585 96.821 99.9722 97.5968 102.39 96.1877C103.304 95.5003 103.916 94.4841 104.097 93.3535C105.012 89.7252 105.542 86.0101 105.677 82.2701C105.677 81.7793 105.677 81.3043 105.772 80.8135C105.972 77.4568 106.04 74.1001 105.977 70.7435C105.977 68.3209 105.74 65.6768 104.16 63.8401C101.607 61.3815 98.3646 59.7629 94.8679 59.2009C93.8583 59.0056 92.8265 58.9524 91.8022 59.0426C90.3557 59.2671 88.9597 59.744 87.6776 60.4518C86.1507 60.9675 84.8531 62.0042 84.0114 63.3809C83.1801 65.1378 82.6002 67.0034 82.2889 68.9226C82.0126 70.7256 81.9807 72.5577 82.1941 74.3693C82.2889 75.2718 82.5101 76.1426 82.605 77.0293C82.5892 77.2193 82.5892 77.3776 82.5892 77.5518Z" fill="white"/>
<path opacity="0.1" d="M97.2746 97.9397C98.2694 98.2455 100.57 97.2958 101.331 97.167C101.782 97.0704 102.202 96.845 102.653 96.7324C104.938 96.1368 105.202 89.5208 105.419 87.734C106.207 82.994 106.726 78.2103 106.974 73.4075C107.078 71.5871 106.872 69.762 106.368 68.015C106.113 67.1417 105.677 66.337 105.088 65.6582C104.5 64.9794 103.775 64.443 102.964 64.0872C100.057 62.9926 99.1864 72.5222 98.7823 74.5021L96.6062 85.2551C96.297 86.5768 96.0943 87.9229 96 89.2794C96.0536 90.9357 96.385 92.5698 96.9793 94.1085C97.2435 95.0422 96.5129 96.845 96.8704 97.5372C96.8991 97.6344 96.9512 97.7225 97.022 97.7929C97.0927 97.8633 97.1797 97.9139 97.2746 97.9397Z" fill="#020202"/>
<path d="M89.4795 56.6686C89.8487 57.0718 90.3482 57.326 90.8865 57.3847C91.3391 57.4243 91.7941 57.4243 92.2466 57.3847H92.5124C92.5461 57.377 92.5812 57.3776 92.6147 57.3863C92.6482 57.3951 92.6792 57.4118 92.7051 57.4351C92.731 57.4584 92.7512 57.4876 92.7639 57.5203C92.7766 57.5531 92.7815 57.5884 92.7782 57.6235C92.8563 58.5448 92.8563 59.4713 92.7782 60.3926V60.9019C92.7308 61.0736 92.7308 61.2553 92.7782 61.4271C92.9105 61.6131 93.1051 61.7433 93.3253 61.7931C93.7245 61.9249 94.1408 61.9946 94.5604 62C95.4533 61.9161 96.3123 61.61 97.0617 61.1088C96.9929 59.5128 97.0767 57.9138 97.3119 56.3344C97.7781 54.3592 98.0091 52.3341 97.9997 50.3027C97.9447 49.4981 97.6564 48.7282 97.1712 48.0906C96.7779 47.7136 96.3126 47.423 95.8043 47.2368C95.296 47.0506 94.7555 46.9729 94.2164 47.0084C92.7888 46.986 91.3843 47.3779 90.1674 48.1383C89.9823 48.2832 89.8315 48.4685 89.726 48.6806C89.6205 48.8927 89.563 49.1261 89.5577 49.3637C89.417 50.1595 89.2919 50.9552 89.1981 51.7668C89.1043 52.5785 89.0418 53.613 89.0262 54.536C88.9324 55.2788 89.0925 56.0318 89.4795 56.6686Z" fill="#E9A590"/>
<path d="M91.1812 48.7066L91.4076 48.7866C91.6059 48.8762 91.8204 48.9251 92.0383 48.9306C92.1451 48.9341 92.251 48.9093 92.3448 48.8587C92.4387 48.808 92.5171 48.7334 92.5719 48.6426C92.5526 48.717 92.5544 48.7953 92.5772 48.8687C92.6001 48.9421 92.643 49.0078 92.7013 49.0586C92.8235 49.1589 92.9673 49.23 93.1218 49.2665C93.377 49.3623 93.6431 49.4267 93.9142 49.4585C94.1793 49.4791 94.4431 49.4053 94.6581 49.2505C94.836 49.4745 95.1271 49.5865 95.305 49.8105C95.5409 50.0893 95.7219 50.4095 95.8386 50.7543C96.0727 51.4391 96.0727 52.1811 95.8386 52.866C96.2429 53.01 96.3238 52.3061 96.631 52.0021C96.9383 51.6982 97.6337 52.1141 97.6822 52.61C97.6542 53.1074 97.5043 53.5905 97.2455 54.0178C96.9868 54.5937 96.5663 57.9212 98.0703 56.7534C98.3436 56.4966 98.5395 56.1699 98.6363 55.8095L99.4934 53.4579C99.6328 53.4873 99.7782 53.4703 99.9069 53.4096C100.036 53.3488 100.14 53.2477 100.205 53.1219C100.259 52.9901 100.269 52.8447 100.234 52.7067C100.199 52.5687 100.121 52.4453 100.011 52.3541C100.154 52.4539 100.326 52.505 100.501 52.4998C100.676 52.4945 100.845 52.4331 100.982 52.3249C101.119 52.2166 101.216 52.0673 101.26 51.8995C101.303 51.7316 101.291 51.5543 101.224 51.3942C101.438 51.3636 101.634 51.258 101.777 51.0966C101.919 50.9352 101.998 50.7286 102 50.5144C101.982 50.3023 101.89 50.103 101.739 49.9511C101.589 49.7992 101.389 49.7042 101.175 49.6825C101.45 49.5849 101.674 49.3834 101.798 49.1224C101.922 48.8614 101.937 48.5622 101.838 48.2907C101.74 48.0192 101.536 47.7975 101.272 47.6745C101.008 47.5515 100.706 47.5372 100.431 47.6348C100.6 47.2463 100.629 46.8124 100.514 46.4052C100.4 45.9979 100.148 45.6415 99.8007 45.3951C99.3488 45.0138 98.7773 44.799 98.1835 44.7872C98.0703 44.7872 97.8439 44.7872 97.763 44.7872C97.6822 44.7872 97.6498 44.5153 97.6013 44.4513C97.4495 44.2175 97.2117 44.0511 96.9383 43.9874C96.7438 43.944 96.5411 43.9522 96.3509 44.0112C96.1606 44.0702 95.9895 44.1779 95.8548 44.3233C95.7732 44.0338 95.6194 43.7693 95.4075 43.5541C95.1955 43.3388 94.9323 43.1797 94.6419 43.0915C94.3495 43.0171 94.0401 43.045 93.766 43.1703C93.492 43.2957 93.2701 43.5108 93.1379 43.7794C92.8134 43.4782 92.4274 43.2491 92.0059 43.1075C91.7703 43.0132 91.5142 42.9801 91.262 43.0115C91.001 43.0885 90.7678 43.2379 90.5901 43.4421C90.4123 43.6462 90.2976 43.8966 90.2594 44.1633C90.1462 44.1633 90.0168 44.1633 89.8874 44.0834C89.744 44.0544 89.5948 44.0816 89.4712 44.1591C89.3475 44.2367 89.2591 44.3586 89.2244 44.4993C89.1933 44.6406 89.206 44.788 89.2608 44.9221C89.3156 45.0562 89.41 45.1709 89.5317 45.2512C89.3297 45.3374 89.164 45.4899 89.0627 45.6831C88.9818 45.8751 89.0627 46.163 89.3214 46.163C89.1795 46.2575 89.0757 46.3985 89.0284 46.5612C88.9811 46.724 88.9932 46.8979 89.0627 47.0527C89.1322 47.2074 89.2546 47.3329 89.4084 47.4072C89.5622 47.4815 89.7376 47.4998 89.9036 47.4588C89.8135 47.4731 89.7294 47.5121 89.6607 47.5716C89.5921 47.631 89.5417 47.7083 89.5155 47.7948C89.475 47.9631 89.475 48.1384 89.5155 48.3067C89.4993 48.3478 89.4993 48.3935 89.5155 48.4347C89.5384 48.4448 89.5632 48.4501 89.5883 48.4501C89.6134 48.4501 89.6382 48.4448 89.661 48.4347C90.0007 48.4347 90.4049 48.4347 90.5828 48.2107C90.5828 48.3547 90.7122 48.4667 90.8578 48.5147L91.1812 48.7066Z" fill="#473F47"/>
<path d="M92.0993 57.7045H92.4371C92.48 57.6986 92.5245 57.699 92.5671 57.7057C92.6096 57.7123 92.649 57.7251 92.682 57.7429C92.7149 57.7607 92.7405 57.7829 92.7567 57.8079C92.7728 57.8329 92.779 57.8599 92.7748 57.8866C92.8741 58.5898 92.8741 59.2969 92.7748 60C93.792 59.8021 94.666 59.3953 95.2489 58.8486C95.8318 58.3019 96.0877 57.6488 95.9733 57C94.694 57.3212 93.3619 57.5574 92 57.7045H92.0993Z" fill="#D9876D"/>
<path d="M109.702 78.5797C110.702 80.9045 111.135 83.4454 110.963 85.9814C110.532 89.018 108.564 91.5644 106.671 93.8893C105.133 94.1265 103.241 94.0949 102.703 92.6398C102.579 92.1712 102.548 91.6819 102.61 91.2006L102.826 88.0375C103.002 86.6385 102.929 85.2184 102.61 83.8463C102.026 82.3632 101.255 80.9649 100.318 79.6868C98.9841 77.4739 98.1923 74.961 98.0109 72.3641C97.8417 69.9127 99.6415 62.0365 103.133 64.4563C104.579 65.421 105.872 69.4698 106.641 71.0989C107.779 73.5556 108.799 76.0492 109.702 78.5797Z" fill="white"/>
<path d="M102.22 95.9178C102.14 96.0433 102.095 96.1889 102.092 96.3383C102.092 96.4839 102.268 96.6295 102.413 96.5648C102.782 97.7132 102.012 98.9262 102.012 100.139C101.996 100.241 101.996 100.345 102.012 100.447C102.07 100.583 102.164 100.7 102.284 100.786C102.488 100.911 102.718 100.983 102.956 100.997C103.194 101.012 103.431 100.967 103.648 100.867C104.079 100.659 104.466 100.368 104.787 100.01C105.505 99.3805 106.057 98.5799 106.39 97.6808C106.505 97.263 106.581 96.8352 106.615 96.403L107 93.1681C104.578 92.4726 103.311 94.0415 102.22 95.9178Z" fill="#E9A590"/>
<path d="M66 74.4242C67.3151 76.3335 68.9477 77.9946 70.8245 79.3325C72.1714 80.2561 73.7258 80.8189 75.3434 80.9686C75.5505 81.0105 75.7636 81.0105 75.9706 80.9686C76.3156 80.8651 76.6196 80.6532 76.839 80.3632C77.5172 79.541 77.9225 78.5217 77.9969 77.451C78.1095 74.6696 75.1344 73.0335 75.1344 73.0335C75.1344 73.0335 68.2836 70.6775 67.5438 71.0374C67.1096 71.2337 66.6915 72.1991 66.402 73.0498C66.1126 73.9006 66 74.4242 66 74.4242Z" fill="white"/>
<path opacity="0.1" d="M66 74.2094C67.3227 76.1697 68.9649 77.8751 70.8525 79.2487C72.2073 80.1969 73.7707 80.7747 75.3977 80.9284C75.606 80.9714 75.8203 80.9714 76.0285 80.9284H76.3197C78.3901 81.3651 81.1722 79.719 83 78.2912L82.353 73.9911C81.1173 75.3473 79.6745 76.4824 78.0828 77.3506C76.9681 77.985 75.687 78.2323 74.4272 78.056C74.0861 78.0045 73.7539 77.9027 73.4405 77.7537C70.9164 76.4928 68.5619 74.8947 66.4367 73C66.1617 73.5207 66 74.2094 66 74.2094Z" fill="#020202"/>
<path d="M66.5005 68.6366C66.4356 68.4497 66.3091 68.2818 66.1354 68.152C66.0551 68.0876 65.948 68.0517 65.8367 68.0517C65.7253 68.0517 65.6183 68.0876 65.538 68.152C65.4746 68.2557 65.4352 68.3684 65.4218 68.4843C65.3604 68.6053 65.2557 68.7075 65.122 68.7769C64.9883 68.8463 64.8321 68.8795 64.6749 68.872C64.3588 68.8668 64.0476 68.8054 63.7621 68.692C62.9319 68.4334 62.084 68.2161 61.2229 68.0412C61.0235 67.9863 60.8082 67.9863 60.6089 68.0412C60.5045 68.0866 60.4124 68.1493 60.3382 68.2255C60.264 68.3017 60.2093 68.3898 60.1773 68.4843C59.9991 68.9208 59.9543 69.3875 60.0471 69.8421C60.1398 70.2967 60.3671 70.7247 60.7084 71.0874C61.4059 71.8176 62.3657 72.3418 63.4468 72.5829C64.527 72.8391 65.6432 72.9741 66.7661 72.9844C67.0411 73.0213 67.323 72.9925 67.5793 72.9013C68.8572 72.2367 66.8491 69.3566 66.5005 68.6366Z" fill="#E9A590"/>
</svg>
