<svg width="120" height="161" viewBox="0 0 120 161" fill="none" xmlns="http://www.w3.org/2000/svg">
<path d="M58.1617 0H9.77374C4.37585 0 0 4.39698 0 9.82093V122.186C0 127.61 4.37585 132.007 9.77374 132.007H58.1617C63.5596 132.007 67.9355 127.61 67.9355 122.186V9.82093C67.9355 4.39698 63.5596 0 58.1617 0Z" fill="#0D569F"/>
<path d="M57.1634 1.65952H10.7844C5.57031 1.65952 1.34344 5.90679 1.34344 11.1461V120.638C1.34344 125.877 5.57031 130.124 10.7844 130.124H57.1634C62.3775 130.124 66.6044 125.877 66.6044 120.638V11.1461C66.6044 5.90679 62.3775 1.65952 57.1634 1.65952Z" fill="#473F47"/>
<path d="M64.8172 12.2359V118.26C64.7912 120.662 63.8174 122.956 62.1096 124.637C60.4018 126.318 58.0997 127.249 55.7091 127.226H12.2634C10.6706 127.213 9.10821 126.786 7.72779 125.988C6.34397 125.219 5.1895 124.092 4.38352 122.725C3.57754 121.358 3.14926 119.799 3.14288 118.21V12.2359C3.1689 9.83044 4.14406 7.5337 5.85416 5.85017C7.56425 4.16665 9.86945 3.23402 12.2634 3.25713H19.6584V4.56989C19.6677 5.42147 19.9279 6.2512 20.4061 6.95433C20.8843 7.65746 21.559 8.20247 22.3452 8.52056C22.8739 8.7352 23.439 8.84456 24.0091 8.84256H44.2345C44.8074 8.8491 45.3761 8.74217 45.9079 8.52787C46.4398 8.31357 46.9244 7.9961 47.3341 7.59359C47.7439 7.19108 48.0707 6.71141 48.2959 6.18198C48.5212 5.65254 48.6404 5.08371 48.6468 4.50797V3.26952H55.7584C58.0909 3.26179 60.3386 4.14753 62.0441 5.74642C62.9241 6.57953 63.6244 7.58545 64.1014 8.70178C64.5784 9.81811 64.8221 11.021 64.8172 12.2359Z" fill="white"/>
<path d="M64.8172 12.2359V118.26C64.7912 120.662 63.8174 122.956 62.1096 124.637C60.4018 126.318 58.0997 127.249 55.7091 127.226H12.2634C10.6706 127.213 9.10823 126.786 7.7278 125.988C6.84378 125.158 6.13832 124.156 5.655 123.042C5.17168 121.928 4.92074 120.726 4.91769 119.511V13.5363C4.93057 12.3458 5.17671 11.1695 5.64204 10.0745C6.10737 8.9796 6.78278 7.9875 7.62971 7.15488C8.47665 6.32226 9.47851 5.66543 10.5781 5.22189C11.6777 4.77835 12.8534 4.5568 14.0382 4.56988H19.5845C19.5997 5.43006 19.8707 6.26599 20.3627 6.97006C20.8548 7.67413 21.5452 8.21413 22.3453 8.52055C22.7603 9.02378 23.2798 9.42974 23.8674 9.70999C24.4551 9.99024 25.0965 10.138 25.747 10.1429H45.9723C46.5473 10.1511 47.1183 10.045 47.6524 9.83064C48.1864 9.6163 48.6731 9.29799 49.0843 8.89401C49.4955 8.49003 49.8231 8.00834 50.0484 7.47666C50.2737 6.94498 50.3922 6.37379 50.397 5.79595V4.5575H57.5085C59.0928 4.5761 60.6459 5.00249 62.0195 5.79595C62.8979 6.6212 63.5992 7.61814 64.0803 8.72557C64.5614 9.833 64.8122 11.0276 64.8172 12.2359Z" fill="#B4B7CC"/>
<rect x="7.29919" y="11.6035" width="55" height="15" rx="5" fill="#1565C0"/>
<rect x="7" y="74" width="55" height="51" rx="5" fill="white"/>
<rect x="7" y="40" width="55" height="32" rx="5" fill="white"/>
<rect x="21.2992" y="45.6035" width="36" height="2" fill="#C4C4C4"/>
<rect x="21.2992" y="91.6035" width="36" height="2" fill="#C4C4C4"/>
<rect x="21.2992" y="104.604" width="36" height="2" fill="#C4C4C4"/>
<rect x="21" y="79" width="36" height="2" fill="#C4C4C4"/>
<rect x="21.2992" y="49.6035" width="36" height="2" fill="#C4C4C4"/>
<rect x="21.2992" y="95.6035" width="36" height="2" fill="#C4C4C4"/>
<rect x="21.2992" y="108.604" width="36" height="2" fill="#C4C4C4"/>
<rect x="21" y="83" width="36" height="2" fill="#C4C4C4"/>
<rect x="42.2992" y="104.604" width="17" height="17" rx="8.5" fill="#EF6C00"/>
<g clip-path="url(#clip0)">
<path d="M50.7992 115.729C50.3867 115.729 50.0492 116.066 50.0492 116.479C50.0492 116.891 50.3867 117.229 50.7992 117.229C51.2117 117.229 51.5492 116.891 51.5492 116.479C51.5492 116.066 51.2117 115.729 50.7992 115.729ZM48.5492 108.979C48.1367 108.979 47.7992 109.316 47.7992 109.729C47.7992 110.141 48.1367 110.479 48.5492 110.479C48.9617 110.479 49.2992 110.141 49.2992 109.729C49.2992 109.316 48.9617 108.979 48.5492 108.979ZM48.5492 111.229C48.1367 111.229 47.7992 111.566 47.7992 111.979C47.7992 112.391 48.1367 112.729 48.5492 112.729C48.9617 112.729 49.2992 112.391 49.2992 111.979C49.2992 111.566 48.9617 111.229 48.5492 111.229ZM48.5492 113.479C48.1367 113.479 47.7992 113.816 47.7992 114.229C47.7992 114.641 48.1367 114.979 48.5492 114.979C48.9617 114.979 49.2992 114.641 49.2992 114.229C49.2992 113.816 48.9617 113.479 48.5492 113.479ZM53.0492 110.479C53.4617 110.479 53.7992 110.141 53.7992 109.729C53.7992 109.316 53.4617 108.979 53.0492 108.979C52.6367 108.979 52.2992 109.316 52.2992 109.729C52.2992 110.141 52.6367 110.479 53.0492 110.479ZM50.7992 113.479C50.3867 113.479 50.0492 113.816 50.0492 114.229C50.0492 114.641 50.3867 114.979 50.7992 114.979C51.2117 114.979 51.5492 114.641 51.5492 114.229C51.5492 113.816 51.2117 113.479 50.7992 113.479ZM53.0492 113.479C52.6367 113.479 52.2992 113.816 52.2992 114.229C52.2992 114.641 52.6367 114.979 53.0492 114.979C53.4617 114.979 53.7992 114.641 53.7992 114.229C53.7992 113.816 53.4617 113.479 53.0492 113.479ZM53.0492 111.229C52.6367 111.229 52.2992 111.566 52.2992 111.979C52.2992 112.391 52.6367 112.729 53.0492 112.729C53.4617 112.729 53.7992 112.391 53.7992 111.979C53.7992 111.566 53.4617 111.229 53.0492 111.229ZM50.7992 111.229C50.3867 111.229 50.0492 111.566 50.0492 111.979C50.0492 112.391 50.3867 112.729 50.7992 112.729C51.2117 112.729 51.5492 112.391 51.5492 111.979C51.5492 111.566 51.2117 111.229 50.7992 111.229ZM50.7992 108.979C50.3867 108.979 50.0492 109.316 50.0492 109.729C50.0492 110.141 50.3867 110.479 50.7992 110.479C51.2117 110.479 51.5492 110.141 51.5492 109.729C51.5492 109.316 51.2117 108.979 50.7992 108.979Z" fill="white"/>
</g>
<path d="M10.4071 33.4195C10.3794 33.802 10.2378 34.1031 9.9823 34.3228C9.72839 34.5425 9.39311 34.6524 8.97644 34.6524C8.52071 34.6524 8.16182 34.4994 7.89978 34.1934C7.63936 33.8858 7.50916 33.4642 7.50916 32.9287V32.7115C7.50916 32.3697 7.56938 32.0686 7.68982 31.8081C7.81026 31.5477 7.98197 31.3483 8.20496 31.21C8.42957 31.07 8.68998 31 8.98621 31C9.39636 31 9.72677 31.1099 9.97742 31.3296C10.2281 31.5493 10.3729 31.8578 10.412 32.2549H9.67957C9.66166 32.0254 9.59737 31.8594 9.48669 31.7569C9.37764 31.6527 9.21082 31.6006 8.98621 31.6006C8.74207 31.6006 8.55896 31.6885 8.43689 31.8643C8.31645 32.0384 8.2546 32.3094 8.25134 32.6773V32.9458C8.25134 33.3299 8.30912 33.6107 8.42468 33.7881C8.54187 33.9655 8.72579 34.0542 8.97644 34.0542C9.20268 34.0542 9.37113 34.003 9.48181 33.9004C9.59412 33.7963 9.65841 33.6359 9.67468 33.4195H10.4071ZM10.7318 33.2583C10.7318 32.9963 10.7823 32.7627 10.8832 32.5576C10.9841 32.3526 11.1289 32.1939 11.3177 32.0816C11.5082 31.9693 11.7287 31.9131 11.9794 31.9131C12.3358 31.9131 12.6263 32.0222 12.851 32.2403C13.0772 32.4584 13.2033 32.7546 13.2294 33.1289L13.2343 33.3096C13.2343 33.7149 13.1211 34.0404 12.8949 34.2862C12.6687 34.5303 12.3651 34.6524 11.9843 34.6524C11.6034 34.6524 11.299 34.5303 11.0712 34.2862C10.8449 34.042 10.7318 33.71 10.7318 33.2901V33.2583ZM11.4374 33.3096C11.4374 33.5603 11.4846 33.7523 11.579 33.8858C11.6734 34.0176 11.8085 34.0835 11.9843 34.0835C12.1552 34.0835 12.2886 34.0184 12.3846 33.8882C12.4807 33.7564 12.5287 33.5464 12.5287 33.2583C12.5287 33.0126 12.4807 32.8221 12.3846 32.687C12.2886 32.552 12.1535 32.4844 11.9794 32.4844C11.8068 32.4844 11.6734 32.552 11.579 32.687C11.4846 32.8205 11.4374 33.028 11.4374 33.3096ZM14.3182 31.9619L14.3402 32.2671C14.529 32.0311 14.7821 31.9131 15.0995 31.9131C15.3794 31.9131 15.5878 31.9953 15.7245 32.1597C15.8612 32.3241 15.9312 32.5699 15.9344 32.897V34.6035H15.2289V32.9141C15.2289 32.7644 15.1963 32.6561 15.1312 32.5894C15.0661 32.521 14.9579 32.4868 14.8065 32.4868C14.608 32.4868 14.459 32.5715 14.3597 32.7408V34.6035H13.6542V31.9619H14.3182ZM17.3163 31.3125V31.9619H17.7679V32.4795H17.3163V33.7979C17.3163 33.8955 17.335 33.9655 17.3724 34.0078C17.4099 34.0502 17.4815 34.0713 17.5873 34.0713C17.6654 34.0713 17.7346 34.0656 17.7948 34.0542V34.5889C17.6565 34.6312 17.514 34.6524 17.3676 34.6524C16.8728 34.6524 16.6205 34.4025 16.6107 33.9029V32.4795H16.225V31.9619H16.6107V31.3125H17.3163ZM19.6918 34.6035C19.6592 34.5401 19.6356 34.4611 19.621 34.3667C19.4501 34.5572 19.2279 34.6524 18.9545 34.6524C18.6957 34.6524 18.4808 34.5775 18.3099 34.4278C18.1407 34.278 18.056 34.0892 18.056 33.8614C18.056 33.5814 18.1594 33.3666 18.3661 33.2168C18.5744 33.0671 18.8747 32.9914 19.267 32.9898H19.5917V32.8384C19.5917 32.7163 19.5599 32.6187 19.4965 32.5454C19.4346 32.4722 19.3361 32.4356 19.201 32.4356C19.0822 32.4356 18.9886 32.4641 18.9203 32.521C18.8536 32.578 18.8202 32.6561 18.8202 32.7554H18.1146C18.1146 32.6024 18.1618 32.4608 18.2562 32.3306C18.3506 32.2004 18.4841 32.0987 18.6566 32.0254C18.8291 31.9506 19.0228 31.9131 19.2377 31.9131C19.5632 31.9131 19.8212 31.9953 20.0116 32.1597C20.2037 32.3225 20.2997 32.552 20.2997 32.8482V33.9932C20.3013 34.2438 20.3363 34.4335 20.4047 34.562V34.6035H19.6918ZM19.1083 34.1128C19.2124 34.1128 19.3085 34.09 19.3964 34.0445C19.4843 33.9973 19.5494 33.9346 19.5917 33.8565V33.4024H19.328C18.9748 33.4024 18.7868 33.5244 18.764 33.7686L18.7616 33.8101C18.7616 33.898 18.7925 33.9704 18.8544 34.0274C18.9162 34.0843 19.0009 34.1128 19.1083 34.1128ZM21.9403 34.0835C22.0705 34.0835 22.1763 34.0477 22.2577 33.9761C22.3391 33.9045 22.3814 33.8093 22.3846 33.6905H23.0463C23.0446 33.8695 22.9958 34.0339 22.8998 34.1836C22.8038 34.3317 22.6719 34.4473 22.5043 34.5303C22.3383 34.6117 22.1543 34.6524 21.9525 34.6524C21.5749 34.6524 21.2771 34.5327 21.059 34.2935C20.8409 34.0526 20.7318 33.7206 20.7318 33.2974V33.251C20.7318 32.8441 20.84 32.5194 21.0565 32.2769C21.273 32.0344 21.57 31.9131 21.9476 31.9131C22.278 31.9131 22.5425 32.0075 22.7411 32.1963C22.9413 32.3835 23.043 32.6333 23.0463 32.9458H22.3846C22.3814 32.8091 22.3391 32.6984 22.2577 32.6138C22.1763 32.5275 22.0689 32.4844 21.9354 32.4844C21.771 32.4844 21.6465 32.5446 21.5619 32.6651C21.4789 32.7839 21.4374 32.9776 21.4374 33.2461V33.3194C21.4374 33.5912 21.4789 33.7865 21.5619 33.9053C21.6449 34.0241 21.771 34.0835 21.9403 34.0835ZM24.2938 31.3125V31.9619H24.7455V32.4795H24.2938V33.7979C24.2938 33.8955 24.3125 33.9655 24.35 34.0078C24.3874 34.0502 24.459 34.0713 24.5648 34.0713C24.6429 34.0713 24.7121 34.0656 24.7723 34.0542V34.5889C24.634 34.6312 24.4916 34.6524 24.3451 34.6524C23.8503 34.6524 23.598 34.4025 23.5883 33.9029V32.4795H23.2025V31.9619H23.5883V31.3125H24.2938ZM26.5692 33.8736C26.5692 33.7873 26.5261 33.7198 26.4398 33.6709C26.3552 33.6205 26.2185 33.5757 26.0297 33.5367C25.4014 33.4048 25.0873 33.1379 25.0873 32.7359C25.0873 32.5015 25.1841 32.3062 25.3778 32.1499C25.5731 31.9921 25.8278 31.9131 26.142 31.9131C26.4773 31.9131 26.745 31.9921 26.9452 32.1499C27.147 32.3078 27.2479 32.5129 27.2479 32.7652H26.5424C26.5424 32.6643 26.5098 32.5812 26.4447 32.5161C26.3796 32.4494 26.2779 32.416 26.1395 32.416C26.0207 32.416 25.9288 32.4429 25.8636 32.4966C25.7985 32.5503 25.766 32.6187 25.766 32.7017C25.766 32.7798 25.8026 32.8433 25.8759 32.8921C25.9507 32.9393 26.076 32.9808 26.2518 33.0166C26.4276 33.0508 26.5757 33.0899 26.6962 33.1338C27.0689 33.2705 27.2552 33.5074 27.2552 33.8443C27.2552 34.0852 27.1519 34.2805 26.9452 34.4302C26.7385 34.5783 26.4716 34.6524 26.1444 34.6524C25.9231 34.6524 25.7261 34.6133 25.5536 34.5352C25.3827 34.4554 25.2484 34.3472 25.1508 34.2105C25.0531 34.0721 25.0043 33.9232 25.0043 33.7637H25.6732C25.6797 33.889 25.7261 33.9851 25.8124 34.0518C25.8986 34.1185 26.0142 34.1519 26.1591 34.1519C26.2941 34.1519 26.3959 34.1267 26.4642 34.0762C26.5342 34.0241 26.5692 33.9566 26.5692 33.8736Z" fill="#8B8FAF"/>
<path d="M34.9325 33.3023H34.349V34.6035H33.6166V31.0489H34.9374C35.3573 31.0489 35.6812 31.1424 35.9091 31.3296C36.1369 31.5168 36.2509 31.7813 36.2509 32.1231C36.2509 32.3656 36.198 32.5682 36.0922 32.731C35.988 32.8921 35.8293 33.0207 35.6161 33.1167L36.3851 34.5694V34.6035H35.599L34.9325 33.3023ZM34.349 32.709H34.9398C35.1237 32.709 35.2662 32.6626 35.3671 32.5699C35.468 32.4755 35.5184 32.3461 35.5184 32.1817C35.5184 32.014 35.4704 31.8822 35.3744 31.7862C35.28 31.6901 35.1343 31.6421 34.9374 31.6421H34.349V32.709ZM37.9794 34.6524C37.592 34.6524 37.2762 34.5336 37.0321 34.2959C36.7896 34.0583 36.6683 33.7417 36.6683 33.3462V33.2779C36.6683 33.0126 36.7196 32.7757 36.8221 32.5674C36.9247 32.3575 37.0695 32.1963 37.2567 32.084C37.4455 31.9701 37.6604 31.9131 37.9012 31.9131C38.2626 31.9131 38.5466 32.027 38.7533 32.2549C38.9616 32.4828 39.0658 32.8059 39.0658 33.2242V33.5122H37.3837C37.4065 33.6848 37.4748 33.8231 37.5887 33.9273C37.7043 34.0314 37.85 34.0835 38.0258 34.0835C38.2976 34.0835 38.51 33.9851 38.663 33.7881L39.0096 34.1763C38.9038 34.326 38.7606 34.4432 38.58 34.5279C38.3993 34.6109 38.1991 34.6524 37.9794 34.6524ZM37.8988 32.4844C37.7588 32.4844 37.6449 32.5316 37.557 32.626C37.4707 32.7204 37.4154 32.8555 37.391 33.0313H38.3724V32.9751C38.3692 32.8189 38.3269 32.6984 38.2455 32.6138C38.1641 32.5275 38.0485 32.4844 37.8988 32.4844ZM40.5673 34.0835C40.6975 34.0835 40.8033 34.0477 40.8846 33.9761C40.966 33.9045 41.0083 33.8093 41.0116 33.6905H41.6732C41.6716 33.8695 41.6228 34.0339 41.5267 34.1836C41.4307 34.3317 41.2989 34.4473 41.1312 34.5303C40.9652 34.6117 40.7813 34.6524 40.5795 34.6524C40.2019 34.6524 39.904 34.5327 39.6859 34.2935C39.4678 34.0526 39.3588 33.7206 39.3588 33.2974V33.251C39.3588 32.8441 39.467 32.5194 39.6835 32.2769C39.8999 32.0344 40.197 31.9131 40.5746 31.9131C40.905 31.9131 41.1695 32.0075 41.368 32.1963C41.5682 32.3835 41.67 32.6333 41.6732 32.9458H41.0116C41.0083 32.8091 40.966 32.6984 40.8846 32.6138C40.8033 32.5275 40.6958 32.4844 40.5624 32.4844C40.398 32.4844 40.2735 32.5446 40.1888 32.6651C40.1058 32.7839 40.0643 32.9776 40.0643 33.2461V33.3194C40.0643 33.5912 40.1058 33.7865 40.1888 33.9053C40.2719 34.0241 40.398 34.0835 40.5673 34.0835ZM43.2919 34.6524C42.9045 34.6524 42.5887 34.5336 42.3446 34.2959C42.1021 34.0583 41.9808 33.7417 41.9808 33.3462V33.2779C41.9808 33.0126 42.0321 32.7757 42.1346 32.5674C42.2372 32.3575 42.382 32.1963 42.5692 32.084C42.758 31.9701 42.9729 31.9131 43.2137 31.9131C43.5751 31.9131 43.8591 32.027 44.0658 32.2549C44.2741 32.4828 44.3783 32.8059 44.3783 33.2242V33.5122H42.6962C42.719 33.6848 42.7873 33.8231 42.9012 33.9273C43.0168 34.0314 43.1625 34.0835 43.3383 34.0835C43.6101 34.0835 43.8225 33.9851 43.9755 33.7881L44.3221 34.1763C44.2163 34.326 44.0731 34.4432 43.8925 34.5279C43.7118 34.6109 43.5116 34.6524 43.2919 34.6524ZM43.2113 32.4844C43.0713 32.4844 42.9574 32.5316 42.8695 32.626C42.7832 32.7204 42.7279 32.8555 42.7035 33.0313H43.6849V32.9751C43.6817 32.8189 43.6394 32.6984 43.558 32.6138C43.4766 32.5275 43.361 32.4844 43.2113 32.4844ZM45.4305 31.9619L45.4525 32.2671C45.6413 32.0311 45.8944 31.9131 46.2118 31.9131C46.4917 31.9131 46.7001 31.9953 46.8368 32.1597C46.9735 32.3241 47.0435 32.5699 47.0468 32.897V34.6035H46.3412V32.9141C46.3412 32.7644 46.3086 32.6561 46.2435 32.5894C46.1784 32.521 46.0702 32.4868 45.9188 32.4868C45.7203 32.4868 45.5713 32.5715 45.472 32.7408V34.6035H44.7665V31.9619H45.4305ZM48.4286 31.3125V31.9619H48.8802V32.4795H48.4286V33.7979C48.4286 33.8955 48.4473 33.9655 48.4847 34.0078C48.5222 34.0502 48.5938 34.0713 48.6996 34.0713C48.7777 34.0713 48.8469 34.0656 48.9071 34.0542V34.5889C48.7688 34.6312 48.6263 34.6524 48.4799 34.6524C47.9851 34.6524 47.7328 34.4025 47.723 33.9029V32.4795H47.3373V31.9619H47.723V31.3125H48.4286ZM53.3553 33.4195C53.3277 33.802 53.1861 34.1031 52.9305 34.3228C52.6766 34.5425 52.3413 34.6524 51.9247 34.6524C51.469 34.6524 51.1101 34.4994 50.848 34.1934C50.5876 33.8858 50.4574 33.4642 50.4574 32.9287V32.7115C50.4574 32.3697 50.5176 32.0686 50.6381 31.8081C50.7585 31.5477 50.9302 31.3483 51.1532 31.21C51.3778 31.07 51.6382 31 51.9344 31C52.3446 31 52.675 31.1099 52.9257 31.3296C53.1763 31.5493 53.3212 31.8578 53.3602 32.2549H52.6278C52.6099 32.0254 52.5456 31.8594 52.4349 31.7569C52.3259 31.6527 52.1591 31.6006 51.9344 31.6006C51.6903 31.6006 51.5072 31.6885 51.3851 31.8643C51.2647 32.0384 51.2028 32.3094 51.1996 32.6773V32.9458C51.1996 33.3299 51.2574 33.6107 51.3729 33.7881C51.4901 33.9655 51.674 34.0542 51.9247 34.0542C52.1509 34.0542 52.3194 34.003 52.4301 33.9004C52.5424 33.7963 52.6066 33.6359 52.6229 33.4195H53.3553ZM55.3207 34.6035C55.2881 34.5401 55.2645 34.4611 55.2499 34.3667C55.079 34.5572 54.8568 34.6524 54.5834 34.6524C54.3246 34.6524 54.1097 34.5775 53.9388 34.4278C53.7696 34.278 53.6849 34.0892 53.6849 33.8614C53.6849 33.5814 53.7883 33.3666 53.995 33.2168C54.2033 33.0671 54.5036 32.9914 54.8959 32.9898H55.2206V32.8384C55.2206 32.7163 55.1888 32.6187 55.1254 32.5454C55.0635 32.4722 54.965 32.4356 54.83 32.4356C54.7111 32.4356 54.6176 32.4641 54.5492 32.521C54.4825 32.578 54.4491 32.6561 54.4491 32.7554H53.7435C53.7435 32.6024 53.7907 32.4608 53.8851 32.3306C53.9795 32.2004 54.113 32.0987 54.2855 32.0254C54.458 31.9506 54.6517 31.9131 54.8666 31.9131C55.1921 31.9131 55.4501 31.9953 55.6405 32.1597C55.8326 32.3225 55.9286 32.552 55.9286 32.8482V33.9932C55.9302 34.2438 55.9652 34.4335 56.0336 34.562V34.6035H55.3207ZM54.7372 34.1128C54.8413 34.1128 54.9374 34.09 55.0253 34.0445C55.1132 33.9973 55.1783 33.9346 55.2206 33.8565V33.4024H54.9569C54.6037 33.4024 54.4157 33.5244 54.3929 33.7686L54.3905 33.8101C54.3905 33.898 54.4214 33.9704 54.4833 34.0274C54.5451 34.0843 54.6298 34.1128 54.7372 34.1128ZM57.2152 34.6035H56.5072V30.8535H57.2152V34.6035ZM58.5433 34.6035H57.8353V30.8535H58.5433V34.6035ZM60.5575 33.8736C60.5575 33.7873 60.5144 33.7198 60.4281 33.6709C60.3435 33.6205 60.2067 33.5757 60.0179 33.5367C59.3897 33.4048 59.0756 33.1379 59.0756 32.7359C59.0756 32.5015 59.1724 32.3062 59.3661 32.1499C59.5614 31.9921 59.8161 31.9131 60.1302 31.9131C60.4655 31.9131 60.7333 31.9921 60.9335 32.1499C61.1353 32.3078 61.2362 32.5129 61.2362 32.7652H60.5306C60.5306 32.6643 60.4981 32.5812 60.433 32.5161C60.3679 32.4494 60.2662 32.416 60.1278 32.416C60.009 32.416 59.917 32.4429 59.8519 32.4966C59.7868 32.5503 59.7543 32.6187 59.7543 32.7017C59.7543 32.7798 59.7909 32.8433 59.8641 32.8921C59.939 32.9393 60.0643 32.9808 60.2401 33.0166C60.4159 33.0508 60.564 33.0899 60.6844 33.1338C61.0572 33.2705 61.2435 33.5074 61.2435 33.8443C61.2435 34.0852 61.1402 34.2805 60.9335 34.4302C60.7268 34.5783 60.4598 34.6524 60.1327 34.6524C59.9113 34.6524 59.7144 34.6133 59.5419 34.5352C59.371 34.4554 59.2367 34.3472 59.139 34.2105C59.0414 34.0721 58.9926 33.9232 58.9926 33.7637H59.6615C59.668 33.889 59.7144 33.9851 59.8007 34.0518C59.8869 34.1185 60.0025 34.1519 60.1473 34.1519C60.2824 34.1519 60.3842 34.1267 60.4525 34.0762C60.5225 34.0241 60.5575 33.9566 60.5575 33.8736Z" fill="white"/>
<path d="M16.41 96.0867L15.5633 95.99C15.36 95.9667 15.16 96.0367 15.0166 96.18L14.4033 96.7933C13.46 96.3133 12.6866 95.5433 12.2066 94.5967L12.8233 93.98C12.9666 93.8367 13.0366 93.6367 13.0133 93.4333L12.9166 92.5933C12.8766 92.2567 12.5933 92.0033 12.2533 92.0033H11.6766C11.3 92.0033 10.9866 92.3167 11.01 92.6933C11.1866 95.54 13.4633 97.8133 16.3066 97.99C16.6833 98.0133 16.9966 97.7 16.9966 97.3233V96.7467C17 96.41 16.7466 96.1267 16.41 96.0867ZM14.3333 94.6667H15.6666C15.85 94.6667 16 94.5167 16 94.3333C16 94.15 15.85 94 15.6666 94H15.1366L16.5733 92.5633C16.7033 92.4333 16.7033 92.2233 16.5733 92.0933C16.4433 91.9633 16.2333 91.9633 16.1033 92.0933L14.6666 93.53V93C14.6666 92.8167 14.5166 92.6667 14.3333 92.6667C14.15 92.6667 14 92.8167 14 93V94.3333C14 94.5167 14.15 94.6667 14.3333 94.6667Z" fill="#1976D2"/>
<path d="M16.41 109.087L15.5633 108.99C15.36 108.967 15.16 109.037 15.0166 109.18L14.4033 109.793C13.46 109.313 12.6866 108.543 12.2066 107.597L12.8233 106.98C12.9666 106.837 13.0366 106.637 13.0133 106.433L12.9166 105.593C12.8766 105.257 12.5933 105.003 12.2533 105.003H11.6766C11.3 105.003 10.9866 105.317 11.01 105.693C11.1866 108.54 13.4633 110.813 16.3066 110.99C16.6833 111.013 16.9966 110.7 16.9966 110.323V109.747C17 109.41 16.7466 109.127 16.41 109.087ZM14.3333 107.667H15.6666C15.85 107.667 16 107.517 16 107.333C16 107.15 15.85 107 15.6666 107H15.1366L16.5733 105.563C16.7033 105.433 16.7033 105.223 16.5733 105.093C16.4433 104.963 16.2333 104.963 16.1033 105.093L14.6666 106.53V106C14.6666 105.817 14.5166 105.667 14.3333 105.667C14.15 105.667 14 105.817 14 106V107.333C14 107.517 14.15 107.667 14.3333 107.667Z" fill="#1976D2"/>
<path d="M17.55 46.8833L16.2867 45.62C16.18 45.5133 16 45.5867 16 45.7367V46.3333H14.8333C14.74 46.3333 14.6666 46.4067 14.6666 46.5V47.5C14.6666 47.5933 14.74 47.6667 14.8333 47.6667H16V48.2633C16 48.4133 16.18 48.4867 16.2833 48.38L17.5466 47.1167C17.6133 47.0533 17.6133 46.9467 17.55 46.8833ZM16.41 50.0867L15.5633 49.99C15.36 49.9667 15.16 50.0367 15.0167 50.18L14.4033 50.7933C13.46 50.3133 12.6866 49.5433 12.2066 48.5967L12.8233 47.98C12.9666 47.8367 13.0366 47.6367 13.0133 47.4333L12.9166 46.5933C12.8766 46.2567 12.5933 46.0033 12.2533 46.0033H11.6766C11.3 46.0033 10.9866 46.3167 11.01 46.6933C11.1866 49.54 13.4633 51.8133 16.3067 51.99C16.6833 52.0133 16.9966 51.7 16.9966 51.3233V50.7467C17 50.41 16.7466 50.1267 16.41 50.0867Z" fill="#43A047"/>
<g clip-path="url(#clip1)">
<path d="M17.7936 83.4452C15.7239 81.5627 12.6079 81.5627 10.5414 83.4452C10.2668 83.6944 10.2668 84.1356 10.5251 84.4016L10.9174 84.8057C11.1496 85.0448 11.5191 85.065 11.7741 84.8563L12.4182 84.3275C12.5719 84.2029 12.6634 84.011 12.6634 83.8056V82.9401C13.6378 82.6134 14.6939 82.6101 15.6715 82.9401V83.8089C15.6715 84.011 15.7631 84.2029 15.9168 84.3309L16.5576 84.8563C16.8159 85.065 17.1821 85.0448 17.4143 84.8057L17.8066 84.4016C18.0682 84.1356 18.0649 83.6944 17.7936 83.4452ZM12.2057 81.0206C12.3855 81.0206 12.5327 80.869 12.5327 80.6838V80.1551L13.919 81.5829C14.0465 81.7143 14.2525 81.7143 14.38 81.5829L16.2307 79.6769C16.3582 79.5456 16.3582 79.3334 16.2307 79.2021C16.1031 79.0707 15.8972 79.0707 15.7696 79.2021L14.1511 80.869L12.9904 79.6735H13.5136C13.6934 79.6735 13.8405 79.522 13.8405 79.3368C13.8405 79.1515 13.6934 79 13.5136 79H12.2057C12.0259 79 11.8787 79.1515 11.8787 79.3368V80.6838C11.8787 80.869 12.0259 81.0206 12.2057 81.0206Z" fill="#E53935"/>
</g>
<path fill-rule="evenodd" clip-rule="evenodd" d="M13.8437 64.6667H16.4062C16.6411 64.6667 16.8333 64.4792 16.8333 64.25V61.75C16.8333 61.5208 16.6411 61.3333 16.4062 61.3333H13.8437C13.6088 61.3333 13.4167 61.5208 13.4167 61.75V64.25C13.4167 64.4792 13.6088 64.6667 13.8437 64.6667ZM15.125 58.8333C12.7675 58.8333 10.8542 60.7 10.8542 63C10.8542 65.3 12.7675 67.1667 15.125 67.1667C17.4825 67.1667 19.3958 65.3 19.3958 63C19.3958 60.7 17.4825 58.8333 15.125 58.8333Z" fill="#EF6C00"/>
<path d="M31.1146 63.4167V65.5C31.1146 65.7292 30.9224 65.9167 30.6875 65.9167H25.5625C25.3276 65.9167 25.1354 65.7292 25.1354 65.5V63.4167C25.1354 63.1875 24.9432 63 24.7083 63C24.4734 63 24.2812 63.1875 24.2812 63.4167V65.9167C24.2812 66.375 24.6656 66.75 25.1354 66.75H31.1146C31.5844 66.75 31.9688 66.375 31.9688 65.9167V63.4167C31.9688 63.1875 31.7766 63 31.5417 63C31.3068 63 31.1146 63.1875 31.1146 63.4167ZM28.5521 63.2792L29.355 62.4958C29.5216 62.3333 29.7906 62.3333 29.9572 62.4958C30.1238 62.6583 30.1238 62.9208 29.9572 63.0833L28.424 64.5792C28.2574 64.7417 27.9883 64.7417 27.8218 64.5792L26.2885 63.0833C26.122 62.9208 26.122 62.6583 26.2885 62.4958C26.4551 62.3333 26.7242 62.3333 26.8907 62.4958L27.6979 63.2792V59.6667C27.6979 59.4375 27.8901 59.25 28.125 59.25C28.3599 59.25 28.5521 59.4375 28.5521 59.6667V63.2792Z" fill="#78909C"/>
<path d="M38.6089 62.4622C39.2489 63.72 40.28 64.7467 41.5378 65.3911L42.5156 64.4133C42.6356 64.2933 42.8133 64.2533 42.9689 64.3067C43.4667 64.4711 44.0044 64.56 44.5556 64.56C44.8 64.56 45 64.76 45 65.0044V66.5556C45 66.8 44.8 67 44.5556 67C40.3822 67 37 63.6178 37 59.4444C37 59.2 37.2 59 37.4444 59H39C39.2444 59 39.4444 59.2 39.4444 59.4444C39.4444 60 39.5333 60.5333 39.6978 61.0311C39.7467 61.1867 39.7111 61.36 39.5867 61.4844L38.6089 62.4622Z" fill="#1565C0"/>
<path d="M55 62.25V60.5C55 60.225 54.775 60 54.5 60H48.5C48.225 60 48 60.225 48 60.5V65.5C48 65.775 48.225 66 48.5 66H54.5C54.775 66 55 65.775 55 65.5V63.75L57 65.75V60.25L55 62.25Z" fill="#1565C0"/>
<path d="M85 160.11C65.67 160.11 50 154.942 50 148.567C50 142.191 65.67 137.023 85 137.023C104.33 137.023 120 142.191 120 148.567C120 154.942 104.33 160.11 85 160.11Z" fill="#0C5399"/>
<path d="M85.4372 145.002C85.4699 145.98 85.2895 146.953 84.9083 147.854C84.4275 148.693 83.7031 149.367 82.831 149.785C80.9626 150.759 78.7903 150.973 76.7678 150.383C76.4933 150.328 76.2466 150.179 76.0702 149.962C75.9657 149.778 75.9227 149.566 75.9476 149.356C76.101 148.24 76.6672 147.223 77.5343 146.505C78.3984 145.801 79.137 144.956 79.7189 144.006C80.6464 142.12 79.9565 137.107 83.4902 137.935C86.4413 138.602 85.5215 142.917 85.4372 145.002Z" fill="#FBB9AD"/>
<path d="M85.9277 148.383C85.9277 148.383 86.4336 149.624 85.8127 150.345C85.1918 151.065 78.8373 155.013 74.5601 151.832C70.2829 148.651 80.3704 148.245 80.3704 148.245L85.9277 148.383Z" fill="#1976D2"/>
<path d="M85.6823 145.516C85.4888 145.418 85.2666 145.394 85.0567 145.447C84.8467 145.501 84.6632 145.629 84.5402 145.807C84.123 146.282 83.5916 146.644 82.9962 146.857C82.4008 147.07 81.7609 147.128 81.1368 147.026C79.7417 146.696 79.1898 145.086 78.4999 145.079C77.8101 145.071 74.1154 148.222 73.9008 149.571C73.6861 150.92 75.5795 151.916 77.6644 152.047C79.7494 152.177 84.4865 150.728 85.3833 149.632C85.7616 149.021 85.9864 148.327 86.0384 147.611C86.0905 146.894 85.9683 146.175 85.6823 145.516Z" fill="white"/>
<path d="M97.5559 146.926C97.5968 147.904 97.416 148.879 97.027 149.778C96.5461 150.615 95.8215 151.286 94.9497 151.702C93.0841 152.675 90.9141 152.89 88.8941 152.3C88.6164 152.247 88.3664 152.098 88.1889 151.878C88.088 151.696 88.0452 151.487 88.0663 151.28C88.2212 150.165 88.7871 149.148 89.653 148.429C90.5111 147.722 91.2489 146.88 91.8376 145.937C92.7651 144.059 92.0752 139.039 95.6089 139.866C98.56 140.541 97.6402 144.864 97.5559 146.926Z" fill="#FBB9AD"/>
<path d="M98.0465 150.322C98.0465 150.322 98.5525 151.556 97.9316 152.277C97.3107 152.997 90.9715 156.945 86.6943 153.771C82.4171 150.598 92.4892 150.184 92.4892 150.184L98.0465 150.322Z" fill="#1976D2"/>
<path d="M97.8016 147.447C97.6069 147.352 97.3846 147.33 97.175 147.385C96.9654 147.44 96.7824 147.568 96.6594 147.746C96.2445 148.225 95.7135 148.588 95.1174 148.802C94.5213 149.015 93.8802 149.071 93.2561 148.965C91.8686 148.628 91.3091 147.026 90.6269 147.018C89.9447 147.011 86.2423 150.153 86.0277 151.502C85.8131 152.851 87.7064 153.848 89.7914 153.978C91.8763 154.109 96.6058 152.667 97.5026 151.571C97.8828 150.96 98.1086 150.265 98.1607 149.546C98.2127 148.828 98.0895 148.108 97.8016 147.447Z" fill="white"/>
<path d="M100.093 94.7564C100.093 94.7564 100.745 131.067 98.062 143.178L91.2323 144.021L89.3696 94.3961L100.093 94.7564Z" fill="#473F47"/>
<path d="M81.2293 90.8317C81.2293 90.8317 75.7946 110.378 79.6962 141.829L86.526 142.672L90.8262 92.5334L81.2293 90.8317Z" fill="#473F47"/>
<path d="M71.0112 75.187C71.0879 76.5054 71.5095 77.6399 72.6516 78.0231C72.7493 78.0558 72.8492 78.0814 72.9506 78.0998C75.0432 78.5214 77.795 76.927 79.7037 75.5319C80.5038 74.9564 81.2715 74.3372 82.0032 73.6769V59.6265L71.7778 70.0666C71.2477 71.7208 70.9888 73.45 71.0112 75.187Z" fill="white"/>
<path d="M79.6268 75.4705C79.6268 76.1297 79.5425 76.789 79.5425 77.4482C79.5425 81.0662 80.378 84.8068 79.3049 88.3635C78.9518 89.119 78.8446 89.9661 78.9983 90.7857C79.3125 91.4435 79.8584 91.9621 80.5313 92.2421C83.7278 93.9898 87.4301 94.5417 91.0174 95.0323C93.7309 95.4156 97.5789 96.2204 100.085 94.7563C101.151 94.1355 101.511 92.978 101.856 91.8205C102.815 88.0801 103.38 84.2496 103.542 80.3916C103.542 79.8857 103.619 79.3875 103.642 78.8586C103.852 75.3939 103.923 71.9241 103.857 68.4491C103.811 65.9273 103.611 63.2061 101.963 61.3051C99.7788 58.7756 95.5476 57.0969 92.3282 56.5067C91.2875 56.2915 90.2206 56.2321 89.1624 56.3304C87.6639 56.5679 86.2173 57.0605 84.8852 57.7868C83.2908 58.5533 81.8728 59.2432 81.0526 60.8145C80.1916 62.638 79.5905 64.5732 79.2666 66.5635C78.9652 68.4293 78.9239 70.328 79.1439 72.2051C79.2359 73.125 79.4735 74.0371 79.5655 74.9493C79.6015 75.1209 79.622 75.2953 79.6268 75.4705Z" fill="white"/>
<path opacity="0.1" d="M94.4133 95.9904C95.4635 96.297 97.8857 95.3312 98.6906 95.2239C99.1735 95.1396 99.6104 94.8943 100.093 94.787C102.493 94.1891 102.776 87.4437 103.006 85.627C103.627 80.8362 104.585 75.8691 104.654 71.063C104.762 69.208 104.547 67.3483 104.018 65.567C103.749 64.6773 103.287 63.8576 102.666 63.1661C102.045 62.4747 101.279 61.9283 100.423 61.5657C97.3568 60.4619 96.4446 70.1585 96.023 72.1668C95.6014 74.1751 95.5478 77.7318 94.2217 79.3415C92.8956 80.9512 90.2434 81.2501 88.5111 80.4376C87.5794 79.9699 86.8041 79.2409 86.2801 78.3398C85.756 77.4386 85.5057 76.4043 85.56 75.3632C85.6647 74.642 85.7235 73.9149 85.7363 73.1863C85.7355 72.8206 85.6305 72.4627 85.4337 72.1545C85.2369 71.8464 84.9563 71.6007 84.6248 71.4462C84.3121 71.3681 83.9838 71.3783 83.6766 71.4757C83.3694 71.5731 83.0952 71.754 82.8848 71.9981C82.4763 72.5007 82.1833 73.0869 82.0263 73.7152C81.6297 75.0284 81.3728 76.3799 81.2597 77.7471C80.9531 80.9895 81.4437 84.3162 80.6695 87.482C80.3231 88.4663 80.1569 89.5049 80.1789 90.5481C80.3551 91.4112 80.8232 92.1873 81.5045 92.7457C82.1858 93.3042 83.0387 93.6109 83.9196 93.6142C84.8032 93.5806 85.6655 93.3337 86.433 92.8945C87.2005 92.4554 87.8504 91.8371 88.3271 91.0923C88.4802 90.8259 88.6863 90.5937 88.9327 90.4101C89.2077 90.272 89.515 90.2111 89.8218 90.2338C91.2859 90.2338 93.3862 90.5711 93.8614 92.2115C94.1987 93.3842 93.3862 94.511 94.0224 95.7221C94.116 95.8559 94.2549 95.9513 94.4133 95.9904Z" fill="#020202"/>
<path d="M86.1193 51.8922C86.3741 52.4006 86.8083 52.7966 87.3381 53.0037C87.9842 53.1496 88.5993 53.4092 89.1547 53.7702C89.605 54.2581 89.8917 54.8745 89.9749 55.5332L90.4118 57.5721L90.6418 58.5993C90.6717 58.785 90.734 58.964 90.8257 59.1282C90.9551 59.2726 91.1153 59.3862 91.2944 59.4605C91.4735 59.5348 91.6669 59.5679 91.8606 59.5575C92.6684 59.5908 93.4682 59.3856 94.1601 58.9672C94.2812 58.9145 94.381 58.8228 94.4438 58.7066C94.5045 58.564 94.5205 58.4063 94.4897 58.2544L94.2368 55.3186C94.0963 54.5159 94.2228 53.6892 94.5971 52.9653C95.4418 51.4295 96.0687 49.7835 96.4597 48.0749C96.5965 47.6003 96.6286 47.1017 96.5538 46.6135C96.479 46.1254 96.299 45.6593 96.0264 45.2474C95.7538 44.8356 95.395 44.4879 94.9749 44.2283C94.5547 43.9687 94.0832 43.8035 93.5929 43.744C92.159 43.3037 90.6282 43.2877 89.1854 43.698C88.6488 43.882 88.4878 44.2499 88.2349 44.7328C87.8593 45.4994 87.4684 46.2659 87.1847 47.0324C86.9011 47.7989 86.5179 48.8107 86.2343 49.7306C85.9405 50.4146 85.8997 51.1809 86.1193 51.8922Z" fill="#FBB9AD"/>
<path d="M64.4193 66.6785C64.3273 66.5252 64.151 66.3719 64.0053 66.4639C63.946 66.5231 63.9036 66.5972 63.8827 66.6785C63.7986 66.8257 63.677 66.948 63.5302 67.0328C63.3834 67.1177 63.2167 67.162 63.0472 67.1614C62.7176 67.1614 62.3726 67.1077 62.0354 67.1077C61.5946 67.1216 61.1631 67.2375 60.7748 67.4463C60.3864 67.6552 60.0517 67.9512 59.7971 68.3112C59.2905 69.0395 59.008 69.9002 58.9846 70.7871C58.8944 71.5842 59.1139 72.3855 59.5978 73.0253C60.3643 73.9222 61.7518 73.9452 62.9399 73.9068H64.0283C64.2855 73.9406 64.5458 73.8743 64.7555 73.7217C64.9652 73.5691 65.1082 73.3417 65.1551 73.0867C65.5997 72.0059 66.4046 70.925 65.8527 69.8366C65.3008 68.7481 65.0785 67.445 64.4193 66.6785Z" fill="#FBB9AD"/>
<path d="M85.8131 78.0997V69.9745C85.8133 69.6567 85.7176 69.3461 85.5384 69.0835C85.3592 68.8209 85.105 68.6185 84.8089 68.5028L64.6876 60.4926C63.6451 60.0787 61.5219 61.3204 61.5219 62.4396L62.5107 81.2425C62.5102 81.5564 62.6032 81.8633 62.778 82.1241C62.9528 82.3849 63.2013 82.5877 63.4918 82.7065L82.655 91.5369C83.7051 91.9662 85.8438 90.7244 85.8438 89.5976L85.8131 78.0997Z" fill="#1976D2"/>
<path d="M85.8127 78.0997V69.9745C85.8201 69.6561 85.7281 69.3433 85.5495 69.0795C85.3709 68.8158 85.1146 68.6142 84.8162 68.5028L64.6872 60.4926C63.6448 60.0787 61.5215 61.3204 61.5215 62.4396L62.5103 81.2425C62.5108 81.5562 62.6043 81.8627 62.7789 82.1233C62.9535 82.3838 63.2015 82.5868 63.4914 82.7065L82.6546 91.5369C83.6971 91.9662 85.8357 90.7244 85.8357 89.5976L85.8127 78.0997Z" fill="url(#paint0_linear)"/>
<path d="M84.8086 78.575V70.4498C84.8094 70.1308 84.7139 69.8191 84.5348 69.5552C84.3557 69.2913 84.1012 69.0875 83.8045 68.9704L63.6832 60.9679C63.4425 60.8714 63.1818 60.8354 62.924 60.863C62.6662 60.8906 62.4191 60.981 62.2043 61.1262C61.9895 61.2714 61.8135 61.4671 61.6918 61.6961C61.5701 61.925 61.5064 62.1803 61.5062 62.4396V81.7407C61.5067 82.0544 61.6002 82.3609 61.7748 82.6215C61.9495 82.8821 62.1974 83.0851 62.4874 83.2048L82.6087 91.5599C82.8019 91.6401 83.0091 91.6813 83.2182 91.6811C83.4274 91.6809 83.6344 91.6394 83.8275 91.5589C84.0206 91.4784 84.1958 91.3605 84.3431 91.212C84.4905 91.0636 84.607 90.8874 84.686 90.6938C84.7676 90.5023 84.8093 90.2963 84.8086 90.0882V78.575Z" fill="#EF6C00"/>
<path d="M84.8087 70.4498L71.0112 77.5478L61.8895 61.4508C61.8895 61.4508 61.5369 61.2438 61.5369 62.4396V81.7407L84.8087 88.9767V70.4498Z" fill="url(#paint1_linear)"/>
<path d="M89.5919 44.6102C89.7324 44.8231 89.9139 45.006 90.1258 45.1481C90.3376 45.2902 90.5757 45.3888 90.826 45.438C92.1904 45.7293 93.0182 45.0701 93.7081 46.6568C93.9306 47.2001 93.9995 47.794 93.9074 48.3738C93.9074 48.4965 93.4782 49.8532 93.3708 49.7843C93.7234 50.0372 93.9994 49.3473 94.3827 49.148C94.7659 48.9487 95.3332 49.5313 95.2412 50.0295C95.0812 50.5188 94.7958 50.9575 94.4133 51.302C93.8005 52.0626 93.4629 53.0081 93.4552 53.9848C93.4552 54.2071 93.5395 54.5061 93.7694 54.5137C93.9994 54.5214 94.2524 54.1994 94.4287 54.0768C94.7094 53.8886 95.0041 53.722 95.3102 53.5786C96.2453 53.134 97.6557 52.996 98.4376 52.3674C98.8406 52.0321 99.1121 51.5651 99.2041 51.049C99.2041 50.9264 99.2041 49.608 98.9742 49.6769C99.2064 49.6078 99.4225 49.4932 99.6099 49.3396C99.7973 49.1861 99.9523 48.9968 100.066 48.7827C100.179 48.5686 100.249 48.3341 100.271 48.0928C100.293 47.8515 100.266 47.6083 100.193 47.3774C100.09 47.0528 99.9021 46.7617 99.6487 46.5342C100.607 45.2004 100.162 43.2228 99.0125 42.05C97.7784 40.9471 96.2166 40.2793 94.5666 40.149C92.7741 39.8664 90.9411 39.9868 89.2009 40.5016C88.5972 40.6686 88.0391 40.97 87.5682 41.3831C87.3381 41.5913 87.1616 41.8518 87.0535 42.1427C86.9454 42.4336 86.909 42.7462 86.9473 43.0541C87.0486 43.0954 87.1597 43.1065 87.2671 43.0861C87.3745 43.0657 87.4738 43.0147 87.5529 42.9392C87.4515 43.2157 87.4639 43.5211 87.5875 43.7884C87.7111 44.0558 87.9358 44.2631 88.2121 44.3649C88.4191 44.4402 88.6437 44.4527 88.8578 44.4009C89.0719 44.349 89.2659 44.2352 89.4156 44.0736C89.4309 44.2639 89.4914 44.4479 89.5919 44.6102Z" fill="#473F47"/>
<path d="M88.7181 53.4329L88.948 53.5019C89.017 53.5089 89.0816 53.5386 89.132 53.5862C89.1471 53.6388 89.1471 53.6946 89.132 53.7472C89.5823 54.2351 89.869 54.8514 89.9522 55.5102L90.3891 57.5491C91.1269 56.2458 91.6839 54.8481 92.0448 53.3945C90.9402 53.5222 89.8253 53.535 88.7181 53.4329Z" fill="#DC9F95"/>
<path d="M87.5529 78.1764C87.4238 78.0179 87.2577 77.8937 87.0692 77.8148C86.8806 77.7359 86.6755 77.7048 86.4721 77.7241C86.241 77.8403 86.0205 77.9762 85.8128 78.1304C85.6173 78.2176 85.4061 78.2645 85.192 78.2684C84.3252 78.3305 83.4551 78.2077 82.6394 77.9081C82.2278 77.7074 81.7787 77.5951 81.321 77.5785C81.0474 77.6318 80.7886 77.7436 80.5624 77.9064C80.3361 78.0691 80.1478 78.2789 80.0102 78.5213C79.6023 79.1065 79.3729 79.7974 79.3498 80.5103C79.3266 81.2232 79.5108 81.9276 79.8799 82.5379C80.2224 83.0339 80.6732 83.4455 81.1984 83.7414C82.3623 84.3509 83.6558 84.6717 84.9697 84.6765C86.2728 84.7378 87.5989 84.6765 88.8943 84.7378C89.2012 84.7939 89.5179 84.7509 89.7988 84.6152C89.954 84.4709 90.0741 84.2929 90.1499 84.0949C90.2256 83.8969 90.255 83.6842 90.2357 83.4731C90.2817 82.4843 90.4503 81.6487 89.8754 80.8132C89.1529 79.8901 88.3774 79.0097 87.5529 78.1764Z" fill="#FBB9AD"/>
<path d="M101.948 61.3128C101.948 61.3128 116.351 80.1464 111.798 86.7998C107.245 93.4533 88.0357 85.7037 88.0357 85.7037L89.906 80.1924C89.906 80.1924 103.397 81.9017 103.497 80.3916C103.596 78.8816 94.9421 70.2352 94.9421 70.2352C94.9421 70.2352 93.3937 57.5798 101.948 61.3128Z" fill="white"/>
<defs>
<linearGradient id="paint0_linear" x1="89.9519" y1="57.8557" x2="36.6783" y2="117.331" gradientUnits="userSpaceOnUse">
<stop offset="0.01"/>
<stop offset="0.13" stop-opacity="0.69"/>
<stop offset="0.25" stop-opacity="0.32"/>
<stop offset="1" stop-opacity="0"/>
</linearGradient>
<linearGradient id="paint1_linear" x1="-2800.89" y1="5269.46" x2="-3144.91" y2="3343.16" gradientUnits="userSpaceOnUse">
<stop offset="0.01"/>
<stop offset="0.13" stop-opacity="0.69"/>
<stop offset="0.25" stop-opacity="0.32"/>
<stop offset="1" stop-opacity="0"/>
</linearGradient>
<clipPath id="clip0">
<rect width="9" height="9" fill="white" transform="translate(46.2992 108.604)"/>
</clipPath>
<clipPath id="clip1">
<rect width="8" height="8" fill="white" transform="translate(10 78)"/>
</clipPath>
</defs>
</svg>
