<svg width="124" height="159" viewBox="0 0 124 159" fill="none" xmlns="http://www.w3.org/2000/svg">
<path d="M58.1617 0H9.77374C4.37585 0 0 4.39698 0 9.82093V122.186C0 127.61 4.37585 132.007 9.77374 132.007H58.1617C63.5596 132.007 67.9355 127.61 67.9355 122.186V9.82093C67.9355 4.39698 63.5596 0 58.1617 0Z" fill="#0D569F"/>
<path d="M57.1634 1.65952H10.7844C5.57031 1.65952 1.34344 5.90679 1.34344 11.1461V120.638C1.34344 125.877 5.57031 130.124 10.7844 130.124H57.1634C62.3775 130.124 66.6044 125.877 66.6044 120.638V11.1461C66.6044 5.90679 62.3775 1.65952 57.1634 1.65952Z" fill="#473F47"/>
<path d="M64.8172 12.2359V118.26C64.7912 120.662 63.8174 122.956 62.1096 124.637C60.4018 126.318 58.0997 127.249 55.7091 127.226H12.2634C10.6706 127.213 9.10821 126.786 7.72779 125.988C6.34397 125.219 5.1895 124.092 4.38352 122.725C3.57754 121.358 3.14926 119.799 3.14288 118.21V12.2359C3.1689 9.83044 4.14406 7.5337 5.85416 5.85017C7.56425 4.16665 9.86945 3.23402 12.2634 3.25713H19.6584V4.56989C19.6677 5.42147 19.9279 6.2512 20.4061 6.95433C20.8843 7.65746 21.559 8.20247 22.3452 8.52056C22.8739 8.7352 23.439 8.84456 24.0091 8.84256H44.2345C44.8074 8.8491 45.3761 8.74217 45.9079 8.52787C46.4398 8.31357 46.9244 7.9961 47.3341 7.59359C47.7439 7.19108 48.0707 6.71141 48.2959 6.18198C48.5212 5.65254 48.6404 5.08371 48.6468 4.50797V3.26952H55.7584C58.0909 3.26179 60.3386 4.14753 62.0441 5.74642C62.9241 6.57953 63.6244 7.58545 64.1014 8.70178C64.5784 9.81811 64.8221 11.021 64.8172 12.2359Z" fill="white"/>
<path d="M64.8172 12.2359V118.26C64.7912 120.662 63.8174 122.956 62.1096 124.637C60.4018 126.318 58.0997 127.249 55.7091 127.226H12.2634C10.6706 127.213 9.10823 126.786 7.7278 125.988C6.84378 125.158 6.13832 124.156 5.655 123.042C5.17168 121.928 4.92074 120.726 4.91769 119.511V13.5363C4.93057 12.3458 5.17671 11.1695 5.64204 10.0745C6.10737 8.9796 6.78278 7.9875 7.62971 7.15488C8.47665 6.32226 9.47851 5.66543 10.5781 5.22189C11.6777 4.77835 12.8534 4.5568 14.0382 4.56988H19.5845C19.5997 5.43006 19.8707 6.26599 20.3627 6.97006C20.8548 7.67413 21.5452 8.21413 22.3453 8.52055C22.7603 9.02378 23.2798 9.42974 23.8674 9.70999C24.4551 9.99024 25.0965 10.138 25.747 10.1429H45.9723C46.5473 10.1511 47.1183 10.045 47.6524 9.83064C48.1864 9.6163 48.6731 9.29799 49.0843 8.89401C49.4955 8.49003 49.8231 8.00834 50.0484 7.47666C50.2737 6.94498 50.3922 6.37379 50.397 5.79595V4.5575H57.5085C59.0928 4.5761 60.6459 5.00249 62.0195 5.79595C62.8979 6.6212 63.5992 7.61814 64.0803 8.72557C64.5614 9.833 64.8122 11.0276 64.8172 12.2359Z" fill="#B4B7CC"/>
<rect x="7.29919" y="11.6035" width="55" height="15" rx="5" fill="#1565C0"/>
<rect x="7.29919" y="39.6035" width="55" height="85" rx="5" fill="white"/>
<rect x="21.2992" y="45.6035" width="36" height="2" fill="#C4C4C4"/>
<rect x="21.2992" y="71.6035" width="36" height="2" fill="#C4C4C4"/>
<rect x="21.2992" y="84.6035" width="36" height="2" fill="#C4C4C4"/>
<rect x="21" y="59" width="36" height="2" fill="#C4C4C4"/>
<rect x="21.2992" y="49.6035" width="36" height="2" fill="#C4C4C4"/>
<rect x="21.2992" y="75.6035" width="36" height="2" fill="#C4C4C4"/>
<rect x="21.2992" y="88.6035" width="36" height="2" fill="#C4C4C4"/>
<rect x="21" y="63" width="36" height="2" fill="#C4C4C4"/>
<rect x="42.2992" y="104.604" width="17" height="17" rx="8.5" fill="#EF6C00"/>
<g clip-path="url(#clip0)">
<path d="M50.7992 115.729C50.3867 115.729 50.0492 116.066 50.0492 116.479C50.0492 116.891 50.3867 117.229 50.7992 117.229C51.2117 117.229 51.5492 116.891 51.5492 116.479C51.5492 116.066 51.2117 115.729 50.7992 115.729ZM48.5492 108.979C48.1367 108.979 47.7992 109.316 47.7992 109.729C47.7992 110.141 48.1367 110.479 48.5492 110.479C48.9617 110.479 49.2992 110.141 49.2992 109.729C49.2992 109.316 48.9617 108.979 48.5492 108.979ZM48.5492 111.229C48.1367 111.229 47.7992 111.566 47.7992 111.979C47.7992 112.391 48.1367 112.729 48.5492 112.729C48.9617 112.729 49.2992 112.391 49.2992 111.979C49.2992 111.566 48.9617 111.229 48.5492 111.229ZM48.5492 113.479C48.1367 113.479 47.7992 113.816 47.7992 114.229C47.7992 114.641 48.1367 114.979 48.5492 114.979C48.9617 114.979 49.2992 114.641 49.2992 114.229C49.2992 113.816 48.9617 113.479 48.5492 113.479ZM53.0492 110.479C53.4617 110.479 53.7992 110.141 53.7992 109.729C53.7992 109.316 53.4617 108.979 53.0492 108.979C52.6367 108.979 52.2992 109.316 52.2992 109.729C52.2992 110.141 52.6367 110.479 53.0492 110.479ZM50.7992 113.479C50.3867 113.479 50.0492 113.816 50.0492 114.229C50.0492 114.641 50.3867 114.979 50.7992 114.979C51.2117 114.979 51.5492 114.641 51.5492 114.229C51.5492 113.816 51.2117 113.479 50.7992 113.479ZM53.0492 113.479C52.6367 113.479 52.2992 113.816 52.2992 114.229C52.2992 114.641 52.6367 114.979 53.0492 114.979C53.4617 114.979 53.7992 114.641 53.7992 114.229C53.7992 113.816 53.4617 113.479 53.0492 113.479ZM53.0492 111.229C52.6367 111.229 52.2992 111.566 52.2992 111.979C52.2992 112.391 52.6367 112.729 53.0492 112.729C53.4617 112.729 53.7992 112.391 53.7992 111.979C53.7992 111.566 53.4617 111.229 53.0492 111.229ZM50.7992 111.229C50.3867 111.229 50.0492 111.566 50.0492 111.979C50.0492 112.391 50.3867 112.729 50.7992 112.729C51.2117 112.729 51.5492 112.391 51.5492 111.979C51.5492 111.566 51.2117 111.229 50.7992 111.229ZM50.7992 108.979C50.3867 108.979 50.0492 109.316 50.0492 109.729C50.0492 110.141 50.3867 110.479 50.7992 110.479C51.2117 110.479 51.5492 110.141 51.5492 109.729C51.5492 109.316 51.2117 108.979 50.7992 108.979Z" fill="white"/>
</g>
<path d="M10.4071 33.4195C10.3794 33.802 10.2378 34.1031 9.9823 34.3228C9.72839 34.5425 9.39311 34.6524 8.97644 34.6524C8.52071 34.6524 8.16182 34.4994 7.89978 34.1934C7.63936 33.8858 7.50916 33.4642 7.50916 32.9287V32.7115C7.50916 32.3697 7.56938 32.0686 7.68982 31.8081C7.81026 31.5477 7.98197 31.3483 8.20496 31.21C8.42957 31.07 8.68998 31 8.98621 31C9.39636 31 9.72677 31.1099 9.97742 31.3296C10.2281 31.5493 10.3729 31.8578 10.412 32.2549H9.67957C9.66166 32.0254 9.59737 31.8594 9.48669 31.7569C9.37764 31.6527 9.21082 31.6006 8.98621 31.6006C8.74207 31.6006 8.55896 31.6885 8.43689 31.8643C8.31645 32.0384 8.2546 32.3094 8.25134 32.6773V32.9458C8.25134 33.3299 8.30912 33.6107 8.42468 33.7881C8.54187 33.9655 8.72579 34.0542 8.97644 34.0542C9.20268 34.0542 9.37113 34.003 9.48181 33.9004C9.59412 33.7963 9.65841 33.6359 9.67468 33.4195H10.4071ZM10.7318 33.2583C10.7318 32.9963 10.7823 32.7627 10.8832 32.5576C10.9841 32.3526 11.1289 32.1939 11.3177 32.0816C11.5082 31.9693 11.7287 31.9131 11.9794 31.9131C12.3358 31.9131 12.6263 32.0222 12.851 32.2403C13.0772 32.4584 13.2033 32.7546 13.2294 33.1289L13.2343 33.3096C13.2343 33.7149 13.1211 34.0404 12.8949 34.2862C12.6687 34.5303 12.3651 34.6524 11.9843 34.6524C11.6034 34.6524 11.299 34.5303 11.0712 34.2862C10.8449 34.042 10.7318 33.71 10.7318 33.2901V33.2583ZM11.4374 33.3096C11.4374 33.5603 11.4846 33.7523 11.579 33.8858C11.6734 34.0176 11.8085 34.0835 11.9843 34.0835C12.1552 34.0835 12.2886 34.0184 12.3846 33.8882C12.4807 33.7564 12.5287 33.5464 12.5287 33.2583C12.5287 33.0126 12.4807 32.8221 12.3846 32.687C12.2886 32.552 12.1535 32.4844 11.9794 32.4844C11.8068 32.4844 11.6734 32.552 11.579 32.687C11.4846 32.8205 11.4374 33.028 11.4374 33.3096ZM14.3182 31.9619L14.3402 32.2671C14.529 32.0311 14.7821 31.9131 15.0995 31.9131C15.3794 31.9131 15.5878 31.9953 15.7245 32.1597C15.8612 32.3241 15.9312 32.5699 15.9344 32.897V34.6035H15.2289V32.9141C15.2289 32.7644 15.1963 32.6561 15.1312 32.5894C15.0661 32.521 14.9579 32.4868 14.8065 32.4868C14.608 32.4868 14.459 32.5715 14.3597 32.7408V34.6035H13.6542V31.9619H14.3182ZM17.3163 31.3125V31.9619H17.7679V32.4795H17.3163V33.7979C17.3163 33.8955 17.335 33.9655 17.3724 34.0078C17.4099 34.0502 17.4815 34.0713 17.5873 34.0713C17.6654 34.0713 17.7346 34.0656 17.7948 34.0542V34.5889C17.6565 34.6312 17.514 34.6524 17.3676 34.6524C16.8728 34.6524 16.6205 34.4025 16.6107 33.9029V32.4795H16.225V31.9619H16.6107V31.3125H17.3163ZM19.6918 34.6035C19.6592 34.5401 19.6356 34.4611 19.621 34.3667C19.4501 34.5572 19.2279 34.6524 18.9545 34.6524C18.6957 34.6524 18.4808 34.5775 18.3099 34.4278C18.1407 34.278 18.056 34.0892 18.056 33.8614C18.056 33.5814 18.1594 33.3666 18.3661 33.2168C18.5744 33.0671 18.8747 32.9914 19.267 32.9898H19.5917V32.8384C19.5917 32.7163 19.5599 32.6187 19.4965 32.5454C19.4346 32.4722 19.3361 32.4356 19.201 32.4356C19.0822 32.4356 18.9886 32.4641 18.9203 32.521C18.8536 32.578 18.8202 32.6561 18.8202 32.7554H18.1146C18.1146 32.6024 18.1618 32.4608 18.2562 32.3306C18.3506 32.2004 18.4841 32.0987 18.6566 32.0254C18.8291 31.9506 19.0228 31.9131 19.2377 31.9131C19.5632 31.9131 19.8212 31.9953 20.0116 32.1597C20.2037 32.3225 20.2997 32.552 20.2997 32.8482V33.9932C20.3013 34.2438 20.3363 34.4335 20.4047 34.562V34.6035H19.6918ZM19.1083 34.1128C19.2124 34.1128 19.3085 34.09 19.3964 34.0445C19.4843 33.9973 19.5494 33.9346 19.5917 33.8565V33.4024H19.328C18.9748 33.4024 18.7868 33.5244 18.764 33.7686L18.7616 33.8101C18.7616 33.898 18.7925 33.9704 18.8544 34.0274C18.9162 34.0843 19.0009 34.1128 19.1083 34.1128ZM21.9403 34.0835C22.0705 34.0835 22.1763 34.0477 22.2577 33.9761C22.3391 33.9045 22.3814 33.8093 22.3846 33.6905H23.0463C23.0446 33.8695 22.9958 34.0339 22.8998 34.1836C22.8038 34.3317 22.6719 34.4473 22.5043 34.5303C22.3383 34.6117 22.1543 34.6524 21.9525 34.6524C21.5749 34.6524 21.2771 34.5327 21.059 34.2935C20.8409 34.0526 20.7318 33.7206 20.7318 33.2974V33.251C20.7318 32.8441 20.84 32.5194 21.0565 32.2769C21.273 32.0344 21.57 31.9131 21.9476 31.9131C22.278 31.9131 22.5425 32.0075 22.7411 32.1963C22.9413 32.3835 23.043 32.6333 23.0463 32.9458H22.3846C22.3814 32.8091 22.3391 32.6984 22.2577 32.6138C22.1763 32.5275 22.0689 32.4844 21.9354 32.4844C21.771 32.4844 21.6465 32.5446 21.5619 32.6651C21.4789 32.7839 21.4374 32.9776 21.4374 33.2461V33.3194C21.4374 33.5912 21.4789 33.7865 21.5619 33.9053C21.6449 34.0241 21.771 34.0835 21.9403 34.0835ZM24.2938 31.3125V31.9619H24.7455V32.4795H24.2938V33.7979C24.2938 33.8955 24.3125 33.9655 24.35 34.0078C24.3874 34.0502 24.459 34.0713 24.5648 34.0713C24.6429 34.0713 24.7121 34.0656 24.7723 34.0542V34.5889C24.634 34.6312 24.4916 34.6524 24.3451 34.6524C23.8503 34.6524 23.598 34.4025 23.5883 33.9029V32.4795H23.2025V31.9619H23.5883V31.3125H24.2938ZM26.5692 33.8736C26.5692 33.7873 26.5261 33.7198 26.4398 33.6709C26.3552 33.6205 26.2185 33.5757 26.0297 33.5367C25.4014 33.4048 25.0873 33.1379 25.0873 32.7359C25.0873 32.5015 25.1841 32.3062 25.3778 32.1499C25.5731 31.9921 25.8278 31.9131 26.142 31.9131C26.4773 31.9131 26.745 31.9921 26.9452 32.1499C27.147 32.3078 27.2479 32.5129 27.2479 32.7652H26.5424C26.5424 32.6643 26.5098 32.5812 26.4447 32.5161C26.3796 32.4494 26.2779 32.416 26.1395 32.416C26.0207 32.416 25.9288 32.4429 25.8636 32.4966C25.7985 32.5503 25.766 32.6187 25.766 32.7017C25.766 32.7798 25.8026 32.8433 25.8759 32.8921C25.9507 32.9393 26.076 32.9808 26.2518 33.0166C26.4276 33.0508 26.5757 33.0899 26.6962 33.1338C27.0689 33.2705 27.2552 33.5074 27.2552 33.8443C27.2552 34.0852 27.1519 34.2805 26.9452 34.4302C26.7385 34.5783 26.4716 34.6524 26.1444 34.6524C25.9231 34.6524 25.7261 34.6133 25.5536 34.5352C25.3827 34.4554 25.2484 34.3472 25.1508 34.2105C25.0531 34.0721 25.0043 33.9232 25.0043 33.7637H25.6732C25.6797 33.889 25.7261 33.9851 25.8124 34.0518C25.8986 34.1185 26.0142 34.1519 26.1591 34.1519C26.2941 34.1519 26.3959 34.1267 26.4642 34.0762C26.5342 34.0241 26.5692 33.9566 26.5692 33.8736Z" fill="#8B8FAF"/>
<path d="M34.9325 33.3023H34.349V34.6035H33.6166V31.0489H34.9374C35.3573 31.0489 35.6812 31.1424 35.9091 31.3296C36.1369 31.5168 36.2509 31.7813 36.2509 32.1231C36.2509 32.3656 36.198 32.5682 36.0922 32.731C35.988 32.8921 35.8293 33.0207 35.6161 33.1167L36.3851 34.5694V34.6035H35.599L34.9325 33.3023ZM34.349 32.709H34.9398C35.1237 32.709 35.2662 32.6626 35.3671 32.5699C35.468 32.4755 35.5184 32.3461 35.5184 32.1817C35.5184 32.014 35.4704 31.8822 35.3744 31.7862C35.28 31.6901 35.1343 31.6421 34.9374 31.6421H34.349V32.709ZM37.9794 34.6524C37.592 34.6524 37.2762 34.5336 37.0321 34.2959C36.7896 34.0583 36.6683 33.7417 36.6683 33.3462V33.2779C36.6683 33.0126 36.7196 32.7757 36.8221 32.5674C36.9247 32.3575 37.0695 32.1963 37.2567 32.084C37.4455 31.9701 37.6604 31.9131 37.9012 31.9131C38.2626 31.9131 38.5466 32.027 38.7533 32.2549C38.9616 32.4828 39.0658 32.8059 39.0658 33.2242V33.5122H37.3837C37.4065 33.6848 37.4748 33.8231 37.5887 33.9273C37.7043 34.0314 37.85 34.0835 38.0258 34.0835C38.2976 34.0835 38.51 33.9851 38.663 33.7881L39.0096 34.1763C38.9038 34.326 38.7606 34.4432 38.58 34.5279C38.3993 34.6109 38.1991 34.6524 37.9794 34.6524ZM37.8988 32.4844C37.7588 32.4844 37.6449 32.5316 37.557 32.626C37.4707 32.7204 37.4154 32.8555 37.391 33.0313H38.3724V32.9751C38.3692 32.8189 38.3269 32.6984 38.2455 32.6138C38.1641 32.5275 38.0485 32.4844 37.8988 32.4844ZM40.5673 34.0835C40.6975 34.0835 40.8033 34.0477 40.8846 33.9761C40.966 33.9045 41.0083 33.8093 41.0116 33.6905H41.6732C41.6716 33.8695 41.6228 34.0339 41.5267 34.1836C41.4307 34.3317 41.2989 34.4473 41.1312 34.5303C40.9652 34.6117 40.7813 34.6524 40.5795 34.6524C40.2019 34.6524 39.904 34.5327 39.6859 34.2935C39.4678 34.0526 39.3588 33.7206 39.3588 33.2974V33.251C39.3588 32.8441 39.467 32.5194 39.6835 32.2769C39.8999 32.0344 40.197 31.9131 40.5746 31.9131C40.905 31.9131 41.1695 32.0075 41.368 32.1963C41.5682 32.3835 41.67 32.6333 41.6732 32.9458H41.0116C41.0083 32.8091 40.966 32.6984 40.8846 32.6138C40.8033 32.5275 40.6958 32.4844 40.5624 32.4844C40.398 32.4844 40.2735 32.5446 40.1888 32.6651C40.1058 32.7839 40.0643 32.9776 40.0643 33.2461V33.3194C40.0643 33.5912 40.1058 33.7865 40.1888 33.9053C40.2719 34.0241 40.398 34.0835 40.5673 34.0835ZM43.2919 34.6524C42.9045 34.6524 42.5887 34.5336 42.3446 34.2959C42.1021 34.0583 41.9808 33.7417 41.9808 33.3462V33.2779C41.9808 33.0126 42.0321 32.7757 42.1346 32.5674C42.2372 32.3575 42.382 32.1963 42.5692 32.084C42.758 31.9701 42.9729 31.9131 43.2137 31.9131C43.5751 31.9131 43.8591 32.027 44.0658 32.2549C44.2741 32.4828 44.3783 32.8059 44.3783 33.2242V33.5122H42.6962C42.719 33.6848 42.7873 33.8231 42.9012 33.9273C43.0168 34.0314 43.1625 34.0835 43.3383 34.0835C43.6101 34.0835 43.8225 33.9851 43.9755 33.7881L44.3221 34.1763C44.2163 34.326 44.0731 34.4432 43.8925 34.5279C43.7118 34.6109 43.5116 34.6524 43.2919 34.6524ZM43.2113 32.4844C43.0713 32.4844 42.9574 32.5316 42.8695 32.626C42.7832 32.7204 42.7279 32.8555 42.7035 33.0313H43.6849V32.9751C43.6817 32.8189 43.6394 32.6984 43.558 32.6138C43.4766 32.5275 43.361 32.4844 43.2113 32.4844ZM45.4305 31.9619L45.4525 32.2671C45.6413 32.0311 45.8944 31.9131 46.2118 31.9131C46.4917 31.9131 46.7001 31.9953 46.8368 32.1597C46.9735 32.3241 47.0435 32.5699 47.0468 32.897V34.6035H46.3412V32.9141C46.3412 32.7644 46.3086 32.6561 46.2435 32.5894C46.1784 32.521 46.0702 32.4868 45.9188 32.4868C45.7203 32.4868 45.5713 32.5715 45.472 32.7408V34.6035H44.7665V31.9619H45.4305ZM48.4286 31.3125V31.9619H48.8802V32.4795H48.4286V33.7979C48.4286 33.8955 48.4473 33.9655 48.4847 34.0078C48.5222 34.0502 48.5938 34.0713 48.6996 34.0713C48.7777 34.0713 48.8469 34.0656 48.9071 34.0542V34.5889C48.7688 34.6312 48.6263 34.6524 48.4799 34.6524C47.9851 34.6524 47.7328 34.4025 47.723 33.9029V32.4795H47.3373V31.9619H47.723V31.3125H48.4286ZM53.3553 33.4195C53.3277 33.802 53.1861 34.1031 52.9305 34.3228C52.6766 34.5425 52.3413 34.6524 51.9247 34.6524C51.469 34.6524 51.1101 34.4994 50.848 34.1934C50.5876 33.8858 50.4574 33.4642 50.4574 32.9287V32.7115C50.4574 32.3697 50.5176 32.0686 50.6381 31.8081C50.7585 31.5477 50.9302 31.3483 51.1532 31.21C51.3778 31.07 51.6382 31 51.9344 31C52.3446 31 52.675 31.1099 52.9257 31.3296C53.1763 31.5493 53.3212 31.8578 53.3602 32.2549H52.6278C52.6099 32.0254 52.5456 31.8594 52.4349 31.7569C52.3259 31.6527 52.1591 31.6006 51.9344 31.6006C51.6903 31.6006 51.5072 31.6885 51.3851 31.8643C51.2647 32.0384 51.2028 32.3094 51.1996 32.6773V32.9458C51.1996 33.3299 51.2574 33.6107 51.3729 33.7881C51.4901 33.9655 51.674 34.0542 51.9247 34.0542C52.1509 34.0542 52.3194 34.003 52.4301 33.9004C52.5424 33.7963 52.6066 33.6359 52.6229 33.4195H53.3553ZM55.3207 34.6035C55.2881 34.5401 55.2645 34.4611 55.2499 34.3667C55.079 34.5572 54.8568 34.6524 54.5834 34.6524C54.3246 34.6524 54.1097 34.5775 53.9388 34.4278C53.7696 34.278 53.6849 34.0892 53.6849 33.8614C53.6849 33.5814 53.7883 33.3666 53.995 33.2168C54.2033 33.0671 54.5036 32.9914 54.8959 32.9898H55.2206V32.8384C55.2206 32.7163 55.1888 32.6187 55.1254 32.5454C55.0635 32.4722 54.965 32.4356 54.83 32.4356C54.7111 32.4356 54.6176 32.4641 54.5492 32.521C54.4825 32.578 54.4491 32.6561 54.4491 32.7554H53.7435C53.7435 32.6024 53.7907 32.4608 53.8851 32.3306C53.9795 32.2004 54.113 32.0987 54.2855 32.0254C54.458 31.9506 54.6517 31.9131 54.8666 31.9131C55.1921 31.9131 55.4501 31.9953 55.6405 32.1597C55.8326 32.3225 55.9286 32.552 55.9286 32.8482V33.9932C55.9302 34.2438 55.9652 34.4335 56.0336 34.562V34.6035H55.3207ZM54.7372 34.1128C54.8413 34.1128 54.9374 34.09 55.0253 34.0445C55.1132 33.9973 55.1783 33.9346 55.2206 33.8565V33.4024H54.9569C54.6037 33.4024 54.4157 33.5244 54.3929 33.7686L54.3905 33.8101C54.3905 33.898 54.4214 33.9704 54.4833 34.0274C54.5451 34.0843 54.6298 34.1128 54.7372 34.1128ZM57.2152 34.6035H56.5072V30.8535H57.2152V34.6035ZM58.5433 34.6035H57.8353V30.8535H58.5433V34.6035ZM60.5575 33.8736C60.5575 33.7873 60.5144 33.7198 60.4281 33.6709C60.3435 33.6205 60.2067 33.5757 60.0179 33.5367C59.3897 33.4048 59.0756 33.1379 59.0756 32.7359C59.0756 32.5015 59.1724 32.3062 59.3661 32.1499C59.5614 31.9921 59.8161 31.9131 60.1302 31.9131C60.4655 31.9131 60.7333 31.9921 60.9335 32.1499C61.1353 32.3078 61.2362 32.5129 61.2362 32.7652H60.5306C60.5306 32.6643 60.4981 32.5812 60.433 32.5161C60.3679 32.4494 60.2662 32.416 60.1278 32.416C60.009 32.416 59.917 32.4429 59.8519 32.4966C59.7868 32.5503 59.7543 32.6187 59.7543 32.7017C59.7543 32.7798 59.7909 32.8433 59.8641 32.8921C59.939 32.9393 60.0643 32.9808 60.2401 33.0166C60.4159 33.0508 60.564 33.0899 60.6844 33.1338C61.0572 33.2705 61.2435 33.5074 61.2435 33.8443C61.2435 34.0852 61.1402 34.2805 60.9335 34.4302C60.7268 34.5783 60.4598 34.6524 60.1327 34.6524C59.9113 34.6524 59.7144 34.6133 59.5419 34.5352C59.371 34.4554 59.2367 34.3472 59.139 34.2105C59.0414 34.0721 58.9926 33.9232 58.9926 33.7637H59.6615C59.668 33.889 59.7144 33.9851 59.8007 34.0518C59.8869 34.1185 60.0025 34.1519 60.1473 34.1519C60.2824 34.1519 60.3842 34.1267 60.4525 34.0762C60.5225 34.0241 60.5575 33.9566 60.5575 33.8736Z" fill="white"/>
<path d="M16.41 76.0867L15.5633 75.99C15.36 75.9667 15.16 76.0367 15.0166 76.18L14.4033 76.7933C13.46 76.3133 12.6866 75.5433 12.2066 74.5967L12.8233 73.98C12.9666 73.8367 13.0366 73.6367 13.0133 73.4333L12.9166 72.5933C12.8766 72.2567 12.5933 72.0033 12.2533 72.0033H11.6766C11.3 72.0033 10.9866 72.3167 11.01 72.6933C11.1866 75.54 13.4633 77.8133 16.3066 77.99C16.6833 78.0133 16.9966 77.7 16.9966 77.3233V76.7467C17 76.41 16.7466 76.1267 16.41 76.0867ZM14.3333 74.6667H15.6666C15.85 74.6667 16 74.5167 16 74.3333C16 74.15 15.85 74 15.6666 74H15.1366L16.5733 72.5633C16.7033 72.4333 16.7033 72.2233 16.5733 72.0933C16.4433 71.9633 16.2333 71.9633 16.1033 72.0933L14.6666 73.53V73C14.6666 72.8167 14.5166 72.6667 14.3333 72.6667C14.15 72.6667 14 72.8167 14 73V74.3333C14 74.5167 14.15 74.6667 14.3333 74.6667Z" fill="#1976D2"/>
<path d="M16.41 89.0867L15.5633 88.99C15.36 88.9667 15.16 89.0367 15.0166 89.18L14.4033 89.7933C13.46 89.3133 12.6866 88.5433 12.2066 87.5967L12.8233 86.98C12.9666 86.8367 13.0366 86.6367 13.0133 86.4333L12.9166 85.5933C12.8766 85.2567 12.5933 85.0033 12.2533 85.0033H11.6766C11.3 85.0033 10.9866 85.3167 11.01 85.6933C11.1866 88.54 13.4633 90.8133 16.3066 90.99C16.6833 91.0133 16.9966 90.7 16.9966 90.3233V89.7467C17 89.41 16.7466 89.1267 16.41 89.0867ZM14.3333 87.6667H15.6666C15.85 87.6667 16 87.5167 16 87.3333C16 87.15 15.85 87 15.6666 87H15.1366L16.5733 85.5633C16.7033 85.4333 16.7033 85.2233 16.5733 85.0933C16.4433 84.9633 16.2333 84.9633 16.1033 85.0933L14.6666 86.53V86C14.6666 85.8167 14.5166 85.6667 14.3333 85.6667C14.15 85.6667 14 85.8167 14 86V87.3333C14 87.5167 14.15 87.6667 14.3333 87.6667Z" fill="#1976D2"/>
<path d="M17.55 46.8833L16.2867 45.62C16.18 45.5133 16 45.5867 16 45.7367V46.3333H14.8333C14.74 46.3333 14.6666 46.4067 14.6666 46.5V47.5C14.6666 47.5933 14.74 47.6667 14.8333 47.6667H16V48.2633C16 48.4133 16.18 48.4867 16.2833 48.38L17.5466 47.1167C17.6133 47.0533 17.6133 46.9467 17.55 46.8833ZM16.41 50.0867L15.5633 49.99C15.36 49.9667 15.16 50.0367 15.0167 50.18L14.4033 50.7933C13.46 50.3133 12.6866 49.5433 12.2066 48.5967L12.8233 47.98C12.9666 47.8367 13.0366 47.6367 13.0133 47.4333L12.9166 46.5933C12.8766 46.2567 12.5933 46.0033 12.2533 46.0033H11.6766C11.3 46.0033 10.9866 46.3167 11.01 46.6933C11.1866 49.54 13.4633 51.8133 16.3067 51.99C16.6833 52.0133 16.9966 51.7 16.9966 51.3233V50.7467C17 50.41 16.7466 50.1267 16.41 50.0867Z" fill="#43A047"/>
<g clip-path="url(#clip1)">
<path d="M17.7936 63.4452C15.7239 61.5627 12.6079 61.5627 10.5414 63.4452C10.2668 63.6944 10.2668 64.1356 10.5251 64.4016L10.9174 64.8057C11.1496 65.0448 11.5191 65.065 11.7741 64.8563L12.4182 64.3275C12.5719 64.2029 12.6634 64.011 12.6634 63.8056V62.9401C13.6378 62.6134 14.6939 62.6101 15.6715 62.9401V63.8089C15.6715 64.011 15.7631 64.2029 15.9168 64.3309L16.5576 64.8563C16.8159 65.065 17.1821 65.0448 17.4143 64.8057L17.8066 64.4016C18.0682 64.1356 18.0649 63.6944 17.7936 63.4452ZM12.2057 61.0206C12.3855 61.0206 12.5327 60.869 12.5327 60.6838V60.1551L13.919 61.5829C14.0465 61.7143 14.2525 61.7143 14.38 61.5829L16.2307 59.6769C16.3582 59.5456 16.3582 59.3334 16.2307 59.2021C16.1031 59.0707 15.8972 59.0707 15.7696 59.2021L14.1511 60.869L12.9904 59.6735H13.5136C13.6934 59.6735 13.8405 59.522 13.8405 59.3368C13.8405 59.1515 13.6934 59 13.5136 59H12.2057C12.0259 59 11.8787 59.1515 11.8787 59.3368V60.6838C11.8787 60.869 12.0259 61.0206 12.2057 61.0206Z" fill="#E53935"/>
</g>
<path d="M85.4176 158.248C102.216 158.248 115.833 153.757 115.833 148.217C115.833 142.676 102.216 138.185 85.4176 138.185C68.6197 138.185 55.0023 142.676 55.0023 148.217C55.0023 153.757 68.6197 158.248 85.4176 158.248Z" fill="#0C5399"/>
<path d="M104.476 138.636L105.313 144.164L102.994 144.428L100.464 138.583L104.476 138.636Z" fill="#FCBDBA"/>
<path d="M102.298 143.617C102.411 143.527 102.509 143.42 102.589 143.3C102.707 143.374 102.841 143.421 102.979 143.438C103.118 143.454 103.259 143.441 103.391 143.397L104.555 143.203C104.76 143.178 104.959 143.122 105.146 143.035H105.225L105.472 143.511C105.894 144.362 106.143 145.288 106.204 146.236C104.002 146.758 101.738 146.974 99.4767 146.879C99.2958 146.904 99.1114 146.881 98.9426 146.811C98.7737 146.741 98.6264 146.628 98.5157 146.483C98.4722 146.384 98.4498 146.277 98.4498 146.17C98.4498 146.062 98.4722 145.955 98.5157 145.857C98.6224 145.633 98.7724 145.433 98.9571 145.268C99.1417 145.103 99.3573 144.977 99.5913 144.896C100.191 144.649 100.799 144.437 101.355 144.155C101.692 144.019 102.009 143.838 102.298 143.617Z" fill="#EF6C00"/>
<path d="M88.9234 140.32L89.6464 145.865L87.3188 146.077L84.9119 140.188L88.9234 140.32Z" fill="#FCBDBA"/>
<path d="M56.4814 47.2968H76.5538C81.238 47.2968 85.0353 51.094 85.0353 55.7783V72.8911C85.0353 77.5753 81.238 81.3726 76.5538 81.3726H56.4814C51.7972 81.3726 47.9999 77.5753 47.9999 72.8911V55.7783C47.9999 51.094 51.7972 47.2968 56.4814 47.2968Z" fill="#EEEEEE"/>
<path opacity="0.1" d="M75.1784 77.1495C75.4634 77.1749 75.7504 77.1326 76.0159 77.0261C76.4454 76.727 76.7399 76.2709 76.8359 75.7565C78.2201 71.4805 81.0854 67.3191 85.3879 66.0583C86.5076 70.6164 86.4283 75.3774 86.3401 80.0766C86.3401 81.3285 86.199 82.7656 85.1939 83.5062C84.5387 83.9105 80.0102 91.0905 79.2412 91.0538C74.3623 91.2391 71.7816 86.2289 67.4022 84.0705C66.0885 83.418 64.8807 77.8636 67.4022 77.0349C68.1604 76.7792 69.8355 77.1671 70.6467 77.1671L75.1784 77.1495Z" fill="#020202"/>
<path d="M104.679 100.161L101.222 119.372L104.679 140.038L99.08 140.47L90.9247 117.194L93.6843 98.75L104.679 100.161Z" fill="#473F47"/>
<path d="M85.3526 98.75L79.137 124.327L84.1624 141.933L89.1437 141.678L88.4472 126.654L97.2197 102.365L85.3526 98.75Z" fill="#473F47"/>
<path d="M87.4509 53.9356C86.8698 55.1022 86.4968 56.3613 86.3488 57.6561C86.2806 58.3026 86.3821 58.9558 86.6434 59.551C86.9047 60.1463 87.3168 60.6631 87.8388 61.0505C88.1571 61.1975 88.4537 61.3874 88.7205 61.6148C89.655 62.5758 88.5882 64.3126 89.126 65.5558C89.3334 65.965 89.686 66.2822 90.1148 66.4452C90.5437 66.6083 91.0179 66.6055 91.4448 66.4374C91.8718 66.2506 92.2517 65.9709 92.5568 65.6185C92.8618 65.2662 93.0844 64.8501 93.2081 64.4008C93.4459 63.4979 93.5528 62.5656 93.5255 61.6324L93.6225 56.078C93.7462 54.8418 93.5519 53.5945 93.0582 52.4544C92.722 51.8738 92.2322 51.3971 91.6427 51.0767C91.0532 50.7563 90.3868 50.6046 89.7167 50.6382C88.3149 50.8145 87.9182 52.8423 87.4509 53.9356Z" fill="#FCBDBA"/>
<path d="M68.0723 81.6723C68.0723 81.6723 78.7227 91.1854 79.4897 91.1854C80.2567 91.1854 84.9912 85.2078 84.9912 85.2078L85.3527 98.7852C86.6676 99.561 88.0379 100.239 89.4524 100.813C91.8875 101.925 94.5437 102.467 97.2197 102.4C102.395 101.933 104.679 100.196 104.679 100.196L101.487 68.3065C101.487 68.3065 95.4564 63.9687 93.3934 64.63C91.9181 64.8944 90.4075 64.8944 88.9322 64.63C85.9522 64.2332 82.9105 68.3065 82.9105 68.3065L78.9519 81.3109L69.6681 78.0135C69.0636 78.3907 68.5876 78.9423 68.3027 79.5954C68.0178 80.2485 67.9375 80.9726 68.0723 81.6723Z" fill="white"/>
<path d="M86.2785 47.9491C86.21 47.2488 86.3743 46.5454 86.7458 45.9478C87.46 44.9515 88.9235 44.8633 90.1225 45.1278C90.947 45.3539 91.745 45.6672 92.503 46.0624C93.0605 46.2921 93.6686 46.3711 94.2663 46.2916C95.8491 46.2635 97.3836 46.837 98.56 47.8962C100.182 49.4303 100.561 51.6962 100.729 53.8209C100.905 56.2279 99.8472 58.2292 98.2514 60.063C96.9024 61.6588 94.4426 63.2282 92.6881 61.2092C91.9057 60.1829 91.5489 58.8946 91.6919 57.612C92.1121 57.5691 92.5083 57.3954 92.8246 57.1155C93.1409 56.8355 93.3615 56.4634 93.4552 56.0515C93.5157 55.7927 93.5032 55.5222 93.4191 55.2701C93.3351 55.0179 93.1828 54.794 92.9791 54.6232C92.8541 54.5479 92.7154 54.498 92.5711 54.4763C92.4268 54.4546 92.2796 54.4615 92.1379 54.4967C91.9963 54.5319 91.8629 54.5947 91.7456 54.6815C91.6282 54.7682 91.5291 54.8773 91.4538 55.0024C91.4032 55.0815 91.3646 55.1676 91.3392 55.258C91.085 54.7465 90.8983 54.2042 90.7838 53.6446C90.581 53.1068 89.9021 52.6395 89.4613 53.001C89.2056 53.2038 89.0557 53.6534 88.7295 53.5829C88.6212 53.5423 88.5265 53.472 88.4562 53.3801C87.8143 52.7627 87.2729 52.0488 86.8516 51.2641C86.457 50.3384 86.2502 49.3434 86.2433 48.3371C86.2767 48.2106 86.2887 48.0795 86.2785 47.9491Z" fill="#EF6C00"/>
<path d="M107.209 46.7678C108.33 46.6347 109.465 46.8471 110.462 47.3764C111.46 47.9058 112.272 48.7269 112.79 49.7301C114.015 52.2428 113.134 55.214 112.931 58.0088C112.747 58.979 112.898 59.9829 113.359 60.856C113.82 61.729 114.565 62.4194 115.47 62.8139C117.445 64.0041 119.719 64.8064 121.298 66.4903C122.54 67.8745 123.274 69.6409 123.378 71.4981C123.477 72.2723 123.342 73.0583 122.99 73.7552C122.646 74.2706 122.195 74.7064 121.668 75.0336C120.207 76.0897 118.55 76.8435 116.794 77.2508C115.037 77.658 113.217 77.7105 111.441 77.4052C109.669 77.0691 108.029 76.2357 106.713 75.0024C105.397 73.7691 104.459 72.1867 104.008 70.4401C103.233 66.7196 105.119 63.0254 105.833 59.2872C105.964 58.8493 106.006 58.3896 105.956 57.9353C105.906 57.481 105.765 57.0414 105.542 56.6423C104.952 55.8488 103.859 55.6636 103.003 55.1611C98.3746 52.4368 103.814 47.2262 107.209 46.7678Z" fill="#EF6C00"/>
<path d="M100.614 50.3649H100.693C101.662 50.3649 102.448 51.1504 102.448 52.1194V52.1987C102.448 53.1677 101.662 53.9532 100.693 53.9532H100.614C99.6449 53.9532 98.8594 53.1677 98.8594 52.1987V52.1194C98.8594 51.1504 99.6449 50.3649 100.614 50.3649Z" fill="#1976D2"/>
<path d="M86.6485 145.257C86.7591 145.165 86.8569 145.058 86.9395 144.94C87.0561 145.018 87.1884 145.069 87.327 145.09C87.4656 145.112 87.6072 145.102 87.7418 145.063L88.9056 144.887C89.1122 144.864 89.3143 144.811 89.5051 144.728H89.5845L89.8225 145.213C90.2204 146.075 90.4479 147.006 90.4926 147.955C88.28 148.424 86.0148 148.596 83.7567 148.466C83.5746 148.489 83.3898 148.461 83.2221 148.386C83.0544 148.312 82.9101 148.193 82.8045 148.043C82.7611 147.945 82.7386 147.838 82.7386 147.73C82.7386 147.622 82.7611 147.516 82.8045 147.417C82.914 147.196 83.0673 146.998 83.2552 146.838C83.4431 146.677 83.6618 146.556 83.8978 146.483C84.5061 146.245 85.1233 146.051 85.714 145.769C86.0476 145.642 86.3621 145.47 86.6485 145.257Z" fill="#EF6C00"/>
<path d="M68.2397 77.5374C67.492 77.1007 66.6922 76.7601 65.8593 76.5235C65.7286 76.4651 65.5856 76.4394 65.4428 76.4486C65.2999 76.4578 65.1614 76.5017 65.0393 76.5764C64.9099 76.6976 64.8259 76.8593 64.8013 77.0349C64.6722 77.5995 64.7184 78.19 64.9335 78.7276C63.9945 79.248 63.0086 79.679 61.9888 80.0149C61.7761 80.0512 61.5731 80.131 61.3925 80.2493C61.212 80.3676 61.0578 80.5219 60.9397 80.7025C60.8765 80.8913 60.8713 81.0946 60.9247 81.2863C60.9781 81.478 61.0877 81.6493 61.2394 81.7782C61.5477 82.0338 61.9193 82.2013 62.315 82.2631C64.8718 82.8626 69.0332 82.2631 69.6416 79.2037C69.7738 78.5337 69.527 78.4191 68.998 78.04C68.7158 77.8548 68.4602 77.6961 68.2397 77.5374Z" fill="#FCBDBA"/>
<g clip-path="url(#clip2)">
<path d="M76.5306 68.2834C70.9564 63.2135 62.5644 63.2135 56.9991 68.2834C56.2594 68.9546 56.2594 70.1427 56.955 70.8592L58.0117 71.9475C58.637 72.5915 59.632 72.6459 60.3189 72.0836L62.0537 70.6597C62.4675 70.3241 62.7141 69.8071 62.7141 69.2539V66.923C65.3383 66.0432 68.1826 66.0341 70.8155 66.923V69.2629C70.8155 69.8071 71.0621 70.3241 71.476 70.6687L73.2019 72.0836C73.8976 72.6459 74.8839 72.5915 75.5091 71.9475L76.5658 70.8592C77.2703 70.1427 77.2615 68.9546 76.5306 68.2834ZM61.4813 61.7533C61.9656 61.7533 62.3619 61.3451 62.3619 60.8463V59.4224L66.0956 63.2679C66.439 63.6216 66.9938 63.6216 67.3372 63.2679L72.3213 58.1345C72.6648 57.7808 72.6648 57.2094 72.3213 56.8557C71.9779 56.502 71.4231 56.502 71.0797 56.8557L66.7208 61.3451L63.5947 58.1254H65.0036C65.488 58.1254 65.8842 57.7173 65.8842 57.2185C65.8842 56.7196 65.488 56.3115 65.0036 56.3115H61.4813C60.9969 56.3115 60.6007 56.7196 60.6007 57.2185V60.8463C60.6007 61.3451 60.9969 61.7533 61.4813 61.7533Z" fill="#E53935"/>
</g>
<defs>
<clipPath id="clip0">
<rect width="9" height="9" fill="white" transform="translate(46.2992 108.604)"/>
</clipPath>
<clipPath id="clip1">
<rect width="8" height="8" fill="white" transform="translate(10 58)"/>
</clipPath>
<clipPath id="clip2">
<rect width="21.5456" height="21.5456" fill="white" transform="translate(55.5409 53.6183)"/>
</clipPath>
</defs>
</svg>
